<svg width="61" height="42" viewBox="0 0 61 42" fill="none" xmlns="http://www.w3.org/2000/svg">
<rect width="61" height="42" rx="6" fill="white"/>
<path fill-rule="evenodd" clip-rule="evenodd" d="M30.9357 30.0246C28.859 31.8241 26.1651 32.9104 23.2214 32.9104C16.6532 32.9104 11.3286 27.5019 11.3286 20.8302C11.3286 14.1585 16.6532 8.75 23.2214 8.75C26.1651 8.75 28.859 9.83631 30.9357 11.6358C33.0124 9.83631 35.7063 8.75 38.65 8.75C45.2182 8.75 50.5428 14.1585 50.5428 20.8302C50.5428 27.5019 45.2182 32.9104 38.65 32.9104C35.7063 32.9104 33.0124 31.8241 30.9357 30.0246Z" fill="#ED0006"/>
<path fill-rule="evenodd" clip-rule="evenodd" d="M30.9357 30.0246C33.4928 27.8089 35.1142 24.5119 35.1142 20.8302C35.1142 17.1485 33.4928 13.8515 30.9357 11.6358C33.0124 9.83631 35.7063 8.75 38.65 8.75C45.2182 8.75 50.5428 14.1585 50.5428 20.8302C50.5428 27.5019 45.2182 32.9104 38.65 32.9104C35.7063 32.9104 33.0124 31.8241 30.9357 30.0246Z" fill="#F9A000"/>
<path fill-rule="evenodd" clip-rule="evenodd" d="M30.9357 30.0245C33.4928 27.8088 35.1142 24.5118 35.1142 20.8301C35.1142 17.1485 33.4928 13.8515 30.9357 11.6357C28.3786 13.8515 26.7572 17.1485 26.7572 20.8301C26.7572 24.5118 28.3786 27.8088 30.9357 30.0245Z" fill="#FF5E00"/>
</svg>
