<svg xmlns="http://www.w3.org/2000/svg" width="437" height="371" fill="none"><g clip-path="url(#a)"><path fill="#FC8019" d="m367.371 96.624-33.812 72.397-57.278-11.894 2.944-9.052 47.521 10.586 30.157-62.251a4.209 4.209 0 0 1 1.338-1.606c1.522-1.105 4.705-2.744 8.31-.643a1.92 1.92 0 0 1 .82 2.463Z"/><path fill="#FFBC85" d="M190.876 370.052h109.611V204.738H190.876v165.314Z"/><path fill="#545454" d="m295.024 271.772-4.445 13.179s6.813 8.048 6.489 17.26c0 0-27.672-13.448-27.31-15.688.362-2.24 9.799-23.03 9.799-23.03l15.467 8.279ZM365.608 254.857l8.092 11.317s10.513-.807 17.793 4.85c0 0-27.1 14.553-28.715 12.935-1.615-1.618-12.944-21.433-12.944-21.433l15.774-7.669Z"/><path fill="#fff" stroke="#545454" stroke-miterlimit="10" stroke-width="1.92" d="M330.014 176.442c1.837-3.58 46.423 74.431 45.709 75.99l-33.572 16.978-22.651-36.785 10.514-56.183Z"/><path fill="#fff" stroke="#545454" stroke-miterlimit="10" stroke-width="1.92" d="M272.063 154.572s68.586 6.111 64.684 35.411c0 0 2.069 22.029-32.265 86.903l-34.732-11.922 28.714-59.823-85.139-1.328s-30.098-9.695-20.606-50.06l39.417-8.46 39.927 9.279Z"/><path fill="#fff" stroke="#545454" stroke-miterlimit="10" stroke-width=".96" d="M228.086 83.075s-2.023 11.72-4.045 13.742c-2.023 2.022-8.491 2.022-8.491 2.022l-11.729-9.296 8.491-12.528 15.774 6.06Z"/><path fill="#fff" d="M230.488 83.99c11.576-1.878 19.436-12.777 17.557-24.344-1.879-11.567-12.786-19.422-24.361-17.545-11.575 1.878-19.436 12.777-17.557 24.344 1.879 11.568 12.786 19.423 24.361 17.545Z"/><path fill="#545454" d="M227.077 42.05c4.159 0 8.224 1.233 11.682 3.542a21.005 21.005 0 0 1 3.186 32.33 21.041 21.041 0 0 1-32.352-3.184 21.005 21.005 0 0 1-3.543-11.675 21.03 21.03 0 0 1 6.167-14.85 21.066 21.066 0 0 1 14.86-6.163Zm0-.42a21.459 21.459 0 0 0-11.916 3.612 21.434 21.434 0 0 0-9.12 22.002 21.436 21.436 0 0 0 16.852 16.84c4.16.827 8.473.402 12.392-1.22a21.445 21.445 0 0 0 9.625-7.894 21.42 21.42 0 0 0-2.667-27.062 21.456 21.456 0 0 0-15.166-6.278Z"/><path fill="#FCFCFC" d="M305.832 150.378c1.72.706 2.86 4.783 4.294 6.169 1.434 1.387 3.516.24 1.35-2.967m-5.816 1.139c2.166 3.203.601 4.682-1.064 3.577-.736-.488-1.682-1.938-2.498-3.362a8.826 8.826 0 0 0-6.354-4.363c-5.169-.769-14.896-.966-30.633 3.178-25.653 6.749-41.848 6.135-46.462-19.819l17.487-4.476c.201.487 3.276 13.427 3.276 13.427s47.391-5.438 54.456-5.438c7.313 0 18.748 10.086 20.152 15.469.265 1.017.307 3.539-2.544.652-.753-.761-1.438-2.686-3.566-4.354m.719 5.106c2.166 3.202.656 4.597-1.064 3.572-1.632-.967-1.888-5.182-4.357-6.997"/><path stroke="#545454" stroke-miterlimit="10" stroke-width="1.92" d="M305.832 150.378c1.72.706 2.86 4.783 4.294 6.169 1.434 1.387 3.516.24 1.35-2.967m-5.816 1.139c2.166 3.203.601 4.682-1.064 3.577-.736-.488-1.682-1.938-2.498-3.362a8.826 8.826 0 0 0-6.354-4.363c-5.169-.769-14.896-.966-30.633 3.178-25.653 6.749-41.848 6.135-46.462-19.819l17.487-4.476c.201.487 3.276 13.427 3.276 13.427s47.391-5.438 54.456-5.438c7.313 0 18.748 10.086 20.152 15.469.265 1.017.307 3.539-2.544.652-.753-.761-1.438-2.686-3.566-4.354m.719 5.106c2.166 3.202.656 4.597-1.064 3.572-1.632-.967-1.888-5.182-4.357-6.997"/><path fill="#fff" d="M324.353 136.422c3.234.807 5.236 4.95 7.28 5.253 2.153.324 3.099-1.706-.421-4.043m2.561-1.929c3.507 2.333 1.888 4.354-.134 3.547-2.023-.807-4.854-4.446-6.876-4.446m7.01.899c3.507 2.333 1.888 4.354-.134 3.547-2.023-.807-4.854-4.446-6.876-4.446m1.619 4.446c3.503 2.337 2.523 4.467.42 4.043-.942-.189-2.523-1.261-3.898-2.341a9.632 9.632 0 0 0-8.205-1.778c-5.526 1.358-15.409 5.174-29.56 15.84-23.054 17.381-39.636 23.441-55.007-.807l15.774-11.725c.421.42 6.473 8.892 6.473 8.892s47.887-21.739 55.007-24.656c7.368-3.013 23.054 2.429 26.696 7.279.685.912 1.77 3.438-2.292 1.706-1.072-.458-2.561-2.101-5.391-2.921"/><path stroke="#545454" stroke-miterlimit="10" stroke-width="1.92" d="M324.353 136.422c3.234.807 5.236 4.95 7.28 5.253 2.153.324 3.099-1.706-.421-4.043m2.561-1.929c3.507 2.333 1.888 4.354-.134 3.547-2.023-.807-4.854-4.446-6.876-4.446m7.01.899c3.507 2.333 1.888 4.354-.134 3.547-2.023-.807-4.854-4.446-6.876-4.446m1.619 4.446c3.503 2.337 2.523 4.467.42 4.043-.942-.189-2.523-1.261-3.898-2.341a9.632 9.632 0 0 0-8.205-1.778c-5.526 1.358-15.409 5.174-29.56 15.84-23.054 17.381-39.636 23.441-55.007-.807l15.774-11.725c.421.42 6.473 8.892 6.473 8.892s47.887-21.739 55.007-24.656c7.368-3.013 23.054 2.429 26.696 7.279.685.912 1.77 3.438-2.292 1.706-1.072-.458-2.561-2.101-5.391-2.921"/><path fill="#FFBC85" d="M97.242 369.85h78.873V233.638H97.242V369.85Z"/><path fill="#E6F0FF" d="M133.754 253.999a3.917 3.917 0 1 0 0-7.833 3.919 3.919 0 0 0-3.92 3.917 3.918 3.918 0 0 0 3.92 3.916ZM110.528 260.685a3.916 3.916 0 0 0 0-5.539 3.922 3.922 0 0 0-5.543 0 3.914 3.914 0 0 0 0 5.539 3.92 3.92 0 0 0 5.543 0ZM128.413 277.126a3.913 3.913 0 1 0 0-7.825 3.913 3.913 0 1 0 0 7.825ZM124.061 299.117a3.916 3.916 0 0 0 0-5.539 3.922 3.922 0 0 0-5.543 0 3.914 3.914 0 0 0 0 5.539 3.92 3.92 0 0 0 5.543 0ZM118.363 325.095a3.914 3.914 0 0 0 0-5.539 3.92 3.92 0 0 0-5.543 0 3.916 3.916 0 0 0 0 5.539 3.92 3.92 0 0 0 5.543 0ZM132.333 344.038a3.918 3.918 0 1 0 0-7.833 3.918 3.918 0 0 0-3.92 3.916 3.919 3.919 0 0 0 3.92 3.917ZM117.084 351.268c.824-2-.131-4.289-2.132-5.113a3.921 3.921 0 0 0-5.117 2.132 3.92 3.92 0 0 0 7.249 2.981ZM145.075 318.332a3.914 3.914 0 0 0 0-5.539 3.92 3.92 0 0 0-5.543 0 3.916 3.916 0 0 0 0 5.539 3.922 3.922 0 0 0 5.543 0ZM146.219 293.86a3.918 3.918 0 0 0 3.92-3.916 3.918 3.918 0 0 0-3.92-3.917 3.917 3.917 0 1 0 0 7.833ZM167.166 284.132a3.915 3.915 0 0 0 .633-5.503 3.922 3.922 0 0 0-5.507-.633 3.915 3.915 0 0 0-.633 5.503 3.922 3.922 0 0 0 5.507.633ZM167.17 312.602a3.915 3.915 0 0 0 .633-5.503 3.922 3.922 0 0 0-5.506-.633 3.915 3.915 0 0 0-.634 5.503 3.922 3.922 0 0 0 5.507.633ZM155.122 335.848a3.914 3.914 0 1 0-3.915-3.913 3.914 3.914 0 0 0 3.915 3.913ZM165.706 352.834a3.915 3.915 0 0 0 2.792-4.784 3.92 3.92 0 0 0-7.58 1.994 3.919 3.919 0 0 0 4.788 2.79ZM153.976 267.085a3.914 3.914 0 0 0 0-5.539 3.92 3.92 0 0 0-5.543 0 3.916 3.916 0 0 0 0 5.539 3.92 3.92 0 0 0 5.543 0Z"/><path stroke="#545454" stroke-linecap="round" stroke-miterlimit="10" stroke-width="1.92" d="M158.722 54.582s-22.247 15.764-33.976-10.926c-11.729-26.69 23.601 3.303-8.125 17.175-14.719 4.85-20.392-14.145-26.46-23.845-6.069-9.7-15.775-5.627-17.39 10.116-2.052 18.751-13.243 7.77-19.244.31-6.947-8.636-19.867-9.69-27.916-2.075l-.567.554M.404 169.974c14.719-4.849 20.392 14.146 26.456 23.846 6.065 9.699 15.775 5.66 17.394-10.087 2.052-18.751 13.243-7.77 19.244-.31 6.947 8.636 19.862 9.695 27.916 2.076.189-.181.378-.362.567-.551"/><path stroke="#545454" stroke-miterlimit="10" stroke-width="2.88" d="M437 370.052H.168"/><path fill="#545454" d="M161.766 97.153c15.847 6.073 29.691 7.804 38.413-1.546l17.797-23.446c-2.022 1.223-7.267-7.678-2.022-9.703 5.244-2.026 6.472 3.231 6.472 3.231 10.934 1.618 15.371-10.506 15.371-10.506 4.853 8.49 10.513 6.871 10.513 6.871-2.149-22.021-23.046-23.345-36.587-17.604a7.105 7.105 0 0 0 1.404-4.203c0-4.24-3.784-7.678-8.495-7.678-4.71 0-8.495 3.438-8.495 7.678s3.785 7.682 8.495 7.682c.349 0 .697-.02 1.043-.063-3.507 2.614-5.673 5.775-5.492 8.956.286 4.988-5.257 4.039-5.257 4.039-15.375-1.631-15.757 9.279-15.757 9.279-1.216 8.489-6.473 8.892-6.473 8.892-9.819 2.282-13.264 7.27-14.399 11.183a5.744 5.744 0 0 0 3.469 6.938Z"/><path fill="#545454" d="M225.635 95.607c.323-.034.664 8.06.786 11.254a2.909 2.909 0 0 0 1.001 2.102c3.701 3.231 17.242 15.675 23.971 30.123a2.939 2.939 0 0 1-.967 3.589l-18.778 13.448a2.947 2.947 0 0 1-1.627.551l-52.072 1.479a2.956 2.956 0 0 1-2.315-1.054 2.944 2.944 0 0 1-.629-2.464c2.204-10.678 9.732-42.42 24.602-60.432a2.8 2.8 0 0 0 .311-.462l1.716-3.185a2.945 2.945 0 0 1 3.966-1.198c4.437 2.383 13.747 6.846 20.035 6.25Z"/><path stroke="#fff" stroke-linecap="round" stroke-miterlimit="10" stroke-width="4.81" d="M201.798 98.839v8.19M221.265 106.979h-8.196M200.448 119.099l5.934-5.648M219.137 117.448l-.702 8.161M228.469 117.674l7.326 3.669M232.973 132.459l8.028-1.652M228.154 142.431l4.722 6.695M206.222 95.04l7.33 3.668M188.517 122.953l5.526 6.043M202.98 128.399l8.154-.807M211.778 134.556l6.737 4.66M187.508 135.77l6.737 4.661M182.083 140.473l-.21 8.186M198.207 149.16l-8.188-.29M214.217 151.992l-4.618-6.766"/><path fill="#545454" d="M218.582 65.265c-1.19 1.68-.496 3.274 1.224 4.131a.421.421 0 1 1-.375.719c-1.766-1.206-2.447-3.182-.841-4.85h-.008ZM233.953 83.075c-2.864-.126-5.631-1.98-6.308-4.841 0-.01.003-.018.01-.024a.031.031 0 0 1 .023-.01c.009 0 .018.004.024.01.007.006.01.015.01.024.753 2.731 3.491 4.446 6.249 4.455a.21.21 0 1 1 0 .42l-.008-.034Z"/><path stroke="#545454" stroke-linecap="round" stroke-miterlimit="10" stroke-width="1.85" d="M397.158 204.536a5.457 5.457 0 0 0 5.458-5.455 5.457 5.457 0 0 0-5.458-5.455 5.457 5.457 0 0 0-5.459 5.455 5.457 5.457 0 0 0 5.459 5.455ZM30.3 19.416a5.457 5.457 0 0 0 5.459-5.455A5.457 5.457 0 0 0 30.3 8.506a5.457 5.457 0 0 0-5.458 5.455 5.457 5.457 0 0 0 5.458 5.455Z"/><path fill="#545454" d="M227.481 86.215s-5.257-.106-8.495-3.341c0 0 6.068 2.02 8.697 1.45l-.202 1.89Z"/><path fill="#FDBF8C" d="M309.016 1.26c6.205 0 12.27 1.838 17.43 5.282a31.337 31.337 0 0 1 4.762 48.234 31.393 31.393 0 0 1-34.187 6.803 31.37 31.37 0 0 1-14.082-11.543 31.342 31.342 0 0 1-5.292-17.416 31.376 31.376 0 0 1 9.199-22.154 31.418 31.418 0 0 1 22.17-9.193m0-1.26a32.65 32.65 0 0 0-18.131 5.496 32.617 32.617 0 0 0-12.02 14.636 32.585 32.585 0 0 0-1.856 18.843 32.61 32.61 0 0 0 8.932 16.697 32.645 32.645 0 0 0 35.566 7.067 32.628 32.628 0 0 0 14.645-12.013 32.589 32.589 0 0 0 3.014-30.598A32.63 32.63 0 0 0 309.016.013Z"/><path stroke="#FDBF8C" stroke-linecap="round" stroke-linejoin="round" stroke-width="3" d="M309.02 9.094v23.517M320.564 44.143 309.02 32.611"/><path fill="#545454" d="M311.459 32.62a2.44 2.44 0 0 1-1.505 2.259 2.445 2.445 0 0 1-3.334-1.777 2.435 2.435 0 0 1 1.038-2.508 2.444 2.444 0 0 1 3.801 2.026Z"/></g><defs><clipPath id="a"><path fill="#fff" d="M0 0h437v370.657H0z"/></clipPath></defs></svg>