<svg width="302" height="289" viewBox="0 0 302 289" fill="none" xmlns="http://www.w3.org/2000/svg">
<g clip-path="url(#clip0_1_4005)">
<path d="M68.1309 74.5686C67.8926 75.3707 63.792 81.8249 57.8855 84.0181C51.9791 86.2113 47.5837 88.6364 49.2265 91.5376C50.8693 94.4389 58.1238 92.8536 58.1238 92.8536C58.1238 92.8536 43.4015 108.851 57.2585 117.994C74.1878 129.141 91.8319 89.2379 91.8319 89.2379L68.1309 74.5686Z" fill="#E7E7E7"/>
<path d="M89.0358 94.7333C88.9857 94.8085 83.3927 91.4874 76.5834 87.3203C69.774 83.1533 64.2563 79.7068 64.3065 79.6316C64.3567 79.5564 69.9496 82.8775 76.7527 87.0446C83.5557 91.2117 89.0985 94.6581 89.0358 94.7333Z" fill="#DEDEDE"/>
<path d="M86.4333 99.5145C86.3895 99.5897 80.3701 96.0618 72.9902 91.6316C65.6103 87.2013 59.66 83.5481 59.7039 83.4854C59.7477 83.4228 65.7733 86.9444 73.1532 91.3747C80.5332 95.8049 86.4772 99.4393 86.4333 99.5145Z" fill="#DEDEDE"/>
<path d="M83.2735 104.051C83.2296 104.127 76.4704 100.154 68.175 95.172C59.8797 90.1903 53.1957 86.0985 53.2459 86.0233C53.296 85.9481 60.049 89.9209 68.3443 94.8963C76.6397 99.8717 83.3236 103.976 83.2735 104.051Z" fill="#DEDEDE"/>
<path d="M79.3297 109.66C79.2858 109.735 74.044 106.527 67.6296 102.529C61.2153 98.5308 56.055 95.2034 56.0989 95.1282C56.1428 95.0531 61.3846 98.2614 67.7989 102.259C74.2133 106.257 79.3798 109.585 79.3297 109.66Z" fill="#DEDEDE"/>
<path d="M74.696 115.08C74.6458 115.155 69.7677 112.01 63.8048 108.056C57.8419 104.101 53.0327 100.837 53.0829 100.762C53.1331 100.686 58.0112 103.832 63.9553 107.78C69.8994 111.728 74.7461 115.005 74.696 115.08Z" fill="#DEDEDE"/>
<path d="M68.783 118.84C68.5254 118.75 68.2775 118.634 68.0431 118.495C67.5791 118.251 66.9082 117.868 66.0931 117.43C64.4566 116.509 62.2307 115.186 59.823 113.67C57.4153 112.154 55.2771 110.65 53.7598 109.553C53.0011 109.002 52.3929 108.55 51.9791 108.225C51.7524 108.071 51.5423 107.895 51.3521 107.698C51.6004 107.815 51.8358 107.958 52.0543 108.124L53.8914 109.378C55.4402 110.43 57.5908 111.884 59.9923 113.413C62.3937 114.942 64.6071 116.302 66.2059 117.273L68.087 118.42C68.3316 118.538 68.5646 118.678 68.783 118.84Z" fill="#DEDEDE"/>
<path d="M54.9198 93.2357C53.7479 92.9364 52.6393 92.4291 51.6468 91.7381C50.5999 91.1357 49.6714 90.3479 48.9067 89.4133C48.9694 89.3444 50.1608 90.4222 51.8161 91.4686C53.4714 92.5151 54.9511 93.148 54.9198 93.2357Z" fill="#DEDEDE"/>
<path d="M90.735 88.4233C90.6792 88.547 90.6075 88.6628 90.5218 88.768L89.8948 89.7267C89.318 90.5539 88.4715 91.7382 87.3868 93.192C85.2675 96.0995 82.2704 100.085 78.8532 104.377C75.436 108.67 72.2319 112.523 69.8806 115.224C68.7019 116.59 67.7363 117.681 67.0591 118.426L66.2816 119.285C66.1952 119.388 66.0986 119.483 65.9932 119.567C66.0569 119.447 66.1371 119.338 66.2314 119.241L66.965 118.345L69.7051 115.08C72.0125 112.317 75.1789 108.482 78.6024 104.183C82.0258 99.8843 85.0355 95.9303 87.205 93.0541L89.7757 89.6515L90.478 88.7304C90.5537 88.6201 90.6398 88.5173 90.735 88.4233Z" fill="#DEDEDE"/>
<path d="M85.9444 85.0081C86.0134 85.0645 80.1383 92.7219 72.8273 102.109C65.5164 111.496 59.566 119.059 59.4594 119.021C59.3528 118.984 65.2655 111.308 72.5765 101.914C79.8875 92.5214 85.9005 84.9517 85.9444 85.0081Z" fill="#DEDEDE"/>
<path d="M79.2605 81.2234C79.2084 81.3549 79.1432 81.4808 79.0661 81.5994C78.9156 81.8751 78.715 82.226 78.4391 82.6584C77.9124 83.5732 77.1161 84.8829 76.0815 86.4683C74.0312 89.6453 70.9776 93.9 67.3849 98.4118C63.7921 102.923 60.3874 106.89 57.9358 109.766C56.7194 111.176 55.7287 112.329 55.0077 113.156L54.2302 114.046C54.1411 114.159 54.0402 114.262 53.9292 114.353C54.0039 114.232 54.0877 114.117 54.18 114.008L54.9387 113.056L57.7853 109.603C60.193 106.689 63.5664 102.71 67.1905 98.1924C70.8146 93.6745 73.8556 89.4698 75.9686 86.3241C77.022 84.7576 77.8497 83.473 78.4077 82.5644C78.6773 82.1383 78.8968 81.7999 79.0347 81.5367C79.0995 81.4251 79.1751 81.3202 79.2605 81.2234Z" fill="#DEDEDE"/>
<path d="M73.7743 78.0839C73.8433 78.134 68.8397 84.7574 62.5947 92.866C56.3497 100.975 51.2333 107.516 51.1643 107.46C51.0953 107.404 56.0989 100.787 62.3439 92.6717C68.5889 84.5569 73.7053 78.0275 73.7743 78.0839Z" fill="#DEDEDE"/>
<path d="M69.6483 75.3958C69.4977 75.7044 69.3215 76 69.1216 76.2793C68.9461 76.5613 68.7204 76.9059 68.4382 77.2756C68.156 77.6453 67.8614 78.1028 67.4789 78.5289C66.614 79.6157 65.6843 80.6494 64.6949 81.6244C63.4802 82.822 62.1856 83.9357 60.82 84.9581C59.4415 85.9601 57.996 86.8667 56.4936 87.6714C55.2775 88.3268 54.0209 88.9044 52.7316 89.4008C52.1861 89.6327 51.6719 89.7894 51.2267 89.9397C50.7816 90.0901 50.3928 90.2029 50.0668 90.2907C49.7403 90.3926 49.4072 90.4721 49.0698 90.5288C49.3799 90.38 49.7032 90.2605 50.0354 90.1716C50.3489 90.0713 50.7314 89.9397 51.164 89.7706C51.5967 89.6014 52.1108 89.4322 52.6501 89.1941C53.9347 88.6677 55.1905 88.0737 56.4121 87.4144C57.891 86.6005 59.3172 85.6943 60.6821 84.7011C62.0384 83.6967 63.3305 82.6085 64.5507 81.4427C65.5444 80.4843 66.4842 79.4718 67.366 78.4098C67.7548 77.9712 68.0683 77.5388 68.3567 77.1566C68.6451 76.7743 68.8897 76.4673 69.0778 76.1978C69.2472 75.9163 69.438 75.6482 69.6483 75.3958Z" fill="#DEDEDE"/>
<path d="M98.3342 66.5791H19.7007V74.8756H98.3342V66.5791Z" fill="#DEDEDE"/>
<path d="M44.6309 74.5686C44.3926 75.3707 40.292 81.8249 34.3855 84.0181C28.4791 86.2113 24.0837 88.6364 25.7202 91.5376C27.3567 94.4389 34.6238 92.8536 34.6238 92.8536C34.6238 92.8536 19.8953 108.851 33.7585 117.994C50.6878 129.141 68.3319 89.2379 68.3319 89.2379L44.6309 74.5686Z" fill="#EFEEEE"/>
<path d="M65.5477 94.7333C65.5038 94.8085 59.9046 91.4874 53.1016 87.3203C46.2985 83.1533 40.7557 79.7068 40.8184 79.6316C40.8811 79.5564 46.4615 82.8775 53.2708 87.0446C60.0802 91.2117 65.5979 94.6581 65.5477 94.7333Z" fill="#DEDEDE"/>
<path d="M62.9333 99.5145C62.8895 99.5897 56.8639 96.0618 49.484 91.6316C42.104 87.2013 36.16 83.5481 36.2039 83.4854C36.2477 83.4228 42.2671 86.9444 49.6532 91.3747C57.0394 95.8049 62.9772 99.4393 62.9333 99.5145Z" fill="#DEDEDE"/>
<path d="M59.7728 104.051C59.7289 104.127 52.9698 100.154 44.6744 95.172C36.379 90.1903 29.6951 86.0985 29.739 86.0233C29.7829 85.9481 36.5483 89.9209 44.8374 94.8963C53.1265 99.8717 59.8167 103.976 59.7728 104.051Z" fill="#DEDEDE"/>
<path d="M55.8039 109.66C55.76 109.735 50.5182 106.527 44.1038 102.529C37.6895 98.5308 32.548 95.2034 32.6045 95.1282C32.6609 95.0531 37.8902 98.2614 44.3045 102.259C50.7188 106.257 55.8791 109.585 55.8039 109.66Z" fill="#DEDEDE"/>
<path d="M51.1955 115.08C51.1453 115.155 46.2672 112.01 40.298 108.056C34.3289 104.101 29.5323 100.837 29.5824 100.762C29.6326 100.686 34.4856 103.832 40.4799 107.78C46.4741 111.728 51.2457 115.005 51.1955 115.08Z" fill="#DEDEDE"/>
<path d="M45.2765 118.84C45.0133 118.749 44.7593 118.633 44.5178 118.495C44.0475 118.251 43.3829 117.868 42.5678 117.43C40.9313 116.509 38.7054 115.186 36.2977 113.67C33.8899 112.154 31.7581 110.65 30.2407 109.553C29.482 109.002 28.8738 108.55 28.46 108.225C28.2334 108.071 28.0233 107.895 27.833 107.698C28.0788 107.816 28.3119 107.959 28.529 108.124L30.3661 109.378C31.9211 110.43 34.0655 111.884 36.4732 113.413C38.8809 114.942 41.0818 116.302 42.6869 117.273L44.5679 118.42C44.8192 118.533 45.0569 118.673 45.2765 118.84Z" fill="#DEDEDE"/>
<path d="M31.4135 93.2357C30.2438 92.9355 29.1374 92.4283 28.1468 91.7381C27.1008 91.1343 26.1726 90.3468 25.4067 89.4133C25.4757 89.3444 26.6608 90.4222 28.3223 91.4686C29.9839 92.5151 31.4511 93.148 31.4135 93.2357Z" fill="#DEDEDE"/>
<path d="M67.2345 88.4233C67.1754 88.5452 67.104 88.6607 67.0213 88.768L66.3943 89.7267C65.8237 90.5539 64.971 91.7382 63.8862 93.192C61.7607 96.0995 58.7698 100.085 55.3463 104.377C51.9228 108.67 48.7314 112.523 46.3738 115.224C45.2013 116.59 44.2357 117.681 43.5585 118.426C43.2387 118.783 42.9754 119.053 42.7748 119.285C42.6904 119.39 42.5936 119.485 42.4863 119.567C42.5571 119.45 42.639 119.341 42.7309 119.241L43.4645 118.345L46.2045 115.08C48.5119 112.317 51.6783 108.482 55.0955 104.183C58.5127 99.8843 61.5349 95.9303 63.7044 93.0541L66.2689 89.6515C66.5636 89.2756 66.7956 88.9685 66.9774 88.7304C67.0508 88.6184 67.1371 88.5153 67.2345 88.4233Z" fill="#DEDEDE"/>
<path d="M62.4441 85.0081C62.513 85.0645 56.6379 92.7219 49.327 102.109C42.016 111.496 36.0281 119.072 35.9591 119.028C35.8901 118.984 41.759 111.314 49.0762 101.921C56.3934 92.5276 62.3688 84.9517 62.4441 85.0081Z" fill="#DEDEDE"/>
<path d="M55.7537 81.2234C55.706 81.3557 55.6428 81.4819 55.5656 81.5994C55.4088 81.8751 55.2145 82.226 54.9386 82.6584C54.4056 83.5732 53.6156 84.8829 52.581 86.4683C50.5307 89.6453 47.4772 93.9 43.8781 98.4118C40.2791 102.923 36.912 106.89 34.4855 109.766L31.5636 113.156L30.7234 114.046C30.6352 114.158 30.5366 114.26 30.4287 114.353C30.5005 114.23 30.5846 114.115 30.6795 114.008L31.4382 113.056L34.2848 109.603C36.6926 106.689 40.0659 102.71 43.6524 98.1924C47.2389 93.6745 50.3238 89.4698 52.4305 86.3241C53.4839 84.7576 54.3116 83.473 54.8696 82.5644C55.1392 82.1383 55.3587 81.7999 55.4966 81.5367C55.5727 81.4247 55.6587 81.3198 55.7537 81.2234Z" fill="#DEDEDE"/>
<path d="M50.2738 78.0839C50.3428 78.134 45.3392 84.7574 39.0942 92.866C32.8492 100.975 27.7328 107.516 27.6638 107.46C27.5948 107.404 32.6046 100.787 38.8748 92.6717C45.1449 84.5569 50.1986 78.0275 50.2738 78.0839Z" fill="#DEDEDE"/>
<path d="M46.1419 75.3958C45.9923 75.7037 45.8183 75.9991 45.6215 76.2793C45.4459 76.5613 45.2202 76.9059 44.938 77.2756C44.6559 77.6453 44.3549 78.1028 43.9787 78.5289C43.1138 79.6157 42.1842 80.6494 41.1948 81.6244C39.975 82.8135 38.6762 83.9189 37.3073 84.933C35.931 85.9349 34.4875 86.8415 32.9872 87.6463C31.7705 88.3005 30.514 88.8782 29.2251 89.3758C28.6734 89.6076 28.1592 89.7643 27.714 89.9147C27.2689 90.0651 26.8801 90.1779 26.5603 90.2656C26.2318 90.368 25.8966 90.4476 25.5571 90.5037C25.8678 90.3564 26.1909 90.2369 26.5227 90.1465C26.8362 90.0463 27.2187 89.9147 27.6576 89.7455C28.0965 89.5763 28.5981 89.4071 29.1374 89.169C30.4225 88.6438 31.6783 88.0498 32.8994 87.3894C34.3775 86.574 35.8035 85.6678 37.1694 84.6761C38.5244 83.6701 39.8164 82.5819 41.038 81.4176C42.0283 80.456 42.968 79.4437 43.8533 78.3848C44.2421 77.9461 44.5556 77.5137 44.844 77.1315C45.1324 76.7493 45.377 76.4422 45.5651 76.1728C45.7412 75.9022 45.9338 75.6427 46.1419 75.3958Z" fill="#DEDEDE"/>
<path d="M61.5726 25.0588H56.5439V30.0844H61.5726V25.0588Z" fill="#DEDEDE"/>
<path d="M82.6152 36.7766H35.7461V66.3408H82.6152V36.7766Z" fill="#EFEEEE"/>
<path d="M35.7397 36.7767C35.7397 36.7767 42.9128 29.2572 60.9017 29.583C78.8907 29.9089 82.6026 36.7767 82.6026 36.7767H35.7397Z" fill="#EFEEEE"/>
<path d="M82.4331 37.2528C82.4331 37.3468 71.893 37.4158 58.9014 37.4158C45.9097 37.4158 35.3696 37.3468 35.3696 37.2528C35.3696 37.1589 45.9034 37.0962 58.9014 37.0962C71.8993 37.0962 82.4331 37.1651 82.4331 37.2528Z" fill="#DEDEDE"/>
<path d="M82.4331 37.2593H92.9857C93.4447 37.2593 93.8849 37.4415 94.2094 37.7658C94.5339 38.0902 94.7163 38.5301 94.7163 38.9888V39.5715C94.7163 40.0302 94.5339 40.4701 94.2094 40.7945C93.8849 41.1188 93.4447 41.301 92.9857 41.301H82.4331V37.2593Z" fill="#DEDEDE"/>
<path d="M35.915 41.301H25.3624C24.9035 41.301 24.4633 41.1188 24.1388 40.7945C23.8142 40.4701 23.6319 40.0302 23.6319 39.5715V38.9888C23.6319 38.5301 23.8142 38.0902 24.1388 37.7658C24.4633 37.4415 24.9035 37.2593 25.3624 37.2593H35.915V41.301Z" fill="#DEDEDE"/>
<path d="M64.2813 23.6113H54.0799C53.3942 23.6113 52.8384 24.1668 52.8384 24.852V25.2656C52.8384 25.9509 53.3942 26.5063 54.0799 26.5063H64.2813C64.967 26.5063 65.5228 25.9509 65.5228 25.2656V24.852C65.5228 24.1668 64.967 23.6113 64.2813 23.6113Z" fill="#DEDEDE"/>
<path d="M287.629 216.148H16.917V288.724H287.629V216.148Z" fill="#EFEEEE"/>
<path d="M289.504 213.134H13.4746V221.963H289.504V213.134Z" fill="#DEDEDE"/>
<path d="M98.8294 233.801H27.626V255.776H98.8294V233.801Z" fill="#E7E7E7"/>
<path d="M63.2278 246.628C64.2424 246.628 65.0649 245.806 65.0649 244.792C65.0649 243.778 64.2424 242.956 63.2278 242.956C62.2131 242.956 61.3906 243.778 61.3906 244.792C61.3906 245.806 62.2131 246.628 63.2278 246.628Z" fill="#DEDEDE"/>
<path d="M98.8294 260.413H27.626V282.389H98.8294V260.413Z" fill="#E7E7E7"/>
<path d="M63.2278 273.234C64.2424 273.234 65.0649 272.412 65.0649 271.398C65.0649 270.384 64.2424 269.562 63.2278 269.562C62.2131 269.562 61.3906 270.384 61.3906 271.398C61.3906 272.412 62.2131 273.234 63.2278 273.234Z" fill="#DEDEDE"/>
<path d="M273.245 233.801H202.042V255.776H273.245V233.801Z" fill="#E7E7E7"/>
<path d="M237.644 246.628C238.658 246.628 239.481 245.806 239.481 244.792C239.481 243.778 238.658 242.956 237.644 242.956C236.629 242.956 235.807 243.778 235.807 244.792C235.807 245.806 236.629 246.628 237.644 246.628Z" fill="#DEDEDE"/>
<path d="M273.245 260.413H202.042V282.389H273.245V260.413Z" fill="#E7E7E7"/>
<path d="M237.644 273.234C238.658 273.234 239.481 272.412 239.481 271.398C239.481 270.384 238.658 269.562 237.644 269.562C236.629 269.562 235.807 270.384 235.807 271.398C235.807 272.412 236.629 273.234 237.644 273.234Z" fill="#DEDEDE"/>
<path d="M101.037 288.875C101.037 288.875 101.037 288.549 101.037 287.903V285.046C101.037 282.539 101.037 278.78 101.037 274.049C101.037 264.493 100.999 250.719 100.968 233.826V233.7H101.093L194.06 233.663H194.229V233.826C194.229 253.32 194.229 271.931 194.229 288.875V289.025H194.079L127.089 288.95L107.846 288.875H102.761H101.457H101.018H101.476H102.83H107.94L127.133 288.831L194.023 288.756L193.872 288.912C193.872 271.993 193.872 253.357 193.872 233.863L194.035 234.026L101.068 233.995L101.2 233.863C101.2 250.726 101.15 264.468 101.131 274.011C101.131 278.78 101.131 282.502 101.099 285.033V287.916C101.049 288.505 101.037 288.875 101.037 288.875Z" fill="#E7E7E7"/>
<path d="M59.1337 186.779C59.1361 188.154 58.7304 189.498 57.9679 190.643C57.2053 191.787 56.1202 192.68 54.8498 193.208C53.5794 193.736 52.1809 193.875 50.8312 193.608C49.4816 193.342 48.2414 192.681 47.2677 191.709C46.2939 190.738 45.6304 189.5 45.3611 188.151C45.0918 186.803 45.2287 185.405 45.7547 184.135C46.2806 182.864 47.1718 181.778 48.3156 181.014C49.4594 180.25 50.8043 179.842 52.1801 179.842C54.0216 179.843 55.7874 180.574 57.0908 181.875C58.3941 183.175 59.1287 184.938 59.1337 186.779Z" fill="#DEDEDE"/>
<path d="M65.7421 193.615C69.5825 193.615 72.6957 190.504 72.6957 186.666C72.6957 182.828 69.5825 179.716 65.7421 179.716C61.9018 179.716 58.7886 182.828 58.7886 186.666C58.7886 190.504 61.9018 193.615 65.7421 193.615Z" fill="#EFEEEE"/>
<path d="M38.6176 193.615C42.458 193.615 45.5712 190.504 45.5712 186.666C45.5712 182.828 42.458 179.716 38.6176 179.716C34.7773 179.716 31.6641 182.828 31.6641 186.666C31.6641 190.504 34.7773 193.615 38.6176 193.615Z" fill="#EFEEEE"/>
<path d="M29.3755 188.157H74.7836C74.7836 188.157 74.3134 206.874 62.1243 209.162L61.9362 213.134H41.4831V209.093C41.4831 209.093 29.3755 205.991 29.3755 188.157Z" fill="#E7E7E7"/>
<path d="M62.1243 209.162C62.1243 209.224 57.4907 209.281 51.7724 209.281C46.054 209.281 41.4204 209.224 41.4204 209.162C41.4204 209.099 46.054 209.042 51.7724 209.042C57.4907 209.042 62.1243 209.099 62.1243 209.162Z" fill="white"/>
<path d="M73.0217 197.801C73.0217 197.801 72.9276 197.801 72.7333 197.838L71.8805 197.914C70.779 198.016 69.6685 197.961 68.5824 197.751C67.794 197.594 67.0414 197.292 66.3628 196.861C65.5463 196.349 64.8936 195.614 64.4818 194.743C64.2646 194.252 64.1576 193.719 64.1683 193.183C64.184 192.601 64.3837 192.039 64.7389 191.578C64.9292 191.339 65.1715 191.146 65.4474 191.015C65.7392 190.888 66.061 190.847 66.3754 190.895C66.6956 190.958 66.9981 191.091 67.2614 191.284C67.5247 191.476 67.7424 191.725 67.899 192.011C68.2099 192.617 68.3007 193.313 68.1561 193.978C68.0202 194.663 67.7564 195.315 67.3786 195.902C66.5745 197.154 65.3868 198.113 63.9927 198.634C62.4909 199.179 60.8426 199.161 59.3528 198.584C58.5797 198.285 57.8663 197.85 57.2461 197.3C56.5824 196.745 56.0837 196.019 55.804 195.2C55.6785 194.771 55.6785 194.314 55.804 193.884C55.8663 193.662 55.972 193.454 56.1151 193.272C56.2582 193.09 56.4359 192.938 56.6379 192.825C57.0628 192.641 57.5354 192.598 57.9867 192.702C58.4379 192.806 58.8442 193.051 59.1459 193.402C59.7343 194.117 60.1024 194.988 60.2056 195.908C60.3456 196.827 60.3158 197.764 60.1178 198.672C59.7351 200.553 58.6949 202.237 57.1834 203.422C56.4064 204.009 55.5195 204.436 54.575 204.675C53.6164 204.915 52.6225 204.981 51.6406 204.869C49.6639 204.676 47.8369 203.732 46.5367 202.231C45.8985 201.498 45.4659 200.61 45.2827 199.656C45.1089 198.701 45.3159 197.716 45.8595 196.911C46.1187 196.506 46.477 196.174 46.9005 195.946C47.324 195.718 47.7988 195.601 48.2798 195.608C48.7516 195.633 49.208 195.784 49.6017 196.045C49.9953 196.306 50.3118 196.668 50.5182 197.093C50.7091 197.523 50.7402 198.008 50.606 198.459C50.473 198.897 50.2264 199.293 49.8912 199.606C49.2372 200.194 48.4461 200.61 47.5901 200.815C46.0171 201.248 44.359 201.267 42.7762 200.872C41.1934 200.477 39.7394 199.68 38.5549 198.559C38.0171 198.027 37.6001 197.386 37.3322 196.679C37.0804 195.988 37.0368 195.239 37.2068 194.524C37.3612 193.828 37.7564 193.209 38.3229 192.775C38.8816 192.375 39.5737 192.207 40.2541 192.305C40.9006 192.389 41.4917 192.714 41.9094 193.214C42.3019 193.692 42.5227 194.288 42.5364 194.906C42.5414 195.487 42.3541 196.053 42.0034 196.516C41.6796 196.946 41.2723 197.306 40.8058 197.575C39.9748 198.04 39.0787 198.378 38.1473 198.578C37.369 198.76 36.5793 198.89 35.7835 198.966C34.6868 199.074 33.5821 199.074 32.4854 198.966C32.1019 198.93 31.7209 198.871 31.3442 198.791L31.6327 198.822C31.827 198.854 32.1155 198.885 32.4854 198.916C33.5801 199.023 34.6825 199.023 35.7772 198.916C36.5651 198.834 37.3465 198.697 38.116 198.509C39.0349 198.308 39.9183 197.97 40.7369 197.506C41.186 197.244 41.5782 196.895 41.8906 196.479C42.2307 196.017 42.4052 195.454 42.3859 194.881C42.374 194.299 42.1664 193.738 41.7965 193.289C41.4049 192.82 40.8487 192.517 40.2415 192.443C39.6065 192.35 38.9605 192.51 38.442 192.888C37.9113 193.3 37.5428 193.886 37.4012 194.542C37.2372 195.222 37.2786 195.935 37.5203 196.592C37.7813 197.273 38.1879 197.888 38.7116 198.396C39.8728 199.487 41.2957 200.261 42.8431 200.643C44.3905 201.025 46.0102 201.002 47.5462 200.577C48.365 200.383 49.1218 199.987 49.747 199.424C50.043 199.133 50.2589 198.77 50.374 198.371C50.492 197.971 50.4631 197.542 50.2925 197.162C50.1027 196.784 49.8168 196.463 49.4635 196.231C49.1102 195.999 48.7019 195.864 48.2798 195.84C47.8404 195.822 47.4051 195.93 47.0258 196.153C46.6446 196.381 46.3191 196.692 46.0727 197.061C45.5624 197.816 45.3688 198.741 45.5335 199.637C45.706 200.55 46.1195 201.4 46.7311 202.1C47.9946 203.55 49.7638 204.464 51.6782 204.656C52.6307 204.764 53.5948 204.7 54.5248 204.468C55.4364 204.222 56.2892 203.796 57.0329 203.215C58.507 202.079 59.531 200.459 59.9234 198.641C60.1153 197.759 60.145 196.851 60.0112 195.959C59.9127 195.085 59.5644 194.258 59.008 193.577C58.7394 193.259 58.3757 193.036 57.9704 192.94C57.5652 192.844 57.1398 192.881 56.757 193.045C56.5795 193.142 56.4237 193.275 56.2987 193.434C56.1737 193.594 56.0822 193.777 56.0297 193.972C55.9138 194.363 55.9138 194.779 56.0297 195.169C56.2951 195.947 56.7677 196.638 57.3966 197.168C57.9962 197.703 58.6862 198.127 59.4343 198.421C60.8781 198.987 62.4788 199.007 63.9363 198.478C65.2918 197.977 66.4474 197.049 67.2281 195.833C67.5994 195.26 67.8589 194.623 67.9931 193.953C68.1351 193.318 68.0508 192.653 67.7548 192.074C67.6139 191.807 67.4153 191.575 67.1734 191.395C66.9315 191.215 66.6524 191.092 66.3566 191.033C66.072 190.989 65.7809 191.026 65.5164 191.14C65.271 191.261 65.0565 191.437 64.8893 191.654C64.5507 192.089 64.3577 192.619 64.3376 193.17C64.3307 193.687 64.4332 194.2 64.6385 194.674C65.0334 195.527 65.6671 196.248 66.4631 196.748C67.1277 197.177 67.865 197.481 68.6389 197.644C69.7156 197.86 70.8168 197.927 71.9119 197.845L72.7709 197.795L73.0217 197.801Z" fill="white"/>
<path d="M236.672 0H188.26V36.9333H236.672V0Z" fill="#EFEEEE"/>
<path d="M131.026 77.2317L188.26 36.9333H236.672L296.369 77.2317V82.8525H131.026V77.2317Z" fill="#EFEEEE"/>
<path d="M296.369 77.2317H131.026V82.8525H296.369V77.2317Z" fill="#E7E7E7"/>
<path d="M198.468 37.2905L173.745 77.2317H214.839L207.547 37.2905V0H198.267L198.468 37.2905Z" fill="white"/>
<path d="M235.982 37.2906C235.982 37.3783 225.147 37.4535 211.779 37.4535C198.411 37.4535 187.57 37.3783 187.57 37.2906C187.57 37.2029 198.411 37.1277 211.779 37.1277C225.147 37.1277 235.982 37.1966 235.982 37.2906Z" fill="#DEDEDE"/>
<path d="M16.9168 131.93H0V148.836H16.9168V131.93Z" fill="white"/>
<path d="M16.9168 150.873H0V167.779H16.9168V150.873Z" fill="white"/>
<path d="M35.9778 131.93H19.061V148.836H35.9778V131.93Z" fill="white"/>
<path d="M35.9778 150.873H19.061V167.779H35.9778V150.873Z" fill="white"/>
<path d="M55.0452 131.93H38.1284V148.836H55.0452V131.93Z" fill="white"/>
<path d="M55.0452 150.873H38.1284V167.779H55.0452V150.873Z" fill="white"/>
<path d="M74.1067 131.93H57.1899V148.836H74.1067V131.93Z" fill="white"/>
<path d="M74.1067 150.873H57.1899V167.779H74.1067V150.873Z" fill="white"/>
<path d="M92.8792 131.93H75.9624V148.836H92.8792V131.93Z" fill="white"/>
<path d="M92.8792 150.873H75.9624V167.779H92.8792V150.873Z" fill="white"/>
<path d="M111.947 131.93H95.0298V148.836H111.947V131.93Z" fill="white"/>
<path d="M111.947 150.873H95.0298V167.779H111.947V150.873Z" fill="white"/>
<path d="M131.008 131.93H114.091V148.836H131.008V131.93Z" fill="white"/>
<path d="M131.008 150.873H114.091V167.779H131.008V150.873Z" fill="white"/>
<path d="M150.075 131.93H133.158V148.836H150.075V131.93Z" fill="white"/>
<path d="M150.075 150.873H133.158V167.779H150.075V150.873Z" fill="white"/>
<path d="M168.842 131.93H151.925V148.836H168.842V131.93Z" fill="white"/>
<path d="M168.842 150.873H151.925V167.779H168.842V150.873Z" fill="white"/>
<path d="M187.909 131.93H170.992V148.836H187.909V131.93Z" fill="white"/>
<path d="M187.909 150.873H170.992V167.779H187.909V150.873Z" fill="white"/>
<path d="M206.97 131.93H190.053V148.836H206.97V131.93Z" fill="white"/>
<path d="M206.97 150.873H190.053V167.779H206.97V150.873Z" fill="white"/>
<path d="M226.037 131.93H209.121V148.836H226.037V131.93Z" fill="white"/>
<path d="M226.037 150.873H209.121V167.779H226.037V150.873Z" fill="white"/>
<path d="M244.81 131.93H227.894V148.836H244.81V131.93Z" fill="white"/>
<path d="M244.81 150.873H227.894V167.779H244.81V150.873Z" fill="white"/>
<path d="M263.871 131.93H246.955V148.836H263.871V131.93Z" fill="white"/>
<path d="M263.871 150.873H246.955V167.779H263.871V150.873Z" fill="white"/>
<path d="M282.932 131.93H266.016V148.836H282.932V131.93Z" fill="white"/>
<path d="M282.932 150.873H266.016V167.779H282.932V150.873Z" fill="white"/>
<path d="M302 131.93H285.083V148.836H302V131.93Z" fill="white"/>
<path d="M302 150.873H285.083V167.779H302V150.873Z" fill="white"/>
<path d="M288.858 288.724C288.858 288.812 227.48 288.887 151.781 288.887C76.0817 288.887 14.6973 288.812 14.6973 288.724C14.6973 288.636 76.0629 288.561 151.781 288.561C227.499 288.561 288.858 288.63 288.858 288.724Z" fill="#3D3D3D"/>
<path d="M165.983 82.3638L171.852 82.3325C174.746 86.0168 178.915 88.4859 183.538 89.2541C188.162 90.0224 192.906 89.0344 196.838 86.4843C200.769 83.9341 203.604 80.0065 204.785 75.4733C205.965 70.9402 205.407 66.1297 203.218 61.9874C201.03 57.8452 197.37 54.6709 192.959 53.0886C188.547 51.5063 183.703 51.6306 179.378 53.4369C175.054 55.2432 171.562 58.6009 169.589 62.8499C167.616 67.0989 167.305 71.9317 168.717 76.3983L165.983 82.3638Z" fill="white"/>
<path d="M165.983 82.3639C165.983 82.3639 166.052 82.226 166.171 81.9691L166.704 80.8286L168.76 76.4109H168.666C168.678 76.4196 168.692 76.4242 168.707 76.4242C168.722 76.4242 168.736 76.4196 168.748 76.4109C168.755 76.4007 168.758 76.3887 168.758 76.3764C168.758 76.3642 168.755 76.3522 168.748 76.342C167.814 73.3636 167.642 70.199 168.246 67.1368C168.433 66.1927 168.693 65.2646 169.024 64.3609C169.391 63.3982 169.829 62.464 170.334 61.5661C172.677 57.4154 176.531 54.3271 181.094 52.9438C183.649 52.1783 186.337 51.9647 188.981 52.3171C193.381 52.9057 197.425 55.0481 200.381 58.3569C203.338 61.6657 205.012 65.9225 205.102 70.3577C205.152 73.2465 204.538 76.1082 203.309 78.7232C202.143 81.1783 200.447 83.3442 198.343 85.0646C196.4 86.6589 194.157 87.8479 191.747 88.5612C189.562 89.2043 187.277 89.4401 185.006 89.2567L184.21 89.1816C183.948 89.1633 183.688 89.1256 183.432 89.0688L181.928 88.768C180.994 88.506 180.075 88.1943 179.175 87.8343C176.318 86.6193 173.809 84.7111 171.877 82.2824C171.87 82.2791 171.862 82.2773 171.855 82.2773C171.847 82.2773 171.84 82.2791 171.833 82.2824L167.488 82.3388H166.353H165.964H171.833H171.789C173.719 84.8015 176.237 86.7406 179.112 87.9784C180.018 88.3467 180.943 88.6646 181.884 88.9309L183.401 89.2379C183.659 89.2964 183.921 89.3362 184.185 89.357L184.987 89.4385C189.866 89.8448 194.711 88.3341 198.493 85.2275C200.624 83.4905 202.339 81.2978 203.509 78.8109C204.761 76.1643 205.387 73.2658 205.34 70.3389C205.282 67.2655 204.47 64.2533 202.976 61.5661C202.802 61.2276 202.605 60.901 202.387 60.5886L201.76 59.6424L201.051 58.7588C200.831 58.4551 200.585 58.1701 200.318 57.9066L199.54 57.1046C199.283 56.8288 198.976 56.6158 198.7 56.3651C198.424 56.1145 198.148 55.8764 197.847 55.6633L196.938 55.0367C194.555 53.4345 191.83 52.409 188.981 52.0414C185.259 51.5441 181.472 52.1739 178.111 53.8495C174.75 55.5251 171.969 58.1694 170.127 61.4408C169.619 62.3492 169.179 63.2938 168.811 64.2669C168.479 65.1828 168.221 66.1236 168.039 67.0804C167.452 70.2059 167.668 73.4291 168.666 76.4485L168.773 76.3984C168.761 76.3897 168.747 76.3851 168.732 76.3851C168.717 76.3851 168.703 76.3897 168.691 76.3984C167.814 78.3534 167.143 79.8574 166.685 80.885L166.183 82.0192C166.033 82.2385 165.983 82.3639 165.983 82.3639Z" fill="#3D3D3D"/>
<path d="M177.018 71.5547L179.633 68.6659L185.182 73.115L193.421 63.6592L196.111 66.2785L185.056 78.4413L177.018 71.5547Z" fill="#FC8019"/>
<path d="M147.442 80.415L100.172 83.2349C97.2248 93.7246 96.7985 103.845 100.021 114.24C100.937 117.204 102.291 120.337 105.414 122.061C108.204 123.602 111.822 123.696 115.22 123.659C131.653 123.488 148.02 121.568 164.045 117.931C160.91 116.195 159.117 113.012 159.531 109.948C160.885 112.949 164.729 114.999 168.692 115.124C170.599 115.179 172.497 114.844 174.27 114.14C176.042 113.435 177.652 112.375 179 111.026C165.531 104.916 147.762 92.91 147.442 80.415Z" fill="#3D3D3D"/>
<path d="M178.699 100.26C178.561 100.274 178.422 100.274 178.285 100.26C178.015 100.26 177.62 100.26 177.112 100.223C176.09 100.172 174.604 100.06 172.798 99.8152C168.046 99.2107 163.448 97.723 159.242 95.4288C156.946 94.1268 154.846 92.5066 153.004 90.6164C151.501 89.0763 150.213 87.3418 149.173 85.4592C148.468 84.1917 147.905 82.8511 147.492 81.4613C147.335 80.9726 147.273 80.5778 147.204 80.3209C147.165 80.1883 147.142 80.0516 147.135 79.9136C147.166 79.9136 147.298 80.4587 147.618 81.4237C148.072 82.7861 148.66 84.1001 149.373 85.3464C150.429 87.1953 151.724 88.8975 153.223 90.4096C155.057 92.2601 157.135 93.8518 159.399 95.1406C163.576 97.4042 168.124 98.9004 172.83 99.5583C174.629 99.834 176.103 99.9844 177.118 100.066L178.291 100.166C178.43 100.182 178.567 100.213 178.699 100.26Z" fill="#3D3D3D"/>
<path d="M186.9 191.66C186.724 191.71 172.955 187.336 172.955 187.336L168.628 190.751L180.435 195.877C180.435 195.877 185.646 196.466 188.141 197.939C190.637 199.411 186.9 191.66 186.9 191.66Z" fill="#3D3D3D"/>
<path d="M184.78 192.512C184.78 192.512 184.78 192.65 184.874 192.894C185.269 194.329 187.232 199.455 195.383 202.413C204.926 205.872 225.73 206.837 229.185 206.298C235.863 205.245 242.102 200.032 241.845 198.735" fill="#3D3D3D"/>
<path d="M241.845 198.734C241.613 200.852 228.678 201.178 212.896 199.461C197.114 197.744 184.549 194.63 184.781 192.512C185.012 190.394 197.948 190.062 213.73 191.779C229.511 193.496 242.077 196.61 241.845 198.734Z" fill="#455A64"/>
<path d="M221.831 197.256C222.884 196.203 224.339 195.576 223.593 194.354C223.379 194.768 222.339 194.755 221.969 195.075C221.599 195.394 220.589 195.018 220.088 194.887C219.807 194.801 219.564 194.622 219.399 194.379C219.233 194.136 219.156 193.845 219.179 193.552C219.268 192.987 219.501 192.454 219.856 192.004C220.516 191.019 221.206 190.056 221.925 189.116C222.222 188.803 222.438 188.422 222.552 188.007C222.587 187.791 222.543 187.57 222.428 187.384C222.313 187.199 222.134 187.062 221.925 186.998C221.509 186.941 221.087 187.046 220.746 187.292C219.179 188.176 217.655 189.297 217.078 190.845C216.721 191.823 216.771 192.894 216.332 193.84C215.893 194.787 214.645 195.614 213.592 195.15C213.301 194.994 213.049 194.774 212.854 194.508C212.66 194.241 212.528 193.933 212.469 193.609C212.372 192.972 212.137 192.365 211.78 191.829C211.561 191.555 211.252 191.367 210.909 191.297C210.565 191.227 210.207 191.28 209.899 191.447C208.971 192.155 210.162 193.696 209.36 194.511C209.162 194.678 208.926 194.791 208.672 194.841C208.419 194.89 208.157 194.874 207.911 194.793C207.43 194.634 206.988 194.376 206.613 194.035C204.043 191.984 202.125 189.23 201.096 186.108C200.999 185.71 200.834 185.333 200.606 184.992C200.474 184.814 200.299 184.671 200.098 184.577C199.897 184.483 199.675 184.44 199.453 184.454C199.128 184.532 198.842 184.726 198.65 184.999C198.457 185.273 198.37 185.606 198.406 185.939C198.406 187.737 199.722 189.304 200.989 190.726L205.347 195.645L207.328 197.932L215.849 199.812L221.611 198.622L221.831 197.256Z" fill="#FC8019"/>
<g opacity="0.6">
<path d="M221.831 197.256C222.884 196.203 224.339 195.576 223.593 194.354C223.379 194.768 222.339 194.755 221.969 195.075C221.599 195.394 220.589 195.018 220.088 194.887C219.807 194.801 219.564 194.622 219.399 194.379C219.233 194.136 219.156 193.845 219.179 193.552C219.268 192.987 219.501 192.454 219.856 192.004C220.516 191.019 221.206 190.056 221.925 189.116C222.222 188.803 222.438 188.422 222.552 188.007C222.587 187.791 222.543 187.57 222.428 187.384C222.313 187.199 222.134 187.062 221.925 186.998C221.509 186.941 221.087 187.046 220.746 187.292C219.179 188.176 217.655 189.297 217.078 190.845C216.721 191.823 216.771 192.894 216.332 193.84C215.893 194.787 214.645 195.614 213.592 195.15C213.301 194.994 213.049 194.774 212.854 194.508C212.66 194.241 212.528 193.933 212.469 193.609C212.372 192.972 212.137 192.365 211.78 191.829C211.561 191.555 211.252 191.367 210.909 191.297C210.565 191.227 210.207 191.28 209.899 191.447C208.971 192.155 210.162 193.696 209.36 194.511C209.162 194.678 208.926 194.791 208.672 194.841C208.419 194.89 208.157 194.874 207.911 194.793C207.43 194.634 206.988 194.376 206.613 194.035C204.043 191.984 202.125 189.23 201.096 186.108C200.999 185.71 200.834 185.333 200.606 184.992C200.474 184.814 200.299 184.671 200.098 184.577C199.897 184.483 199.675 184.44 199.453 184.454C199.128 184.532 198.842 184.726 198.65 184.999C198.457 185.273 198.37 185.606 198.406 185.939C198.406 187.737 199.722 189.304 200.989 190.726L205.347 195.645L207.328 197.932L215.849 199.812L221.611 198.622L221.831 197.256Z" fill="white"/>
</g>
<path d="M224.251 200.583C224.387 199.978 224.697 199.427 225.142 198.996C225.588 198.565 226.15 198.274 226.759 198.158C227.201 198.109 227.634 198.006 228.051 197.851C228.439 197.657 228.678 197.224 228.458 196.873C228.239 196.522 227.674 196.579 227.236 196.641L224.251 197.068L226.659 194.655C226.972 194.342 227.286 193.903 227.079 193.533C226.872 193.164 226.276 193.164 225.825 193.245C224.294 193.499 222.899 194.274 221.875 195.438C221.028 196.441 220.552 197.694 219.473 198.509C218.956 198.882 218.364 199.138 217.739 199.259C217.113 199.38 216.468 199.364 215.849 199.211C215.255 199.078 214.703 198.803 214.239 198.41C213.775 198.018 213.413 197.518 213.184 196.955C213.084 196.474 212.881 196.021 212.589 195.626C211.905 194.943 210.507 195.238 209.911 195.977C209.398 196.747 209.209 197.688 209.385 198.597C206.651 195.037 203.591 191.309 199.02 189.742C198.224 189.426 197.364 189.306 196.512 189.391C196.106 189.424 195.718 189.576 195.398 189.828C195.078 190.08 194.84 190.421 194.712 190.808C194.549 191.672 195.339 192.462 196.13 192.969C197.691 193.941 199.603 194.361 201.29 195.15C202.976 195.94 204.807 197.118 204.701 198.785C204.701 198.785 212.927 200.038 217.003 200.138C221.078 200.238 224.251 200.583 224.251 200.583Z" fill="#FC8019"/>
<g opacity="0.8">
<path d="M224.251 200.583C224.387 199.978 224.697 199.427 225.142 198.996C225.588 198.565 226.15 198.274 226.759 198.158C227.201 198.109 227.634 198.006 228.051 197.851C228.439 197.657 228.678 197.224 228.458 196.873C228.239 196.522 227.674 196.579 227.236 196.641L224.251 197.068L226.659 194.655C226.972 194.342 227.286 193.903 227.079 193.533C226.872 193.164 226.276 193.164 225.825 193.245C224.294 193.499 222.899 194.274 221.875 195.438C221.028 196.441 220.552 197.694 219.473 198.509C218.956 198.882 218.364 199.138 217.739 199.259C217.113 199.38 216.468 199.364 215.849 199.211C215.255 199.078 214.703 198.803 214.239 198.41C213.775 198.018 213.413 197.518 213.184 196.955C213.084 196.474 212.881 196.021 212.589 195.626C211.905 194.943 210.507 195.238 209.911 195.977C209.398 196.747 209.209 197.688 209.385 198.597C206.651 195.037 203.591 191.309 199.02 189.742C198.224 189.426 197.364 189.306 196.512 189.391C196.106 189.424 195.718 189.576 195.398 189.828C195.078 190.08 194.84 190.421 194.712 190.808C194.549 191.672 195.339 192.462 196.13 192.969C197.691 193.941 199.603 194.361 201.29 195.15C202.976 195.94 204.807 197.118 204.701 198.785C204.701 198.785 212.927 200.038 217.003 200.138C221.078 200.238 224.251 200.583 224.251 200.583Z" fill="white"/>
</g>
<path d="M194.104 205.734C193.7 205.744 193.297 205.676 192.919 205.533C191.985 205.259 191.102 204.836 190.304 204.28C189.501 203.725 188.796 203.041 188.216 202.256C187.951 201.952 187.749 201.598 187.621 201.216C188.458 202.263 189.42 203.204 190.486 204.017C191.619 204.732 192.833 205.308 194.104 205.734Z" fill="#3D3D3D"/>
<path d="M192.549 207.213C192.145 207.223 191.742 207.155 191.364 207.012C189.481 206.451 187.83 205.297 186.655 203.722C186.393 203.416 186.191 203.063 186.06 202.682C186.902 203.727 187.866 204.667 188.931 205.483C190.063 206.204 191.278 206.785 192.549 207.213Z" fill="#3D3D3D"/>
<path d="M247.67 200.978C247.643 201.149 247.587 201.314 247.507 201.467C247.327 201.899 247.118 202.317 246.88 202.72C246.128 204.058 245.186 205.28 244.083 206.348C242.982 207.417 241.729 208.319 240.365 209.024C239.96 209.242 239.541 209.432 239.111 209.594C238.957 209.667 238.792 209.716 238.622 209.738C238.622 209.682 239.249 209.4 240.271 208.823C242.899 207.317 245.108 205.178 246.698 202.601C247.325 201.611 247.632 200.959 247.67 200.978Z" fill="#3D3D3D"/>
<path d="M250.692 202.269C250.621 202.662 250.48 203.04 250.278 203.384C249.407 205.101 248.112 206.568 246.516 207.645C246.2 207.887 245.846 208.073 245.469 208.197C246.514 207.381 247.501 206.493 248.422 205.54C249.259 204.507 250.018 203.414 250.692 202.269Z" fill="#3D3D3D"/>
<path d="M235.594 160.987L241.419 159.37C241.419 159.37 246.222 160.097 247.463 159.176C248.705 158.255 248.09 157.722 248.09 157.722C250.711 156.732 249.777 155.573 249.777 155.573C249.777 155.573 252.379 155.372 252.429 153.323C252.429 152.126 242.497 150.146 242.497 150.146C242.539 149.753 242.658 149.372 242.849 149.026C243.039 148.679 243.297 148.374 243.607 148.128C244.623 147.401 250.504 148.811 252.291 148.266C252.791 148.125 253.228 147.819 253.532 147.398C253.836 146.978 253.989 146.466 253.965 145.948C253.965 145.948 241.651 143.441 239.055 144.525C236.459 145.609 224.007 150.791 222.125 153.298L226.264 161.933C227.023 162.202 227.795 162.432 228.577 162.622C230.659 163.186 235.594 160.987 235.594 160.987Z" fill="#FFBF9D"/>
<path d="M228.903 158.85C228.903 158.806 229.386 158.812 230.226 158.699C231.415 158.534 232.567 158.165 233.631 157.609C234.359 157.226 235.038 156.755 235.65 156.205C235.987 155.899 236.304 155.57 236.597 155.222C236.905 154.819 237.238 154.436 237.594 154.075C237.798 153.866 238.042 153.699 238.311 153.584C238.58 153.469 238.869 153.408 239.161 153.404C239.723 153.431 240.281 153.508 240.829 153.636C241.933 153.868 243.011 154.263 244.115 154.075C244.821 153.994 245.487 153.703 246.027 153.241C246.541 152.822 246.855 152.114 246.591 151.675L246.748 151.794C243.829 151.128 240.879 150.612 237.907 150.246L235.311 149.864C234.995 149.839 234.683 149.773 234.383 149.67C234.7 149.629 235.02 149.629 235.336 149.67C235.963 149.714 236.835 149.789 237.945 149.895C240.948 150.159 243.93 150.617 246.873 151.268H246.98L247.036 151.355C247.14 151.546 247.199 151.758 247.208 151.975C247.218 152.192 247.179 152.409 247.093 152.609C246.939 152.989 246.696 153.326 246.384 153.592C245.763 154.126 244.997 154.462 244.184 154.557C243.577 154.627 242.964 154.601 242.365 154.482L240.716 154.106C240.207 153.977 239.686 153.899 239.161 153.874C238.927 153.869 238.695 153.912 238.479 154.002C238.263 154.091 238.068 154.225 237.907 154.394C237.561 154.735 237.236 155.097 236.935 155.478C236.624 155.841 236.284 156.178 235.92 156.487C234.324 157.865 232.329 158.695 230.226 158.856C229.788 158.932 229.34 158.93 228.903 158.85Z" fill="#FF9A6C"/>
<path d="M240.81 154.037C240.948 154.081 240.666 155.247 240.033 156.544C239.4 157.841 238.666 158.812 238.547 158.737C238.428 158.662 238.929 157.603 239.544 156.312C240.158 155.021 240.666 153.987 240.81 154.037Z" fill="#FF9A6C"/>
<path d="M247.569 157.484C247.569 157.628 245.927 157.44 243.939 157.221C241.951 157.001 240.34 156.826 240.346 156.675C240.352 156.525 241.995 156.456 244.002 156.675C246.008 156.895 247.594 157.34 247.569 157.484Z" fill="#FF9A6C"/>
<path d="M250.56 155.679C250.56 155.829 248.478 155.679 245.958 155.297C243.437 154.915 241.412 154.532 241.431 154.382C241.45 154.232 243.512 154.382 246.033 154.764C248.554 155.146 250.579 155.535 250.56 155.679Z" fill="#FF9A6C"/>
<path d="M242.302 147.32C242.447 147.32 242.559 148.072 242.447 148.987C242.334 149.902 242.052 150.603 241.907 150.566C241.763 150.528 241.807 149.801 241.907 148.918C242.008 148.034 242.146 147.314 242.302 147.32Z" fill="#FF9A6C"/>
<path d="M173.105 150.133L190.16 159.163L223.454 152.702L228.182 162.49C228.182 162.49 197.753 175.812 189.257 175.957C180.761 176.101 165.318 166.093 165.318 166.093L173.105 150.133Z" fill="#FFBF9D"/>
<path d="M214.231 159.627C214.231 159.627 210.187 158.844 209.459 161.864C208.732 164.884 212.35 165.624 212.35 165.624C212.35 165.624 211.685 167.71 215.178 168.801C218.67 169.891 219.36 166.1 219.36 166.1C219.36 166.1 222.645 167.178 222.89 165.06C223.26 161.927 220.708 161.67 220.708 161.67C220.708 161.67 223.216 158.599 219.109 157.383C215.002 156.168 214.231 159.627 214.231 159.627ZM218.62 158.731C220.996 159.232 219.435 162.196 219.435 162.196C219.435 162.196 222.125 162.823 221.592 164.395C221.059 165.968 218.413 164.947 218.413 164.947C218.413 164.947 219.385 167.654 216.125 167.685C212.864 167.717 214.212 164.916 214.212 164.916C214.212 164.916 211.566 165.16 211.008 162.647C210.45 160.134 215.015 160.88 215.015 160.88C215.134 158.75 216.219 158.229 218.601 158.731H218.62Z" fill="#FC8019"/>
<g opacity="0.3">
<path d="M214.231 159.627C214.231 159.627 210.187 158.844 209.459 161.864C208.732 164.884 212.35 165.624 212.35 165.624C212.35 165.624 211.685 167.71 215.178 168.801C218.67 169.891 219.36 166.1 219.36 166.1C219.36 166.1 222.645 167.178 222.89 165.06C223.26 161.927 220.708 161.67 220.708 161.67C220.708 161.67 223.216 158.599 219.109 157.383C215.002 156.168 214.231 159.627 214.231 159.627ZM218.62 158.731C220.996 159.232 219.435 162.196 219.435 162.196C219.435 162.196 222.125 162.823 221.592 164.395C221.059 165.968 218.413 164.947 218.413 164.947C218.413 164.947 219.385 167.654 216.125 167.685C212.864 167.717 214.212 164.916 214.212 164.916C214.212 164.916 211.566 165.16 211.008 162.647C210.45 160.134 215.015 160.88 215.015 160.88C215.134 158.75 216.219 158.229 218.601 158.731H218.62Z" fill="black"/>
</g>
<path d="M214.294 158.843C214.294 158.843 210.249 158.06 209.516 161.074C208.782 164.088 212.413 164.834 212.413 164.834C212.413 164.834 211.742 166.921 215.24 168.011C218.739 169.101 219.423 165.31 219.423 165.31C219.423 165.31 222.708 166.388 222.953 164.27C223.329 161.137 220.771 160.88 220.771 160.88C220.771 160.88 223.279 157.816 219.172 156.594C215.065 155.372 214.294 158.843 214.294 158.843ZM218.683 157.947C221.065 158.455 219.498 161.419 219.498 161.419C219.498 161.419 222.188 162.046 221.661 163.612C221.134 165.179 218.476 164.164 218.476 164.164C218.476 164.164 219.448 166.871 216.194 166.902C212.939 166.933 214.281 164.126 214.281 164.126C214.281 164.126 211.635 164.377 211.071 161.864C210.507 159.351 215.084 160.097 215.084 160.097C215.203 157.966 216.306 157.446 218.683 157.947Z" fill="#FC8019"/>
<path d="M216.137 130.827C216.137 130.827 212.068 131.454 212.407 134.555C212.745 137.657 216.42 137.125 216.42 137.125C216.42 137.125 216.507 139.312 220.182 139.149C223.856 138.986 223.185 135.182 223.185 135.182C223.185 135.182 226.646 135.076 226.157 133.001C225.43 129.925 222.947 130.558 222.947 130.558C222.947 130.558 224.264 126.798 219.981 127.074C215.699 127.349 216.137 130.827 216.137 130.827ZM219.937 128.496C222.345 128.158 221.881 131.479 221.881 131.479C221.881 131.479 224.621 131.134 224.665 132.807C224.709 134.48 221.862 134.411 221.862 134.411C221.862 134.411 223.699 136.623 220.646 137.764C217.592 138.904 217.906 135.809 217.906 135.809C217.906 135.809 215.504 136.943 214.144 134.775C212.783 132.607 217.279 131.748 217.279 131.748C216.683 129.712 217.523 128.834 219.937 128.496Z" fill="#FC8019"/>
<g opacity="0.3">
<path d="M216.137 130.827C216.137 130.827 212.068 131.454 212.407 134.555C212.745 137.657 216.42 137.125 216.42 137.125C216.42 137.125 216.507 139.312 220.182 139.149C223.856 138.986 223.185 135.182 223.185 135.182C223.185 135.182 226.646 135.076 226.157 133.001C225.43 129.925 222.947 130.558 222.947 130.558C222.947 130.558 224.264 126.798 219.981 127.074C215.699 127.349 216.137 130.827 216.137 130.827ZM219.937 128.496C222.345 128.158 221.881 131.479 221.881 131.479C221.881 131.479 224.621 131.134 224.665 132.807C224.709 134.48 221.862 134.411 221.862 134.411C221.862 134.411 223.699 136.623 220.646 137.764C217.592 138.904 217.906 135.809 217.906 135.809C217.906 135.809 215.504 136.943 214.144 134.775C212.783 132.607 217.279 131.748 217.279 131.748C216.683 129.712 217.523 128.834 219.937 128.496Z" fill="black"/>
</g>
<path d="M215.924 130.075C215.924 130.075 211.855 130.702 212.199 133.797C212.544 136.893 216.206 136.366 216.206 136.366C216.206 136.366 216.294 138.553 219.968 138.39C223.642 138.228 222.978 134.43 222.978 134.43C222.978 134.43 226.439 134.317 225.95 132.243C225.222 129.166 222.74 129.806 222.74 129.806C222.74 129.806 224.056 126.046 219.774 126.315C215.491 126.585 215.924 130.075 215.924 130.075ZM219.724 127.738C222.138 127.406 221.674 130.727 221.674 130.727C221.674 130.727 224.407 130.382 224.451 132.049C224.495 133.716 221.649 133.653 221.649 133.653C221.649 133.653 223.486 135.865 220.438 137.012C217.391 138.159 217.692 135.051 217.692 135.051C217.692 135.051 215.291 136.185 213.93 134.017C212.569 131.848 217.071 130.965 217.071 130.965C216.444 128.922 217.316 128.057 219.724 127.713V127.738Z" fill="#FC8019"/>
<path d="M209.773 145.697C209.773 145.697 207.202 145.81 207.046 147.671C206.889 149.532 207.616 152.577 212.062 153.242C216.507 153.906 217.078 148.36 217.078 148.36C217.078 148.36 215.786 145.446 209.773 145.697Z" fill="#DEDEDE"/>
<g opacity="0.21">
<path d="M212.3 150.716C213.159 150.792 214.024 150.676 214.832 150.376C215.64 150.076 216.371 149.599 216.971 148.98C217.053 148.598 217.078 148.354 217.078 148.354C217.078 148.354 215.786 145.44 209.773 145.691C209.773 145.691 207.202 145.803 207.045 147.664C207.055 147.792 207.055 147.919 207.045 148.047C208.379 149.59 210.266 150.549 212.3 150.716Z" fill="#3D3D3D"/>
</g>
<path d="M210.262 144.487L209.529 147.702C209.923 148.143 210.407 148.496 210.947 148.738C211.487 148.979 212.072 149.105 212.664 149.106C214.545 149.005 214.545 148.304 214.545 148.304L215.31 145.014C214.287 144.298 213.093 143.865 211.849 143.76C210.049 143.704 210.262 144.487 210.262 144.487Z" fill="#DEDEDE"/>
<path d="M196.361 167.366C196.361 167.366 194.737 169.352 196.023 170.706C197.308 172.059 200.061 173.557 203.547 170.706C207.033 167.854 203.233 163.725 203.233 163.725C203.233 163.725 200.186 162.716 196.361 167.366Z" fill="#DEDEDE"/>
<g opacity="0.21">
<path d="M201.791 168.826C202.421 168.236 202.911 167.515 203.226 166.713C203.542 165.911 203.675 165.048 203.616 164.189C203.378 163.875 203.221 163.694 203.221 163.694C203.221 163.694 200.186 162.716 196.361 167.366C196.361 167.366 194.737 169.352 196.023 170.706C196.119 170.791 196.209 170.883 196.292 170.981C198.337 171.01 200.311 170.236 201.791 168.826Z" fill="#3D3D3D"/>
</g>
<path d="M195.785 166.187L197.697 168.882C198.289 168.879 198.874 168.752 199.414 168.509C199.954 168.267 200.437 167.913 200.832 167.472C201.998 166.018 201.459 165.555 201.459 165.555L199.515 162.785C198.298 163.07 197.178 163.671 196.268 164.527C195.051 165.843 195.785 166.187 195.785 166.187Z" fill="#DEDEDE"/>
<path d="M225.216 167.228C225.216 167.228 226.959 168.45 228 167.309C229.041 166.169 230.113 163.806 227.517 161.112C224.922 158.417 221.768 161.789 221.768 161.789C221.768 161.789 221.147 164.351 225.216 167.228Z" fill="#DEDEDE"/>
<g opacity="0.21">
<path d="M226.094 162.66C225.573 162.169 224.947 161.802 224.265 161.585C223.582 161.369 222.86 161.307 222.151 161.406C221.912 161.613 221.768 161.764 221.768 161.764C221.768 161.764 221.141 164.326 225.217 167.203C225.217 167.203 226.96 168.425 228.001 167.284C228.074 167.204 228.143 167.121 228.208 167.034C228.101 165.356 227.342 163.787 226.094 162.66Z" fill="#3D3D3D"/>
</g>
<path d="M224.276 167.792L226.389 166.056C226.353 165.566 226.213 165.09 225.98 164.658C225.746 164.226 225.424 163.848 225.035 163.549C223.781 162.678 223.411 163.136 223.411 163.136L221.235 164.909C221.541 165.897 222.103 166.785 222.865 167.485C224.038 168.406 224.276 167.792 224.276 167.792Z" fill="#DEDEDE"/>
<path d="M215.065 188.752C215.065 188.752 210.638 190.519 207.673 184.905C204.707 179.29 205.165 174.039 209.178 172.842C213.19 171.645 214.513 173.663 215.341 175.111C216.169 176.558 218.131 179.817 218.476 182.749C218.67 184.404 217.749 187.925 215.065 188.752Z" fill="#AE7461"/>
<path opacity="0.3" d="M214.996 187.129C215.857 186.744 216.566 186.082 217.009 185.249V185.287V185.237L217.078 185.13C217.12 185.056 217.155 184.979 217.184 184.899L217.222 184.836L217.191 184.892C217.444 184.153 217.508 183.363 217.379 182.593C217.33 182.132 217.216 181.68 217.04 181.252C216.859 180.824 216.527 180.478 216.106 180.28C215.868 180.188 215.613 180.152 215.359 180.176C215.105 180.2 214.861 180.283 214.645 180.418C214.21 180.691 213.875 181.098 213.692 181.577C213.51 182.01 213.435 182.486 213.272 182.931C213.135 183.388 212.824 183.773 212.406 184.002C212.055 184.165 211.635 184.14 211.265 184.278C210.952 184.406 210.695 184.643 210.541 184.944C210.387 185.245 210.346 185.591 210.425 185.92C210.539 186.218 210.72 186.485 210.954 186.703C211.188 186.92 211.468 187.081 211.773 187.173C212.812 187.581 213.969 187.565 214.996 187.129Z" fill="#6F4439"/>
<path opacity="0.3" d="M210.45 173.488C209.52 173.623 208.662 174.064 208.011 174.741V174.71V174.753L207.93 174.847C207.878 174.916 207.822 174.981 207.76 175.042L207.723 175.104L207.76 175.054C207.307 175.685 207.02 176.42 206.926 177.191C206.844 177.644 206.827 178.106 206.876 178.563C206.931 179.024 207.154 179.448 207.503 179.754C207.708 179.906 207.945 180.009 208.196 180.056C208.447 180.102 208.706 180.091 208.952 180.023C209.45 179.88 209.889 179.581 210.206 179.171C210.5 178.801 210.701 178.369 210.971 177.981C211.095 177.779 211.258 177.605 211.451 177.467C211.644 177.329 211.862 177.231 212.093 177.178C212.475 177.128 212.877 177.26 213.265 177.229C213.601 177.19 213.911 177.033 214.141 176.786C214.371 176.539 214.505 176.218 214.519 175.881C214.495 175.56 214.396 175.248 214.23 174.971C214.065 174.694 213.838 174.458 213.566 174.283C212.671 173.622 211.553 173.337 210.45 173.488Z" fill="#6F4439"/>
<path opacity="0.3" d="M211.178 180.832C211.001 180.836 210.827 180.872 210.664 180.938L209.648 181.283C209.384 181.377 209.09 181.496 209.021 181.772C208.995 181.859 208.997 181.952 209.026 182.039C209.055 182.125 209.11 182.2 209.184 182.254C209.258 182.306 209.342 182.341 209.431 182.357C209.519 182.374 209.61 182.37 209.698 182.348H209.654C210.211 182.326 210.752 182.155 211.222 181.853C211.36 181.778 211.479 181.671 211.566 181.54C211.613 181.478 211.642 181.404 211.651 181.327C211.66 181.25 211.648 181.172 211.617 181.101C211.576 181.02 211.513 180.952 211.435 180.904C211.358 180.856 211.269 180.831 211.178 180.832Z" fill="#6F4439"/>
<path d="M206.87 175.593C206.87 175.593 206.764 175.925 206.626 176.464C206.265 177.884 206.302 179.375 206.732 180.775C206.895 181.314 207.04 181.634 207.021 181.64C206.971 181.574 206.929 181.503 206.895 181.427C206.799 181.224 206.715 181.014 206.645 180.801C206.152 179.386 206.113 177.853 206.532 176.414C206.594 176.201 206.669 175.991 206.757 175.788C206.784 175.717 206.822 175.651 206.87 175.593Z" fill="white"/>
<path d="M208.068 174.089C208.099 174.089 207.967 174.29 207.779 174.484C207.591 174.678 207.428 174.804 207.39 174.779C207.353 174.754 207.491 174.578 207.679 174.384C207.867 174.19 208.043 174.064 208.068 174.089Z" fill="white"/>
<path d="M209.14 185.864C208.93 185.738 208.748 185.571 208.604 185.373C208.461 185.175 208.359 184.949 208.306 184.711C208.453 184.897 208.589 185.091 208.714 185.293C208.868 185.474 209.011 185.664 209.14 185.864Z" fill="white"/>
<path d="M220.784 146.004C220.784 146.004 217.304 144.375 218.972 139.55C220.639 134.725 223.988 132.087 226.884 133.785C229.781 135.483 229.342 137.363 228.941 138.647C228.54 139.932 227.718 142.877 226.195 144.701C225.323 145.703 222.746 147.101 220.784 146.004Z" fill="#AE7461"/>
<path opacity="0.3" d="M221.699 145.051C222.401 145.339 223.178 145.39 223.912 145.196H223.881H223.925H224.025C224.091 145.179 224.156 145.158 224.219 145.133H224.276H224.226C224.799 144.876 225.299 144.48 225.68 143.98C225.925 143.699 226.126 143.382 226.276 143.04C226.431 142.701 226.453 142.317 226.339 141.962C226.261 141.772 226.14 141.602 225.986 141.466C225.831 141.33 225.647 141.232 225.448 141.179C225.049 141.073 224.626 141.102 224.244 141.26C223.887 141.392 223.567 141.605 223.216 141.755C223.047 141.842 222.863 141.895 222.673 141.91C222.484 141.925 222.293 141.902 222.113 141.843C221.818 141.724 221.605 141.467 221.323 141.323C221.074 141.211 220.794 141.191 220.532 141.267C220.27 141.343 220.043 141.509 219.893 141.737C219.777 141.968 219.717 142.223 219.717 142.482C219.717 142.741 219.777 142.996 219.893 143.228C220.237 144.046 220.884 144.7 221.699 145.051Z" fill="#6F4439"/>
<path opacity="0.3" d="M227.204 134.869C226.611 134.395 225.876 134.134 225.116 134.129H225.003C224.941 134.129 224.865 134.129 224.803 134.129H224.746H224.79C224.172 134.216 223.584 134.453 223.078 134.819C222.767 135.022 222.486 135.269 222.245 135.552C222.006 135.838 221.881 136.201 221.893 136.573C221.914 136.776 221.982 136.972 222.09 137.145C222.199 137.317 222.346 137.463 222.52 137.57C222.876 137.779 223.289 137.869 223.699 137.826C224.075 137.795 224.445 137.676 224.822 137.613C225.199 137.542 225.589 137.623 225.906 137.839C226.151 138.033 226.289 138.34 226.533 138.553C226.74 138.732 227.003 138.83 227.276 138.83C227.549 138.83 227.813 138.732 228.019 138.553C228.195 138.363 228.323 138.134 228.395 137.885C228.467 137.636 228.48 137.373 228.433 137.118C228.331 136.238 227.891 135.431 227.204 134.869Z" fill="#6F4439"/>
<path opacity="0.3" d="M223.291 139.337C223.192 139.237 223.075 139.157 222.947 139.099L222.182 138.691C222.093 138.626 221.99 138.581 221.881 138.562C221.772 138.542 221.661 138.548 221.555 138.578C221.489 138.612 221.436 138.665 221.401 138.73C221.366 138.795 221.352 138.869 221.36 138.942C221.37 139.015 221.396 139.085 221.436 139.146C221.476 139.208 221.53 139.26 221.592 139.299C221.918 139.602 222.315 139.818 222.746 139.926C222.868 139.954 222.994 139.954 223.116 139.926C223.179 139.919 223.239 139.896 223.289 139.859C223.34 139.821 223.38 139.771 223.404 139.713C223.42 139.646 223.418 139.576 223.398 139.51C223.378 139.444 223.341 139.384 223.291 139.337Z" fill="#6F4439"/>
<path d="M224 133.923C224 133.923 223.743 134.042 223.373 134.261C222.342 134.834 221.486 135.677 220.896 136.699C220.677 137.093 220.57 137.325 220.551 137.325C220.563 137.261 220.581 137.197 220.608 137.137C220.67 136.969 220.746 136.805 220.833 136.648C221.394 135.586 222.27 134.723 223.341 134.18C223.501 134.095 223.667 134.022 223.837 133.96C223.89 133.943 223.945 133.931 224 133.923Z" fill="white"/>
<path d="M225.543 133.797C225.543 133.797 225.367 133.847 225.148 133.847C224.928 133.847 224.765 133.847 224.759 133.785C224.753 133.722 224.935 133.728 225.154 133.735C225.287 133.72 225.421 133.742 225.543 133.797Z" fill="white"/>
<path d="M219.21 140.916C219.17 140.723 219.168 140.525 219.206 140.333C219.244 140.14 219.32 139.957 219.429 139.794C219.405 139.983 219.365 140.169 219.31 140.352C219.292 140.542 219.258 140.731 219.21 140.916Z" fill="white"/>
<path d="M206.318 146.211C205.592 146.599 204.766 146.764 203.946 146.685C203.125 146.605 202.347 146.285 201.708 145.764C201.07 145.244 200.599 144.546 200.357 143.758C200.115 142.971 200.111 142.13 200.346 141.34C200.581 140.551 201.045 139.849 201.679 139.322C202.312 138.795 203.088 138.468 203.908 138.381C204.727 138.294 205.554 138.451 206.284 138.833C207.015 139.215 207.616 139.805 208.011 140.527C208.275 141.011 208.441 141.542 208.499 142.09C208.557 142.639 208.505 143.193 208.348 143.721C208.191 144.249 207.93 144.741 207.582 145.168C207.234 145.596 206.804 145.95 206.318 146.211Z" fill="#FF9A6C"/>
<g opacity="0.5">
<path d="M206.318 146.211C205.592 146.599 204.766 146.764 203.946 146.685C203.125 146.605 202.347 146.285 201.708 145.764C201.07 145.244 200.599 144.546 200.357 143.758C200.115 142.971 200.111 142.13 200.346 141.34C200.581 140.551 201.045 139.849 201.679 139.322C202.312 138.795 203.088 138.468 203.908 138.381C204.727 138.294 205.554 138.451 206.284 138.833C207.015 139.215 207.616 139.805 208.011 140.527C208.275 141.011 208.441 141.542 208.499 142.09C208.557 142.639 208.505 143.193 208.348 143.721C208.191 144.249 207.93 144.741 207.582 145.168C207.234 145.596 206.804 145.95 206.318 146.211Z" fill="#FC8019"/>
</g>
<path d="M205.936 145.496C205.208 145.888 204.381 146.056 203.559 145.978C202.736 145.9 201.955 145.581 201.314 145.06C200.673 144.539 200.201 143.841 199.957 143.052C199.713 142.263 199.708 141.42 199.943 140.628C200.178 139.837 200.642 139.133 201.277 138.604C201.912 138.076 202.689 137.748 203.51 137.661C204.332 137.573 205.161 137.731 205.893 138.114C206.624 138.497 207.226 139.088 207.622 139.813C207.887 140.296 208.053 140.827 208.111 141.375C208.169 141.923 208.118 142.477 207.962 143.005C207.805 143.533 207.545 144.025 207.198 144.453C206.85 144.881 206.421 145.235 205.936 145.496Z" fill="#FF9A6C"/>
<g opacity="0.3">
<path d="M205.115 144.005C204.691 144.236 204.208 144.335 203.727 144.292C203.247 144.248 202.79 144.063 202.415 143.759C202.039 143.456 201.763 143.048 201.619 142.588C201.476 142.127 201.473 141.635 201.61 141.172C201.747 140.71 202.018 140.298 202.389 139.99C202.76 139.682 203.214 139.49 203.694 139.44C204.174 139.39 204.658 139.483 205.085 139.707C205.512 139.932 205.863 140.279 206.093 140.703C206.246 140.984 206.342 141.292 206.376 141.61C206.41 141.928 206.38 142.25 206.29 142.557C206.199 142.863 206.048 143.149 205.847 143.398C205.645 143.646 205.396 143.853 205.115 144.005Z" fill="white"/>
</g>
<path d="M204.695 143.209C203.522 143.441 202.581 143.159 202.594 142.582C202.497 142.403 202.436 142.207 202.415 142.005C202.393 141.802 202.412 141.597 202.47 141.402C202.528 141.207 202.624 141.025 202.752 140.867C202.881 140.709 203.039 140.577 203.218 140.48C203.397 140.383 203.593 140.322 203.796 140.301C203.999 140.28 204.204 140.299 204.399 140.356C204.594 140.414 204.776 140.51 204.935 140.638C205.093 140.767 205.224 140.925 205.322 141.104C205.418 141.283 205.479 141.479 205.5 141.681C205.521 141.884 205.502 142.088 205.444 142.283C205.385 142.478 205.289 142.66 205.161 142.818C205.032 142.975 204.874 143.106 204.695 143.203V143.209Z" fill="#FF9A6C"/>
<path d="M228.759 148.592C229.419 148.269 230.16 148.149 230.889 148.246C231.617 148.344 232.301 148.655 232.853 149.139C233.405 149.624 233.802 150.261 233.992 150.971C234.183 151.68 234.159 152.43 233.924 153.126C233.689 153.822 233.253 154.433 232.671 154.882C232.09 155.331 231.388 155.598 230.655 155.649C229.922 155.7 229.19 155.533 228.551 155.17C227.912 154.806 227.396 154.262 227.066 153.605C226.846 153.165 226.716 152.686 226.682 152.195C226.648 151.705 226.711 151.212 226.869 150.746C227.026 150.28 227.274 149.85 227.599 149.48C227.923 149.111 228.317 148.809 228.759 148.592Z" fill="#FF9A6C"/>
<g opacity="0.5">
<path d="M228.759 148.592C229.419 148.269 230.16 148.149 230.889 148.246C231.617 148.344 232.301 148.655 232.853 149.139C233.405 149.624 233.802 150.261 233.992 150.971C234.183 151.68 234.159 152.43 233.924 153.126C233.689 153.822 233.253 154.433 232.671 154.882C232.09 155.331 231.388 155.598 230.655 155.649C229.922 155.7 229.19 155.533 228.551 155.17C227.912 154.806 227.396 154.262 227.066 153.605C226.846 153.165 226.716 152.686 226.682 152.195C226.648 151.705 226.711 151.212 226.869 150.746C227.026 150.28 227.274 149.85 227.599 149.48C227.923 149.111 228.317 148.809 228.759 148.592Z" fill="#FC8019"/>
</g>
<path d="M231.838 154.589C231.191 154.936 230.455 155.084 229.724 155.015C228.993 154.945 228.299 154.66 227.729 154.197C227.16 153.733 226.741 153.111 226.524 152.41C226.308 151.708 226.304 150.959 226.514 150.255C226.724 149.552 227.137 148.926 227.702 148.457C228.267 147.988 228.959 147.697 229.689 147.62C230.419 147.543 231.156 147.684 231.807 148.026C232.457 148.367 232.991 148.893 233.343 149.538C233.577 149.968 233.724 150.44 233.775 150.927C233.827 151.414 233.781 151.907 233.641 152.376C233.501 152.845 233.27 153.282 232.96 153.662C232.651 154.042 232.27 154.357 231.838 154.589Z" fill="#FF9A6C"/>
<g opacity="0.3">
<path d="M228.013 150.729C228.135 150.319 228.376 149.954 228.705 149.681C229.035 149.408 229.438 149.239 229.863 149.195C230.289 149.151 230.718 149.234 231.096 149.434C231.475 149.634 231.785 149.941 231.989 150.317C232.192 150.693 232.28 151.121 232.24 151.547C232.2 151.973 232.035 152.377 231.765 152.709C231.495 153.041 231.132 153.285 230.724 153.411C230.315 153.537 229.877 153.539 229.467 153.417C229.195 153.337 228.941 153.203 228.72 153.024C228.499 152.846 228.316 152.625 228.181 152.375C228.046 152.125 227.961 151.851 227.933 151.569C227.904 151.286 227.931 151.001 228.013 150.729Z" fill="white"/>
</g>
<path d="M230.741 152.559C230.501 152.687 230.228 152.741 229.957 152.715C229.686 152.689 229.429 152.583 229.218 152.411C229.007 152.24 228.852 152.009 228.772 151.749C228.692 151.489 228.69 151.212 228.767 150.951C228.845 150.69 228.998 150.458 229.207 150.284C229.416 150.11 229.672 150.001 229.942 149.972C230.213 149.943 230.486 149.995 230.727 150.12C230.969 150.246 231.167 150.44 231.299 150.679C231.387 150.838 231.443 151.014 231.463 151.195C231.483 151.377 231.467 151.561 231.415 151.736C231.363 151.911 231.277 152.074 231.161 152.215C231.045 152.356 230.902 152.473 230.741 152.559Z" fill="#FF9A6C"/>
<path d="M194.644 174.929C194.551 175.912 194.687 176.903 195.043 177.824C195.399 178.745 195.964 179.571 196.694 180.237C197.384 180.892 198.222 181.371 199.137 181.632C200.051 181.894 201.016 181.931 201.948 181.74C202.027 180.009 201.414 178.318 200.246 177.037C199.077 175.756 197.448 174.991 195.716 174.91C195.358 174.898 195 174.91 194.644 174.948V174.929Z" fill="#455A64"/>
<path d="M196.255 176.301C196.318 176.257 197.44 177.717 199.083 179.284C200.725 180.851 202.218 181.941 202.174 181.997C201.802 181.837 201.454 181.626 201.139 181.371C199.547 180.229 198.128 178.864 196.926 177.316C196.65 177.015 196.424 176.673 196.255 176.301Z" fill="#3D3D3D"/>
<path d="M208.168 125.494C207.506 126.226 207.023 127.102 206.757 128.053C206.492 129.003 206.451 130.002 206.638 130.971C206.8 131.909 207.187 132.794 207.764 133.551C208.341 134.308 209.093 134.915 209.955 135.32C211.053 133.978 211.573 132.256 211.401 130.531C211.23 128.806 210.38 127.22 209.039 126.121C208.762 125.889 208.466 125.68 208.155 125.494H208.168Z" fill="#455A64"/>
<path d="M208.676 127.575C208.757 127.575 208.783 129.417 209.165 131.654C209.547 133.891 210.093 135.658 210.018 135.677C209.818 135.323 209.666 134.943 209.566 134.549C208.978 132.682 208.657 130.741 208.613 128.784C208.574 128.38 208.595 127.973 208.676 127.575Z" fill="#3D3D3D"/>
<path d="M247.074 160.799C246.065 160.021 244.89 159.487 243.64 159.239C242.39 158.991 241.099 159.036 239.87 159.37C238.675 159.673 237.57 160.258 236.649 161.077C235.728 161.896 235.017 162.925 234.578 164.076C235.493 164.716 236.526 165.169 237.617 165.409C238.708 165.649 239.835 165.672 240.935 165.476C242.035 165.279 243.085 164.868 244.026 164.266C244.966 163.663 245.778 162.881 246.416 161.964C246.672 161.593 246.901 161.204 247.099 160.799H247.074Z" fill="#455A64"/>
<path d="M244.459 161.669C244.459 161.776 242.095 161.976 239.249 162.703C236.402 163.43 234.176 164.308 234.139 164.207C234.577 163.913 235.054 163.681 235.556 163.518C237.908 162.573 240.378 161.951 242.898 161.669C243.416 161.597 243.941 161.597 244.459 161.669Z" fill="#3D3D3D"/>
<path d="M204.983 157.377C204.983 158.267 203.584 158.969 201.891 158.944C200.198 158.919 198.838 158.167 198.85 157.29C198.825 157.63 198.825 157.971 198.85 158.311C198.85 159.201 200.198 159.946 201.891 159.972C203.584 159.997 204.97 159.301 204.983 158.405C205.001 158.063 205.001 157.72 204.983 157.377Z" fill="#455A64"/>
<path d="M201.929 156.738C203.284 156.738 204.437 157.239 204.813 157.885C204.919 157.736 204.977 157.559 204.983 157.377C204.983 156.487 203.635 155.742 201.942 155.717C200.249 155.692 198.863 156.387 198.851 157.29C198.85 157.472 198.902 157.65 199.001 157.803C199.421 157.158 200.575 156.713 201.929 156.738Z" fill="#3D3D3D"/>
<path d="M223.066 149.444C223.417 149.782 223.179 150.603 222.533 151.274C221.887 151.944 221.072 152.214 220.721 151.9C220.847 152.041 220.983 152.173 221.128 152.295C221.479 152.634 222.288 152.364 222.94 151.669C223.592 150.973 223.824 150.177 223.473 149.839C223.345 149.699 223.209 149.568 223.066 149.444Z" fill="#455A64"/>
<path d="M221.655 150.428C221.842 150.195 222.081 150.009 222.351 149.883C222.622 149.757 222.918 149.695 223.216 149.701C223.198 149.603 223.15 149.514 223.079 149.444C222.721 149.099 221.912 149.369 221.26 150.039C220.608 150.71 220.376 151.531 220.734 151.875C220.807 151.943 220.898 151.989 220.997 152.007C220.979 151.711 221.029 151.415 221.143 151.141C221.257 150.867 221.432 150.623 221.655 150.428Z" fill="#3D3D3D"/>
<path d="M227.781 117.806C228.026 118.501 227.154 119.429 225.837 119.88C224.521 120.331 223.26 120.143 223.022 119.454C223.091 119.726 223.184 119.993 223.298 120.25C223.536 120.945 224.796 121.133 226.107 120.682C227.417 120.231 228.295 119.297 228.057 118.608C227.984 118.334 227.892 118.066 227.781 117.806Z" fill="#455A64"/>
<path d="M225.241 118.157C226.295 117.787 227.31 117.843 227.8 118.232C227.843 118.089 227.843 117.936 227.8 117.793C227.561 117.104 226.301 116.91 224.99 117.361C223.68 117.812 222.802 118.746 223.04 119.441C223.092 119.583 223.183 119.707 223.304 119.798C223.429 119.184 224.194 118.514 225.241 118.157Z" fill="#3D3D3D"/>
<path d="M230.465 169.032L221.787 176.026C221.719 176.075 221.663 176.136 221.62 176.208C221.576 176.279 221.548 176.358 221.536 176.44C221.523 176.522 221.528 176.606 221.548 176.687C221.569 176.767 221.605 176.843 221.655 176.909C222.36 177.846 223.266 178.612 224.307 179.153C230.577 182.624 234.515 176.126 233.643 172.335C233.275 170.972 232.424 169.79 231.248 169.007C231.134 168.922 230.994 168.878 230.852 168.882C230.71 168.887 230.573 168.94 230.465 169.032Z" fill="#FC8019"/>
<path opacity="0.3" d="M230.465 169.032L221.787 176.026C221.719 176.075 221.663 176.136 221.62 176.208C221.576 176.279 221.548 176.358 221.536 176.44C221.523 176.522 221.528 176.606 221.548 176.687C221.569 176.767 221.605 176.843 221.655 176.909C222.36 177.846 223.266 178.612 224.307 179.153C230.577 182.624 234.515 176.126 233.643 172.335C233.275 170.972 232.424 169.79 231.248 169.007C231.134 168.922 230.994 168.878 230.852 168.882C230.71 168.887 230.573 168.94 230.465 169.032Z" fill="black"/>
<path d="M230.007 168.613L221.335 175.606C221.207 175.71 221.123 175.859 221.1 176.023C221.077 176.187 221.116 176.353 221.21 176.489C221.913 177.427 222.82 178.194 223.862 178.733C230.132 182.204 234.07 175.706 233.198 171.915C232.827 170.552 231.974 169.37 230.797 168.588C230.682 168.501 230.541 168.455 230.397 168.46C230.254 168.465 230.116 168.518 230.007 168.613Z" fill="#FC8019"/>
<path opacity="0.3" d="M229.273 169.446C229.499 169.126 232.327 170.142 232.314 172.498C232.302 174.854 231.643 176.615 230.596 176.671C229.549 176.727 228.239 174.791 228.182 173.043C228.179 171.762 228.559 170.509 229.273 169.446Z" fill="black"/>
<path opacity="0.3" d="M222.226 175.487C222.226 175.023 224.627 173.726 226.214 174.02C227.8 174.315 229.624 176.928 229.562 177.623C229.499 178.319 226.54 178.726 225.066 178.25C223.593 177.774 222.207 176.163 222.226 175.487Z" fill="black"/>
<path d="M225.097 174.766C224.903 174.566 223.084 175.775 223.492 176.182C223.9 176.59 225.523 175.205 225.097 174.766Z" fill="#FC8019"/>
<path d="M227.48 175.737C227.731 175.662 228.628 177.617 227.963 177.617C227.298 177.617 227.223 175.812 227.48 175.737Z" fill="#FC8019"/>
<path d="M226.401 175.186C226.715 175.249 226.401 177.793 225.574 177.692C224.746 177.592 226.081 175.123 226.401 175.186Z" fill="#FC8019"/>
<path d="M229.167 172.259C229.01 171.777 231.355 171.2 231.424 171.708C231.493 172.216 229.374 172.905 229.167 172.259Z" fill="#FC8019"/>
<path d="M229.148 171.326C229.411 171.539 230.609 170.574 230.264 170.273C229.919 169.972 228.891 171.106 229.148 171.326Z" fill="#FC8019"/>
<path d="M229.029 173.25C229.029 173.444 231.11 173.926 231.042 173.513C230.973 173.099 229.085 172.767 229.029 173.25Z" fill="#FC8019"/>
<path d="M228.753 174.045C228.521 174.415 229.787 175.825 230.113 175.524C230.439 175.223 229.079 173.525 228.753 174.045Z" fill="#FC8019"/>
<path d="M228.27 170.311C228.228 170.372 228.179 170.428 228.126 170.48C228.032 170.586 227.887 170.737 227.712 170.919C227.348 171.282 226.84 171.765 226.238 172.266C225.636 172.767 225.072 173.181 224.652 173.469C224.439 173.613 224.27 173.726 224.144 173.801L223.956 173.914C223.956 173.914 224.012 173.857 224.132 173.776L224.621 173.425C225.035 173.124 225.593 172.704 226.188 172.203C226.784 171.702 227.304 171.232 227.668 170.881L228.107 170.461C228.157 170.406 228.211 170.356 228.27 170.311Z" fill="white"/>
<path d="M146.226 119.015C146.226 119.015 154.966 125.958 157.744 130.294C160.521 134.631 182.762 149.72 182.448 150.284C182.135 150.848 168.861 172.73 168.861 172.73L161.481 169.007L146.226 119.805" fill="#FC8019"/>
<path d="M115.163 199.981C115.163 199.981 98.5853 226.118 96.9111 236.075L115.163 243.544V199.981Z" fill="#FC8019"/>
<path d="M104.153 115.399C104.153 116.057 101.018 124.272 101.018 124.272L84.7471 142.175L116.135 193.251L119.27 200.971L167.588 198.183C167.588 198.183 160.691 161.557 160.195 155.478C159.7 149.4 146.226 119.015 146.226 119.015L129.923 120.82L125.158 119.178L104.153 115.399Z" fill="#FC8019"/>
<path d="M114.16 200.232C113.533 199.988 110.398 210.534 105.025 229.822C99.6513 249.109 103.332 288.518 103.332 288.518H186.662C186.662 288.518 181.15 244.886 173.946 223.668C166.842 202.732 167.218 189.58 165.638 189.711C164.058 189.843 114.16 200.232 114.16 200.232Z" fill="#3D3D3D"/>
<path d="M162.597 170.787C162.575 170.743 162.561 170.697 162.553 170.649L162.459 170.229C162.383 169.866 162.271 169.327 162.108 168.631C161.782 167.253 161.274 165.26 160.452 162.854C159.521 160.031 158.363 157.288 156.991 154.651C155.183 151.489 153.183 148.44 151.003 145.521C147.088 140.179 142.65 135.24 137.754 130.777C135.873 129.066 134.243 127.819 133.121 126.942L131.798 125.983L131.453 125.726C131.378 125.664 131.34 125.632 131.346 125.626L131.472 125.695L131.835 125.927L133.196 126.842C134.829 128.016 136.403 129.27 137.911 130.601C142.868 135.028 147.344 139.964 151.267 145.327C153.456 148.255 155.456 151.319 157.254 154.501C159.519 158.965 161.192 163.704 162.233 168.6C162.377 169.296 162.471 169.853 162.528 170.217C162.528 170.386 162.572 170.524 162.59 170.637C162.603 170.686 162.605 170.737 162.597 170.787Z" fill="#3D3D3D"/>
<path d="M84.7596 142.175C84.7596 142.175 81.6935 145.709 82.8159 153.674C83.9382 161.638 96.9111 197.719 96.9111 197.719L125.352 188.138L110.304 158.186L99.858 145.108L84.7596 142.175Z" fill="#FC8019"/>
<path d="M161.481 163.142C161.481 163.142 161.431 163.048 161.38 162.86L161.148 162.039C160.948 161.275 160.672 160.253 160.34 159.019C159.644 156.469 158.634 152.96 157.38 149.137C156.126 145.315 154.828 141.893 153.856 139.431C153.386 138.24 152.997 137.256 152.703 136.523C152.583 136.21 152.477 135.947 152.395 135.727C152.351 135.639 152.322 135.543 152.308 135.445C152.308 135.445 152.37 135.527 152.458 135.702C152.546 135.878 152.678 136.166 152.822 136.473C153.129 137.143 153.562 138.127 154.076 139.349C155.104 141.787 156.421 145.202 157.694 149.037C158.966 152.872 159.945 156.393 160.584 158.963C160.898 160.247 161.142 161.294 161.293 162.014C161.362 162.346 161.412 162.641 161.462 162.854C161.477 162.949 161.483 163.046 161.481 163.142Z" fill="#3D3D3D"/>
<path d="M96.9111 197.719L97.0428 197.663L97.4378 197.519L98.9928 196.967L104.849 194.95L125.308 187.988L125.221 188.201C122.788 183.414 120.117 178.175 117.327 172.654C115.847 169.734 114.398 166.883 113.006 164.126C112.336 162.729 111.539 161.444 110.818 160.147C110.097 158.85 109.364 157.59 108.642 156.387C107.304 154.065 105.839 151.819 104.253 149.657C103.522 148.692 102.728 147.775 101.877 146.913C101.083 146.129 100.199 145.441 99.2436 144.864C97.6043 143.855 95.8163 143.111 93.9453 142.658C92.5335 142.309 91.0857 142.126 89.6315 142.113C88.7131 142.108 87.7955 142.166 86.8852 142.288L86.1767 142.401C86.0954 142.411 86.0134 142.411 85.9321 142.401C86.0089 142.372 86.0889 142.353 86.1704 142.344L86.8726 142.2C87.7849 142.051 88.7072 141.972 89.6315 141.962C91.0986 141.953 92.5615 142.12 93.9892 142.457C95.886 142.894 97.7002 143.633 99.3627 144.644C100.339 145.221 101.242 145.913 102.053 146.706C102.918 147.572 103.724 148.496 104.467 149.469C106.072 151.63 107.556 153.879 108.912 156.205C109.639 157.425 110.369 158.679 111.1 159.965C111.828 161.262 112.63 162.559 113.295 163.951L117.628 172.479C120.411 177.987 123.076 183.244 125.503 188.038L125.584 188.195L125.415 188.251L104.924 195.094L99.0367 197.03L97.4691 197.531L97.0616 197.657C97.0156 197.686 96.9646 197.708 96.9111 197.719Z" fill="#3D3D3D"/>
<path d="M123.866 135.934C123.822 136.016 118.7 133.428 112.423 130.226C106.147 127.023 101.093 124.31 101.137 124.229C101.181 124.147 106.304 126.704 112.58 129.937C118.856 133.171 123.904 135.859 123.866 135.934Z" fill="#3D3D3D"/>
<path d="M130.042 121.233C130.357 123.235 130.566 125.251 130.669 127.274C130.878 129.289 130.976 131.314 130.964 133.34C130.649 131.339 130.44 129.322 130.337 127.299C130.129 125.284 130.031 123.259 130.042 121.233Z" fill="#3D3D3D"/>
<path d="M137.623 132.488L137.422 132.569L136.827 132.757C136.306 132.92 135.535 133.177 134.544 133.515C132.569 134.186 129.735 135.232 126.293 136.648C122.851 138.065 118.769 139.882 114.33 142.012C113.17 142.491 112.04 143.037 110.944 143.648C110.412 143.976 110.002 144.469 109.777 145.051C109.589 145.657 109.629 146.31 109.89 146.887C110.398 148.091 111.452 149.012 112.398 150.021L113.822 151.562L115.201 153.179C117.019 155.384 118.7 157.609 120.217 159.846C121.735 162.083 123.101 164.27 124.362 166.401C126.87 170.662 128.889 174.622 130.525 177.981C132.162 181.339 133.403 184.09 134.243 186.008L135.19 188.213C135.291 188.452 135.372 188.646 135.429 188.79C135.461 188.854 135.487 188.921 135.504 188.99C135.46 188.934 135.426 188.87 135.403 188.802L135.134 188.238L134.093 186.108C133.221 184.228 131.942 181.477 130.287 178.131C128.632 174.785 126.575 170.85 124.067 166.601C122.813 164.483 121.446 162.284 119.923 160.078C118.373 157.784 116.709 155.569 114.938 153.442L113.571 151.825L112.148 150.296C111.232 149.275 110.147 148.354 109.589 147.05C109.304 146.399 109.267 145.666 109.483 144.989C109.719 144.346 110.159 143.798 110.737 143.428C111.848 142.814 112.993 142.261 114.167 141.774C118.631 139.656 122.706 137.877 126.174 136.473C129.641 135.069 132.488 134.054 134.475 133.415C135.472 133.102 136.25 132.864 136.777 132.719L137.404 132.563L137.623 132.488Z" fill="#3D3D3D"/>
<path opacity="0.3" d="M124.004 154.896C125.206 154.896 126.18 153.922 126.18 152.721C126.18 151.52 125.206 150.547 124.004 150.547C122.803 150.547 121.829 151.52 121.829 152.721C121.829 153.922 122.803 154.896 124.004 154.896Z" fill="black"/>
<path opacity="0.3" d="M144.382 146.474C145.584 146.474 146.558 145.5 146.558 144.299C146.558 143.099 145.584 142.125 144.382 142.125C143.181 142.125 142.207 143.099 142.207 144.299C142.207 145.5 143.181 146.474 144.382 146.474Z" fill="black"/>
<path opacity="0.3" d="M137.623 173.807C137.624 174.238 137.497 174.659 137.259 175.018C137.02 175.376 136.681 175.656 136.283 175.821C135.885 175.987 135.447 176.03 135.024 175.946C134.602 175.863 134.213 175.656 133.909 175.351C133.604 175.047 133.397 174.659 133.313 174.236C133.229 173.814 133.273 173.376 133.438 172.979C133.604 172.581 133.884 172.241 134.242 172.003C134.601 171.765 135.023 171.638 135.453 171.639C136.028 171.641 136.579 171.87 136.986 172.276C137.392 172.682 137.621 173.233 137.623 173.807Z" fill="black"/>
<path opacity="0.3" d="M155.612 169.058C156.813 169.058 157.787 168.084 157.787 166.883C157.787 165.682 156.813 164.709 155.612 164.709C154.41 164.709 153.436 165.682 153.436 166.883C153.436 168.084 154.41 169.058 155.612 169.058Z" fill="black"/>
<path d="M170.842 200.715C171.352 200.763 171.854 200.879 172.334 201.059C172.839 201.145 173.331 201.299 173.795 201.517C173.276 201.614 172.74 201.567 172.246 201.379C171.725 201.293 171.239 201.063 170.842 200.715Z" fill="#FF9A6C"/>
<path d="M101.4 196.209C101.507 196.773 110.668 209.744 117.991 209.744C125.315 209.744 161.405 198.935 161.405 198.935L157.229 187.756L121.114 193.183L119.333 190.169L101.4 196.209Z" fill="#FFBF9D"/>
<path d="M157.229 187.756C157.418 187.599 164.127 184.704 167.82 183.896C171.513 183.088 173.939 183.426 176.378 184.711C178.817 185.995 184.16 187.455 185.32 188.646C186.204 189.542 185.395 191.115 183.752 190.952C182.109 190.789 175.802 189.385 175.664 189.398C175.664 189.398 175.607 189.467 175.57 189.573C175.434 189.971 175.417 190.399 175.52 190.807C175.624 191.214 175.844 191.582 176.153 191.867L180.435 195.877C180.435 195.877 180.492 197.669 179.313 198.001C178.573 198.213 177.855 198.494 177.168 198.841C177.168 198.841 176.686 201.26 174.817 201.467C172.949 201.673 167.262 199.856 166.986 199.819L161.405 198.935L157.229 187.756Z" fill="#FFBF9D"/>
<path d="M172.955 197.895C173.667 198.041 174.368 198.231 175.056 198.465C175.771 198.598 176.477 198.778 177.169 199.004C176.43 199.1 175.679 199.025 174.974 198.785C174.242 198.645 173.552 198.341 172.955 197.895Z" fill="#FF9A6C"/>
<path d="M164.942 199.186L171.024 202.012C171.436 202.262 171.917 202.374 172.397 202.331C173.106 202.187 173.494 201.454 173.789 200.796" fill="#FFBF9D"/>
<path d="M105.62 64.9748C111.89 60.1498 118.273 59.2976 126.312 59.4229C130.851 59.4918 131.553 56.9164 134.795 57.8689C138.039 58.7538 140.869 60.75 142.789 63.5085C145.003 66.8421 146.834 70.558 147.147 74.5371C147.467 78.629 147.774 82.7459 147.348 86.8252V86.9443C146.984 90.0672 145.592 92.9805 143.39 95.2256C141.188 97.4707 138.301 98.9199 135.184 99.3452L132.607 99.7024C126.813 99.7024 120.944 99.7024 115.345 98.2298C109.746 96.7573 107.112 111.727 104.999 106.376C97.8139 88.2352 99.2497 69.8562 105.62 64.9748Z" fill="#3D3D3D"/>
<path d="M128.838 61.1586L124.656 60.532L108.354 66.4097C107.231 66.4279 106.155 66.868 105.342 67.6424C104.529 68.4169 104.037 69.469 103.965 70.5893L105.219 115.775L125.283 128.408V135.301L130.418 133.59L128.061 127.706C128.061 123.445 128.061 118.044 128.061 118.044C128.061 118.044 138.845 117.342 141.962 104.834C143.51 98.6121 144.094 88.2414 144.294 79.7694C144.476 72.112 138.287 61.4907 128.838 61.1586Z" fill="#FFBF9D"/>
<path d="M138.244 90.1654C138.212 90.5898 138.015 90.9849 137.695 91.2659C137.375 91.547 136.958 91.6918 136.532 91.6693C136.324 91.6686 136.117 91.626 135.926 91.544C135.734 91.462 135.561 91.3423 135.416 91.1921C135.272 91.0418 135.159 90.8641 135.085 90.6694C135.01 90.4747 134.976 90.2671 134.983 90.0588C135.016 89.6355 135.212 89.2414 135.53 88.9606C135.849 88.6797 136.265 88.5341 136.689 88.5549C136.897 88.5565 137.104 88.5997 137.295 88.6819C137.487 88.7641 137.66 88.8837 137.805 89.0336C137.95 89.1836 138.063 89.361 138.139 89.5553C138.214 89.7496 138.25 89.957 138.244 90.1654Z" fill="#3D3D3D"/>
<path d="M141.278 83.9179C141.059 84.1121 139.905 83.097 138.143 82.9466C136.381 82.7962 135.008 83.5732 134.858 83.3351C134.77 83.2286 135.014 82.8651 135.604 82.508C136.408 82.0491 137.334 81.8499 138.256 81.9377C139.166 82.0138 140.029 82.3758 140.72 82.9717C141.234 83.4354 141.385 83.8364 141.278 83.9179Z" fill="#3D3D3D"/>
<path d="M129.566 97.3151C129.566 97.2148 130.676 97.1208 132.456 97.0456C132.908 97.0456 133.341 96.9892 133.441 96.6884C133.517 96.2313 133.454 95.7618 133.259 95.3412L132.231 91.8195C130.814 86.8065 129.829 82.7147 130.036 82.6645C130.243 82.6144 131.547 86.6185 132.964 91.6253C133.303 92.8535 133.627 94.0294 133.936 95.1532C134.17 95.717 134.196 96.345 134.011 96.9265C133.933 97.0789 133.822 97.2117 133.685 97.3148C133.548 97.4179 133.39 97.4887 133.221 97.5218C132.967 97.5672 132.708 97.5798 132.45 97.5594C130.669 97.503 129.566 97.4153 129.566 97.3151Z" fill="#3D3D3D"/>
<path d="M128.08 118.05C122.096 117.624 116.348 115.546 111.477 112.047C111.477 112.047 115.239 121.233 128.048 121.146L128.08 118.05Z" fill="#FF9A6C"/>
<path d="M140.877 77.7581C140.545 78.1654 139.228 77.7581 137.648 77.7581C136.068 77.7581 134.739 78.0464 134.425 77.6328C134.293 77.4323 134.5 77.0062 135.052 76.649C135.845 76.1895 136.749 75.9559 137.665 75.9736C138.581 75.9913 139.475 76.2595 140.25 76.7492C140.833 77.1565 141.021 77.5638 140.877 77.7581Z" fill="#3D3D3D"/>
<path d="M118.756 88.912C118.732 89.3368 118.874 89.7544 119.152 90.0761C119.431 90.3979 119.824 90.5984 120.248 90.6352C120.455 90.6614 120.665 90.6462 120.865 90.5905C121.066 90.5348 121.253 90.4397 121.417 90.3108C121.58 90.1819 121.716 90.0217 121.817 89.8396C121.918 89.6576 121.982 89.4572 122.004 89.2504C122.028 88.8256 121.886 88.408 121.608 88.0862C121.329 87.7645 120.936 87.5639 120.512 87.5271C120.305 87.5001 120.095 87.5147 119.894 87.57C119.693 87.6254 119.505 87.7204 119.342 87.8495C119.178 87.9785 119.042 88.139 118.941 88.3215C118.841 88.504 118.778 88.7048 118.756 88.912Z" fill="#3D3D3D"/>
<path d="M117.558 82.4891C117.753 82.7084 119.032 81.8625 120.788 81.9502C122.543 82.038 123.785 82.9779 123.985 82.7774C124.086 82.6834 123.897 82.2886 123.358 81.8562C122.623 81.292 121.732 80.9681 120.806 80.9288C119.894 80.8864 118.991 81.1295 118.223 81.6244C117.665 82.0129 117.464 82.3889 117.558 82.4891Z" fill="#3D3D3D"/>
<path d="M118.794 76.906C119.12 77.3195 120.493 76.9749 122.123 77.0313C123.753 77.0877 125.12 77.4511 125.459 77.0313C125.603 76.837 125.409 76.4047 124.832 76.0161C124.03 75.5104 123.102 75.2391 122.154 75.2329C121.21 75.1944 120.274 75.4271 119.458 75.9034C118.856 76.3044 118.649 76.7054 118.794 76.906Z" fill="#3D3D3D"/>
<path d="M105.501 92.0137C105.582 91.0675 104.68 88.7427 103.758 88.5171C101.3 87.8905 96.7918 87.7213 96.2337 94.044C95.4249 102.685 105.495 101.563 105.539 101.319C105.582 101.075 105.225 95.2471 105.501 92.0137Z" fill="#FFBF9D"/>
<path d="M102.203 98.0921C102.165 98.0921 102.04 98.1799 101.777 98.2738C101.404 98.3931 101 98.364 100.648 98.1924C99.764 97.7725 99.1307 96.2498 99.2373 94.6895C99.2843 93.9454 99.4986 93.2214 99.8643 92.5715C99.9719 92.308 100.142 92.0748 100.361 91.8924C100.58 91.71 100.84 91.5839 101.118 91.5251C101.296 91.4951 101.478 91.5282 101.634 91.6186C101.79 91.709 101.909 91.8511 101.971 92.0201C102.065 92.2708 101.971 92.44 102.034 92.4588C102.096 92.4776 102.234 92.3334 102.197 91.97C102.169 91.7506 102.067 91.5473 101.908 91.3935C101.688 91.1924 101.398 91.0846 101.1 91.0927C100.738 91.1307 100.392 91.2606 100.094 91.4701C99.7966 91.6796 99.5578 91.9617 99.4003 92.2896C98.962 93.0046 98.7038 93.8153 98.6479 94.652C98.5413 96.394 99.2749 98.1109 100.498 98.5872C100.724 98.675 100.966 98.7116 101.208 98.6942C101.45 98.6769 101.685 98.6061 101.896 98.4869C102.153 98.2989 102.203 98.1109 102.203 98.0921Z" fill="#FF9A6C"/>
<path d="M103.407 88.7742L105.532 91.1241C115.326 82.3513 134.632 60.1562 133.547 61.4784C133.547 61.4784 127.12 58.5959 120.016 59.5985C112.912 60.6011 99.3876 63.6904 99.3249 72.0245C99.2622 80.3586 103.407 88.7742 103.407 88.7742Z" fill="#3D3D3D"/>
<path d="M144.802 68.6594C144.069 67.0615 144.871 65.119 146.238 63.9409C147.605 62.7629 149.423 62.1739 151.192 61.6475C152.96 61.1211 154.784 60.6136 156.245 59.5295C159.136 57.3864 159.901 53.5076 159.499 50.0674C158.728 43.4941 154.433 37.5349 148.727 33.7C143.022 29.865 136.062 27.9475 129.033 27.3648C114.486 26.1617 101.375 31.1935 90.2272 40.1041C89.3259 40.8283 88.5868 41.7334 88.0576 42.761C87.5283 43.7886 87.2208 44.9157 87.1548 46.0696C87.0733 47.8554 88.1267 49.5035 89.2177 50.9698C92.5722 55.4878 96.5098 58.6084 101.131 61.9921L99.833 69.3738L144.802 68.6594Z" fill="#FC8019"/>
<path d="M155.38 46.8841C155.254 47.0884 155.1 47.274 154.922 47.4356C154.463 47.8872 153.973 48.3059 153.455 48.6888C152.796 49.1838 151.981 49.7165 151.053 50.2804C150.125 50.8444 149.11 51.4334 148.088 52.1603C147.129 52.798 146.249 53.5468 145.467 54.3911C144.839 55.0946 144.325 55.8917 143.943 56.7535C143.625 57.5554 143.428 58.4002 143.36 59.26C143.307 59.0258 143.292 58.7846 143.316 58.5456C143.355 57.9013 143.495 57.267 143.73 56.6658C144.091 55.7639 144.602 54.9292 145.241 54.1968C146.032 53.3122 146.934 52.5329 147.925 51.8783C148.959 51.1765 149.994 50.5875 150.922 50.0361C151.85 49.4846 152.671 48.9833 153.336 48.5196C154.652 47.6235 155.336 46.8465 155.38 46.8841Z" fill="#3D3D3D"/>
<path d="M148.301 39.5088C148.338 39.5715 147.273 40.1855 145.793 41.4764C145.423 41.8022 145.022 42.1594 144.627 42.5793C144.232 42.9991 143.811 43.4503 143.373 43.939C142.484 45.0302 141.691 46.1959 141.002 47.4231C140.336 48.6604 139.78 49.9542 139.341 51.2894C139.159 51.916 138.965 52.4988 138.858 53.0627C138.751 53.6267 138.626 54.153 138.551 54.6418C138.256 56.5844 138.306 57.8125 138.237 57.8125C138.196 57.5263 138.179 57.2369 138.187 56.9478C138.166 56.6118 138.166 56.2749 138.187 55.9389C138.187 55.5504 138.225 55.0992 138.3 54.6105C138.362 54.0715 138.452 53.5361 138.57 53.0063C138.676 52.4298 138.858 51.8345 139.034 51.1954C139.872 48.4585 141.263 45.9226 143.122 43.7448C143.567 43.256 143.974 42.786 144.376 42.385C144.777 41.984 145.203 41.6143 145.586 41.3009C145.925 41.0116 146.279 40.7398 146.646 40.4863C146.915 40.2814 147.197 40.0951 147.492 39.9286C147.746 39.7601 148.017 39.6193 148.301 39.5088Z" fill="#3D3D3D"/>
<path d="M131.986 36.1501C131.998 36.4183 131.983 36.687 131.942 36.9522C131.892 37.4598 131.829 38.2055 131.76 39.1141C131.394 43.8821 131.56 48.6761 132.256 53.4074C132.387 54.3098 132.506 55.0492 132.588 55.5505C132.645 55.8123 132.679 56.0786 132.688 56.3463C132.584 56.0987 132.509 55.8401 132.463 55.5756C132.337 55.0805 132.187 54.3223 132.03 53.4388C131.203 48.7034 131.034 43.8767 131.528 39.0953C131.629 38.1804 131.729 37.441 131.817 36.9334C131.844 36.6669 131.901 36.4042 131.986 36.1501Z" fill="#3D3D3D"/>
<path d="M121.339 32.9355C121.37 33.269 121.37 33.6047 121.339 33.9381C121.339 34.5648 121.339 35.5172 121.339 36.6765C121.379 39.6812 121.589 42.6812 121.966 45.6623C122.372 48.6441 122.948 51.6003 123.691 54.5166C123.973 55.6319 124.217 56.5406 124.393 57.1609C124.5 57.479 124.578 57.8062 124.625 58.1385C124.484 57.834 124.364 57.5199 124.267 57.1985C124.054 56.5719 123.778 55.6883 123.471 54.5729C121.862 48.7455 121.076 42.7216 121.139 36.6765C121.139 35.5172 121.189 34.5773 121.239 33.9319C121.246 33.5976 121.28 33.2645 121.339 32.9355Z" fill="#3D3D3D"/>
<path d="M101.237 40.292C101.482 40.4961 101.706 40.7227 101.908 40.9687C102.328 41.4136 102.911 42.0841 103.614 42.9176C105.443 45.1003 107.161 47.3737 108.761 49.729C110.642 52.4924 112.172 55.0992 113.213 57.0229C113.727 57.9879 114.135 58.7712 114.398 59.3289C114.549 59.6061 114.677 59.8953 114.781 60.1936C114.586 59.9436 114.42 59.6725 114.285 59.3853C113.953 58.8025 113.527 58.0443 113.031 57.1357C111.947 55.2558 110.392 52.6679 108.517 49.917C106.642 47.1661 104.818 44.7661 103.457 43.0617L101.839 41.0502C101.615 40.8171 101.413 40.5632 101.237 40.292Z" fill="#3D3D3D"/>
<path d="M100.172 83.2347C97.7766 75.0886 99.0369 69.3737 100.604 63.5461C100.604 63.5461 119.96 52.0036 135.911 55.6506C135.911 55.6506 145.875 57.6496 147.16 62.8192L147.442 80.4149C147.442 80.4149 146.357 73.4531 131.848 72.8954C117.339 72.3377 100.172 83.2347 100.172 83.2347Z" fill="#FC8019"/>
<path d="M122.117 101.513C122.241 100.953 122.567 100.458 123.032 100.122C123.457 99.8058 123.974 99.6386 124.504 99.6465C125.034 99.6544 125.546 99.8371 125.961 100.166C126.389 100.547 126.709 101.035 126.886 101.58C127.064 102.125 127.093 102.708 126.97 103.268C126.703 103.59 126.37 103.852 125.994 104.036C125.618 104.219 125.207 104.321 124.788 104.333C124.654 104.333 124.523 104.333 124.393 104.333C123.734 104.285 123.118 103.989 122.669 103.506C122.429 103.239 122.255 102.92 122.159 102.574C122.063 102.229 122.049 101.866 122.117 101.513Z" fill="#FF9A6C"/>
<path d="M123.402 98.6935C123.653 98.6935 123.446 100.367 124.719 101.726C125.992 103.086 127.785 103.13 127.766 103.362C127.766 103.468 127.333 103.638 126.581 103.562C125.608 103.457 124.702 103.014 124.023 102.309C123.379 101.633 123.022 100.735 123.026 99.8027C123.051 99.057 123.289 98.6685 123.402 98.6935Z" fill="#3D3D3D"/>
<path d="M146.721 62.882C146.62 62.7454 146.534 62.5984 146.464 62.4434C146.376 62.2993 146.301 62.105 146.163 61.9045C146.025 61.704 145.868 61.4659 145.699 61.2027C144.613 59.78 143.217 58.6229 141.617 57.8189C139.243 56.6261 136.677 55.8623 134.036 55.563C130.812 55.127 127.543 55.127 124.318 55.563C122.648 55.785 120.993 56.1115 119.364 56.5406C117.784 56.9479 116.292 57.4555 114.862 57.9317C112.016 58.8904 109.483 59.8554 107.376 60.7076C105.269 61.5599 103.576 62.2867 102.404 62.788L101.056 63.3645C100.902 63.4382 100.743 63.499 100.579 63.5463C100.721 63.4505 100.873 63.3687 101.031 63.3019L102.354 62.6753C103.507 62.1426 105.188 61.3781 107.288 60.5009C109.389 59.6236 111.915 58.621 114.768 57.6497C116.192 57.1672 117.69 56.6534 119.283 56.2398C120.932 55.8003 122.607 55.4675 124.299 55.2435C127.553 54.7974 130.852 54.7974 134.105 55.2435C136.775 55.5662 139.365 56.362 141.755 57.5933C143.371 58.4293 144.765 59.6362 145.824 61.115C145.994 61.3781 146.138 61.6225 146.269 61.8356C146.372 62.0163 146.464 62.2024 146.545 62.3933C146.619 62.5503 146.678 62.714 146.721 62.882Z" fill="#3D3D3D"/>
</g>
<defs>
<clipPath id="clip0_1_4005">
<rect width="302" height="289" fill="white"/>
</clipPath>
</defs>
</svg>
