<svg width="50" height="50" viewBox="0 0 50 50" fill="none" xmlns="http://www.w3.org/2000/svg">
<path d="M13.9584 19.291L25 25.6868L35.9584 19.3327" stroke="#FC8019" stroke-width="2" stroke-linecap="round" stroke-linejoin="round"/>
<path d="M25 37.0202V25.666" stroke="#FC8019" stroke-width="2" stroke-linecap="round" stroke-linejoin="round"/>
<path d="M22.4167 13.1042L15.75 16.8125C14.25 17.6459 13 19.75 13 21.4792V28.5417C13 30.2709 14.2292 32.375 15.75 33.2084L22.4167 36.9167C23.8334 37.7084 26.1667 37.7084 27.6042 36.9167L34.2709 33.2084C35.7709 32.375 37.0208 30.2709 37.0208 28.5417V21.4584C37.0208 19.7292 35.7917 17.625 34.2709 16.7917L27.6042 13.0834C26.1667 12.2917 23.8334 12.2917 22.4167 13.1042Z" stroke="#FC8019" stroke-width="2" stroke-linecap="round" stroke-linejoin="round"/>
<path d="M45.8333 31.25C45.8333 39.3125 39.3125 45.8333 31.25 45.8333L33.4375 42.1875" stroke="#FC8019" stroke-width="2" stroke-linecap="round" stroke-linejoin="round"/>
<path d="M4.16669 18.7493C4.16669 10.6868 10.6875 4.16602 18.75 4.16602L16.5625 7.81185" stroke="#FC8019" stroke-width="2" stroke-linecap="round" stroke-linejoin="round"/>
</svg>
