<svg width="195" height="56" viewBox="0 0 195 56" fill="none" xmlns="http://www.w3.org/2000/svg">
<path d="M193.917 49.5418C193.917 52.5261 191.434 54.9434 188.364 54.9434H6.64339C3.57438 54.9434 1.08325 52.5261 1.08325 49.5418V6.46535C1.08325 3.48245 3.57438 1.05664 6.64339 1.05664H188.362C191.434 1.05664 193.915 3.48245 193.915 6.46535L193.917 49.5418Z" fill="black"/>
<path d="M187.778 1.12175C191.122 1.12175 193.843 3.759 193.843 7V49C193.843 52.241 191.122 54.8783 187.778 54.8783H7.22222C3.87833 54.8783 1.15736 52.241 1.15736 49V7C1.15736 3.759 3.87833 1.12175 7.22222 1.12175H187.778ZM187.778 3.8147e-06H7.22222C3.25181 3.8147e-06 0 3.15175 0 7V49C0 52.8483 3.25181 56 7.22222 56H187.778C191.748 56 195 52.8483 195 49V7C195 3.15175 191.748 3.8147e-06 187.778 3.8147e-06Z" fill="#A6A6A6"/>
<path d="M43.5183 27.6969C43.4764 23.1847 47.3302 20.9895 47.5064 20.8873C45.3239 17.8031 41.941 17.3817 40.7522 17.3481C37.911 17.0583 35.155 18.9959 33.7077 18.9959C32.2314 18.9959 30.0027 17.3761 27.6005 17.4237C24.5094 17.4699 21.6177 19.2045 20.0317 21.8981C16.7585 27.3903 19.1997 35.4613 22.3355 39.9007C23.9042 42.0749 25.7372 44.5025 28.1364 44.4171C30.4837 44.3233 31.3604 42.9667 34.193 42.9667C36.9995 42.9667 37.8229 44.4171 40.2698 44.3625C42.7889 44.3233 44.3749 42.1785 45.8887 39.9847C47.7014 37.4927 48.4294 35.0385 48.4583 34.9125C48.3991 34.8929 43.566 33.1051 43.5183 27.6969Z" fill="white"/>
<path d="M38.8961 14.4277C40.1585 12.8975 41.0223 10.8157 40.7825 8.70312C38.9553 8.78152 36.6702 9.92813 35.3543 11.4247C34.1901 12.7435 33.1501 14.9051 33.4188 16.9379C35.4713 17.0863 37.5788 15.9341 38.8961 14.4277Z" fill="white"/>
<path d="M70.8501 14.0122C70.8501 15.66 70.3402 16.9004 69.3219 17.7334C68.3787 18.502 67.0382 18.887 65.302 18.887C64.4411 18.887 63.7044 18.8506 63.0876 18.7778V9.77438C63.8922 9.64838 64.7589 9.58398 65.6949 9.58398C67.3488 9.58398 68.5953 9.93258 69.436 10.6298C70.3778 11.418 70.8501 12.545 70.8501 14.0122ZM69.254 14.0528C69.254 12.9846 68.9622 12.1656 68.3787 11.5944C67.7951 11.0246 66.9429 10.739 65.8205 10.739C65.3439 10.739 64.938 10.7698 64.6014 10.8342V17.6788C64.7878 17.7068 65.1286 17.7194 65.6241 17.7194C66.7825 17.7194 67.6767 17.4072 68.3064 16.7828C68.9362 16.1584 69.254 15.2484 69.254 14.0528Z" fill="white"/>
<path d="M79.313 15.4519C79.313 16.4669 79.014 17.2985 78.416 17.9509C77.7892 18.6215 76.9586 18.9561 75.9215 18.9561C74.9219 18.9561 74.126 18.6355 73.5324 17.9915C72.9402 17.3489 72.644 16.5383 72.644 15.5611C72.644 14.5391 72.9488 13.7005 73.5613 13.0495C74.1737 12.3985 74.997 12.0723 76.0342 12.0723C77.0337 12.0723 77.8368 12.3929 78.4449 13.0355C79.0227 13.6599 79.313 14.4663 79.313 15.4519ZM77.7429 15.4995C77.7429 14.8905 77.6072 14.3683 77.337 13.9329C77.0193 13.4065 76.5672 13.1433 75.9793 13.1433C75.3712 13.1433 74.9089 13.4065 74.5912 13.9329C74.3196 14.3683 74.1853 14.8989 74.1853 15.5261C74.1853 16.1351 74.321 16.6573 74.5912 17.0927C74.919 17.6191 75.3755 17.8823 75.9648 17.8823C76.5426 17.8823 76.9962 17.6149 77.3226 17.0787C77.6028 16.6349 77.7429 16.1085 77.7429 15.4995Z" fill="white"/>
<path d="M90.6607 12.2051L88.5302 18.8047H87.1435L86.2609 15.9389C86.0371 15.2235 85.8551 14.5123 85.7135 13.8067H85.686C85.5546 14.5319 85.3726 15.2417 85.1386 15.9389L84.2012 18.8047H82.7986L80.7952 12.2051H82.3508L83.1207 15.3425C83.307 16.0845 83.4602 16.7915 83.5829 17.4607H83.6104C83.723 16.9091 83.9094 16.2063 84.1723 15.3565L85.1386 12.2065H86.3722L87.298 15.2893C87.5219 16.0411 87.7039 16.7649 87.844 17.4621H87.8859C87.9885 16.7831 88.1431 16.0593 88.3482 15.2893L89.1744 12.2065H90.6607V12.2051Z" fill="white"/>
<path d="M98.5082 18.8046H96.9944V15.0246C96.9944 13.8598 96.538 13.2774 95.6222 13.2774C95.173 13.2774 94.8105 13.437 94.5288 13.7576C94.25 14.0782 94.1085 14.4562 94.1085 14.8888V18.8032H92.5947V14.0908C92.5947 13.5112 92.5759 12.8826 92.5398 12.2022H93.8701L93.9409 13.234H93.9828C94.159 12.9134 94.4219 12.6488 94.7671 12.4374C95.1773 12.191 95.6367 12.0664 96.1393 12.0664C96.7749 12.0664 97.3036 12.2652 97.7239 12.6642C98.2468 13.1528 98.5082 13.8822 98.5082 14.851V18.8046V18.8046Z" fill="white"/>
<path d="M102.683 18.8055H101.17V9.17773H102.683V18.8055Z" fill="white"/>
<path d="M111.595 15.4519C111.595 16.4669 111.296 17.2985 110.698 17.9509C110.071 18.6215 109.239 18.9561 108.203 18.9561C107.202 18.9561 106.407 18.6355 105.814 17.9915C105.222 17.3489 104.926 16.5383 104.926 15.5611C104.926 14.5391 105.231 13.7005 105.843 13.0495C106.456 12.3985 107.279 12.0723 108.315 12.0723C109.316 12.0723 110.117 12.3929 110.727 13.0355C111.305 13.6599 111.595 14.4663 111.595 15.4519ZM110.023 15.4995C110.023 14.8905 109.888 14.3683 109.618 13.9329C109.301 13.4065 108.848 13.1433 108.261 13.1433C107.652 13.1433 107.189 13.4065 106.873 13.9329C106.602 14.3683 106.467 14.8989 106.467 15.5261C106.467 16.1351 106.603 16.6573 106.873 17.0927C107.201 17.6191 107.657 17.8823 108.247 17.8823C108.825 17.8823 109.277 17.6149 109.603 17.0787C109.885 16.6349 110.023 16.1085 110.023 15.4995Z" fill="white"/>
<path d="M118.921 18.8063H117.562L117.449 18.0461H117.408C116.942 18.6523 116.279 18.9561 115.419 18.9561C114.776 18.9561 114.256 18.7559 113.864 18.3583C113.509 17.9971 113.331 17.5477 113.331 17.0143C113.331 16.2079 113.678 15.5933 114.376 15.1677C115.072 14.7421 116.051 14.5335 117.312 14.5433V14.4201C117.312 13.5507 116.841 13.1167 115.898 13.1167C115.226 13.1167 114.634 13.2805 114.123 13.6053L113.815 12.6421C114.448 12.2627 115.229 12.0723 116.151 12.0723C117.93 12.0723 118.823 12.9823 118.823 14.8023V17.2327C118.823 17.8921 118.856 18.4171 118.921 18.8063ZM117.35 16.5383V15.5205C115.68 15.4925 114.845 15.9363 114.845 16.8505C114.845 17.1949 114.94 17.4525 115.135 17.6247C115.33 17.7969 115.579 17.8823 115.875 17.8823C116.207 17.8823 116.518 17.7801 116.801 17.5771C117.085 17.3727 117.26 17.1137 117.325 16.7959C117.341 16.7245 117.35 16.6377 117.35 16.5383Z" fill="white"/>
<path d="M127.523 18.8055H126.18L126.109 17.7457H126.067C125.638 18.5521 124.907 18.9553 123.88 18.9553C123.06 18.9553 122.376 18.6431 121.835 18.0187C121.293 17.3943 121.023 16.5837 121.023 15.5883C121.023 14.5201 121.316 13.6549 121.906 12.9941C122.476 12.3781 123.175 12.0701 124.007 12.0701C124.921 12.0701 125.561 12.3683 125.925 12.9661H125.954V9.17773H127.469V17.0275C127.469 17.6701 127.487 18.2623 127.523 18.8055ZM125.954 16.0223V14.9219C125.954 14.7315 125.94 14.5775 125.912 14.4599C125.827 14.1071 125.644 13.8103 125.365 13.5709C125.083 13.3315 124.744 13.2111 124.352 13.2111C123.788 13.2111 123.346 13.4281 123.021 13.8635C122.698 14.2989 122.535 14.8547 122.535 15.5337C122.535 16.1861 122.69 16.7153 123 17.1227C123.328 17.5567 123.77 17.7737 124.323 17.7737C124.82 17.7737 125.218 17.5931 125.519 17.2305C125.811 16.8959 125.954 16.4927 125.954 16.0223Z" fill="white"/>
<path d="M140.47 15.4519C140.47 16.4669 140.171 17.2985 139.573 17.9509C138.946 18.6215 138.117 18.9561 137.078 18.9561C136.08 18.9561 135.284 18.6355 134.689 17.9915C134.097 17.3489 133.801 16.5383 133.801 15.5611C133.801 14.5391 134.105 13.7005 134.718 13.0495C135.33 12.3985 136.154 12.0723 137.192 12.0723C138.19 12.0723 138.995 12.3929 139.601 13.0355C140.179 13.6599 140.47 14.4663 140.47 15.4519ZM138.901 15.4995C138.901 14.8905 138.765 14.3683 138.495 13.9329C138.176 13.4065 137.725 13.1433 137.136 13.1433C136.529 13.1433 136.067 13.4065 135.748 13.9329C135.476 14.3683 135.342 14.8989 135.342 15.5261C135.342 16.1351 135.478 16.6573 135.748 17.0927C136.076 17.6191 136.532 17.8823 137.121 17.8823C137.699 17.8823 138.154 17.6149 138.481 17.0787C138.759 16.6349 138.901 16.1085 138.901 15.4995Z" fill="white"/>
<path d="M148.609 18.8046H147.097V15.0246C147.097 13.8598 146.64 13.2774 145.723 13.2774C145.274 13.2774 144.911 13.437 144.631 13.7576C144.351 14.0782 144.211 14.4562 144.211 14.8888V18.8032H142.695V14.0908C142.695 13.5112 142.678 12.8826 142.642 12.2022H143.971L144.042 13.234H144.083C144.261 12.9134 144.524 12.6488 144.868 12.4374C145.279 12.191 145.737 12.0664 146.241 12.0664C146.876 12.0664 147.404 12.2652 147.824 12.6642C148.349 13.1528 148.609 13.8822 148.609 14.851V18.8046V18.8046Z" fill="white"/>
<path d="M158.797 13.3051H157.13V16.5111C157.13 17.3259 157.426 17.7333 158.012 17.7333C158.284 17.7333 158.509 17.7109 158.687 17.6647L158.726 18.7777C158.427 18.8869 158.034 18.9415 157.55 18.9415C156.952 18.9415 156.487 18.7651 156.15 18.4123C155.812 18.0595 155.645 17.4659 155.645 16.6329V13.3051H154.65V12.2061H155.645V10.9965L157.128 10.5625V12.2047H158.795V13.3051H158.797Z" fill="white"/>
<path d="M166.81 18.8055H165.295V15.0535C165.295 13.8705 164.839 13.2783 163.924 13.2783C163.222 13.2783 162.743 13.6213 162.48 14.3073C162.435 14.4515 162.409 14.6279 162.409 14.8351V18.8041H160.897V9.17773H162.409V13.1551H162.438C162.915 12.4313 163.598 12.0701 164.483 12.0701C165.11 12.0701 165.629 12.2689 166.04 12.6679C166.553 13.1649 166.81 13.9041 166.81 14.8813V18.8055V18.8055Z" fill="white"/>
<path d="M175.077 15.1932C175.077 15.4564 175.057 15.6776 175.021 15.8582H170.481C170.501 16.5106 170.718 17.0076 171.138 17.352C171.522 17.66 172.018 17.814 172.624 17.814C173.296 17.814 173.908 17.7104 174.46 17.5018L174.697 18.521C174.051 18.7926 173.292 18.9284 172.412 18.9284C171.357 18.9284 170.527 18.6274 169.926 18.0254C169.322 17.4234 169.023 16.6156 169.023 15.602C169.023 14.6066 169.302 13.7778 169.864 13.117C170.45 12.4114 171.243 12.0586 172.244 12.0586C173.224 12.0586 173.968 12.4114 174.47 13.117C174.876 13.677 175.077 14.37 175.077 15.1932ZM173.632 14.8138C173.644 14.3784 173.544 14.0032 173.339 13.6868C173.076 13.2794 172.676 13.075 172.135 13.075C171.641 13.075 171.238 13.2738 170.93 13.6728C170.679 13.9906 170.53 14.37 170.481 14.8138H173.632Z" fill="white"/>
<path d="M77.4871 44.1058H74.2068L72.4099 38.6332H66.1641L64.4525 44.1058H61.2588L67.4468 25.4746H71.2688L77.4871 44.1058ZM71.8682 36.3372L70.2432 31.4722C70.0713 30.9752 69.7492 29.8048 69.274 27.9624H69.2162C69.027 28.7548 68.7222 29.9252 68.3033 31.4722L66.7072 36.3372H71.8682V36.3372Z" fill="white"/>
<path d="M93.4006 37.2223C93.4006 39.5071 92.7636 41.3131 91.4896 42.6389C90.3485 43.8191 88.9315 44.4085 87.24 44.4085C85.4143 44.4085 84.1027 43.7729 83.3039 42.5017H83.2462V49.5787H80.1666V35.0929C80.1666 33.6565 80.1276 32.1823 80.0525 30.6703H82.7608L82.9327 32.7997H82.9905C84.0175 31.1953 85.576 30.3945 87.6676 30.3945C89.3027 30.3945 90.6677 31.0203 91.7597 32.2733C92.8546 33.5277 93.4006 35.1769 93.4006 37.2223ZM90.2633 37.3315C90.2633 36.0239 89.9599 34.9459 89.3504 34.0975C88.6845 33.2127 87.7904 32.7703 86.6695 32.7703C85.9097 32.7703 85.2193 33.0167 84.6025 33.5025C83.9843 33.9925 83.5798 34.6323 83.3906 35.4247C83.2953 35.7943 83.2476 36.0967 83.2476 36.3347V38.5747C83.2476 39.5519 83.5567 40.3765 84.1749 41.0499C84.7932 41.7233 85.5963 42.0593 86.5843 42.0593C87.7442 42.0593 88.6469 41.6253 89.2926 40.7601C89.9397 39.8935 90.2633 38.7511 90.2633 37.3315Z" fill="white"/>
<path d="M109.343 37.2223C109.343 39.5071 108.706 41.3131 107.431 42.6389C106.291 43.8191 104.874 44.4085 103.182 44.4085C101.357 44.4085 100.045 43.7729 99.2478 42.5017H99.19V49.5787H96.1105V35.0929C96.1105 33.6565 96.0714 32.1823 95.9963 30.6703H98.7047L98.8766 32.7997H98.9343C99.9599 31.1953 101.518 30.3945 103.611 30.3945C105.245 30.3945 106.61 31.0203 107.705 32.2733C108.796 33.5277 109.343 35.1769 109.343 37.2223ZM106.206 37.3315C106.206 36.0239 105.901 34.9459 105.291 34.0975C104.625 33.2127 103.734 32.7703 102.612 32.7703C101.851 32.7703 101.162 33.0167 100.543 33.5025C99.9252 33.9925 99.5222 34.6323 99.333 35.4247C99.2391 35.7943 99.19 36.0967 99.19 36.3347V38.5747C99.19 39.5519 99.4991 40.3765 100.114 41.0499C100.733 41.7219 101.536 42.0593 102.527 42.0593C103.687 42.0593 104.589 41.6253 105.235 40.7601C105.882 39.8935 106.206 38.7511 106.206 37.3315Z" fill="white"/>
<path d="M127.167 38.8806C127.167 40.4654 126.6 41.7548 125.46 42.7502C124.208 43.838 122.464 44.3812 120.224 44.3812C118.155 44.3812 116.497 43.9948 115.242 43.2206L115.956 40.7328C117.308 41.5252 118.791 41.9228 120.407 41.9228C121.567 41.9228 122.47 41.668 123.119 41.1612C123.764 40.6544 124.086 39.974 124.086 39.1256C124.086 38.3696 123.82 37.7326 123.287 37.216C122.757 36.6994 121.872 36.2192 120.636 35.7754C117.27 34.5588 115.589 32.7766 115.589 30.433C115.589 28.9014 116.178 27.6456 117.358 26.6684C118.534 25.6898 120.102 25.2012 122.064 25.2012C123.813 25.2012 125.266 25.4966 126.426 26.086L125.656 28.5192C124.573 27.948 123.348 27.6624 121.977 27.6624C120.894 27.6624 120.048 27.9214 119.441 28.4366C118.928 28.8972 118.671 29.4586 118.671 30.1236C118.671 30.86 118.964 31.469 119.554 31.9478C120.066 32.3902 120.998 32.869 122.35 33.3856C124.004 34.031 125.219 34.7856 126 35.6508C126.779 36.5132 127.167 37.5926 127.167 38.8806Z" fill="white"/>
<path d="M137.349 32.9116H133.955V39.4342C133.955 41.0932 134.553 41.922 135.752 41.922C136.302 41.922 136.759 41.8758 137.12 41.7834L137.205 44.05C136.598 44.2698 135.799 44.3804 134.81 44.3804C133.594 44.3804 132.643 44.0206 131.957 43.3024C131.274 42.5828 130.93 41.376 130.93 39.6806V32.9088H128.908V30.6688H130.93V28.209L133.955 27.3242V30.6688H137.349V32.9116Z" fill="white"/>
<path d="M152.665 37.2775C152.665 39.3425 152.055 41.0379 150.839 42.3637C149.563 43.7287 147.871 44.4091 145.76 44.4091C143.726 44.4091 142.107 43.7553 140.9 42.4477C139.692 41.1401 139.088 39.4895 139.088 37.5001C139.088 35.4183 139.709 33.7131 140.956 32.3873C142.2 31.0601 143.878 30.3965 145.988 30.3965C148.022 30.3965 149.659 31.0503 150.894 32.3593C152.075 33.6291 152.665 35.2685 152.665 37.2775ZM149.47 37.3741C149.47 36.1351 149.197 35.0725 148.643 34.1863C147.998 33.1139 147.075 32.5791 145.879 32.5791C144.641 32.5791 143.7 33.1153 143.055 34.1863C142.502 35.0739 142.229 36.1533 142.229 37.4301C142.229 38.6691 142.502 39.7317 143.055 40.6165C143.721 41.6889 144.651 42.2237 145.851 42.2237C147.027 42.2237 147.95 41.6777 148.616 40.5885C149.184 39.6855 149.47 38.6117 149.47 37.3741Z" fill="white"/>
<path d="M162.675 33.2953C162.37 33.2407 162.045 33.2127 161.704 33.2127C160.621 33.2127 159.783 33.6089 159.193 34.4027C158.681 35.1027 158.424 35.9875 158.424 37.0557V44.1047H155.345L155.374 34.9011C155.374 33.3527 155.335 31.9429 155.259 30.6717H157.941L158.054 33.2421H158.139C158.464 32.3587 158.977 31.6475 159.679 31.1141C160.365 30.6339 161.106 30.3945 161.905 30.3945C162.189 30.3945 162.446 30.4141 162.675 30.4491V33.2953Z" fill="white"/>
<path d="M176.447 36.7517C176.447 37.2865 176.411 37.7373 176.335 38.1055H167.096C167.132 39.4327 167.578 40.4477 168.436 41.1477C169.215 41.7735 170.222 42.0871 171.458 42.0871C172.826 42.0871 174.074 41.8757 175.196 41.4515L175.679 43.5235C174.367 44.0779 172.819 44.3537 171.032 44.3537C168.883 44.3537 167.196 43.7405 165.968 42.5155C164.743 41.2905 164.129 39.6455 164.129 37.5819C164.129 35.5561 164.7 33.8691 165.842 32.5237C167.038 31.0873 168.655 30.3691 170.688 30.3691C172.686 30.3691 174.198 31.0873 175.225 32.5237C176.039 33.6647 176.447 35.0759 176.447 36.7517ZM173.511 35.9775C173.531 35.0927 173.33 34.3283 172.913 33.6829C172.38 32.8527 171.561 32.4383 170.459 32.4383C169.452 32.4383 168.633 32.8429 168.007 33.6549C167.495 34.3003 167.19 35.0745 167.096 35.9761H173.511V35.9775Z" fill="white"/>
</svg>
