<svg version="1.2" xmlns="http://www.w3.org/2000/svg" viewBox="0 0 28 28" width="28" height="28">
	<title>credit-card-svg</title>
	<style>
		.s0 { fill: #fc8019 } 
	</style>
	<g id="Layer">
		<g id="Layer 2">
			<path id="Layer" fill-rule="evenodd" class="s0" d="m26.3 5.6q0.1 0.1 0.1 0.1 0.1 0.1 0.1 0.2 0 0 0 0.1v5.2q0 0.6-0.1 1.2-0.2 0.6-0.4 1.1-0.3 0.6-0.7 1-0.3 0.5-0.8 0.9v6.3q0 0.3-0.1 0.7-0.2 0.3-0.4 0.6-0.3 0.2-0.6 0.4-0.4 0.1-0.7 0.1h-19.4q-0.3 0-0.7-0.1-0.3-0.2-0.6-0.4-0.2-0.3-0.4-0.6-0.1-0.4-0.1-0.7v-13.4q0-0.3 0.1-0.7 0.2-0.3 0.4-0.6 0.3-0.2 0.6-0.4 0.4-0.1 0.7-0.1h10.7q0.2 0 0.4 0.1 0.1 0.2 0.1 0.4 0 0.2-0.1 0.4-0.2 0.1-0.4 0.1h-10.7q-0.1 0-0.3 0.1-0.1 0-0.3 0.1-0.1 0.2-0.1 0.3-0.1 0.2-0.1 0.3v1.2h11.5q0.2 0 0.4 0.1 0.1 0.2 0.1 0.4 0 0.2-0.1 0.4-0.2 0.1-0.4 0.1h-11.5v11.2q0 0.1 0.1 0.3 0 0.1 0.1 0.3 0.2 0.1 0.3 0.1 0.2 0.1 0.3 0.1h19.4q0.1 0 0.3-0.1 0.1 0 0.3-0.1 0.1-0.2 0.1-0.3 0.1-0.2 0.1-0.3v-5.6l-2.2 1.3q-0.1 0.1-0.2 0.1 0 0-0.1 0-0.1 0-0.1 0-0.1 0-0.2-0.1l-2.5-1.5q-0.6-0.4-1.1-0.9-0.5-0.5-0.9-1.1-0.3-0.6-0.5-1.3-0.2-0.7-0.2-1.4v-5.2q0-0.1 0-0.1 0-0.1 0.1-0.2 0 0 0.1-0.1 0 0 0.1-0.1l5-2q0.1 0 0.1 0 0.1 0 0.1 0 0 0 0.1 0 0 0 0.1 0l5 2q0.1 0.1 0.1 0.1zm-0.8 0.7l-4.5-1.8-4.5 1.8v4.9q0 0.6 0.2 1.1 0.1 0.6 0.4 1.1 0.3 0.5 0.7 0.9 0.4 0.4 0.9 0.7l2.3 1.4 2.3-1.4q0.5-0.3 0.9-0.7 0.4-0.4 0.7-0.9 0.3-0.5 0.4-1.1 0.2-0.5 0.2-1.1z"/>
			<path id="Layer" class="s0" d="m19.4 9.7q-0.2-0.1-0.4-0.1-0.2 0-0.4 0.1-0.1 0.2-0.1 0.4 0 0.2 0.1 0.3l1.4 1.4q0.1 0 0.1 0.1 0.1 0 0.2 0 0.1 0 0.2 0 0.1-0.1 0.2-0.1l2.7-2.7q0.1-0.1 0.1-0.3 0-0.3-0.1-0.4-0.2-0.1-0.4-0.1-0.2 0-0.4 0.1l-2.3 2.3zm-14.3 9.8q-0.2 0-0.4 0.1-0.1 0.2-0.1 0.4 0 0.2 0.1 0.3 0.2 0.2 0.4 0.2h4q0.2 0 0.3-0.2 0.2-0.1 0.2-0.3 0-0.2-0.2-0.4-0.1-0.1-0.3-0.1z"/>
		</g>
	</g>
	<g id="Layer copy 3">
		<g id="Layer 2">
			<path id="Layer" fill-rule="evenodd" class="s0" d="m26.3 5.6q0.1 0.1 0.1 0.1 0.1 0.1 0.1 0.2 0 0 0 0.1v5.2q0 0.6-0.1 1.2-0.2 0.6-0.4 1.1-0.3 0.6-0.7 1-0.3 0.5-0.8 0.9v6.3q0 0.3-0.1 0.7-0.2 0.3-0.4 0.6-0.3 0.2-0.6 0.4-0.4 0.1-0.7 0.1h-19.4q-0.3 0-0.7-0.1-0.3-0.2-0.6-0.4-0.2-0.3-0.4-0.6-0.1-0.4-0.1-0.7v-13.4q0-0.3 0.1-0.7 0.2-0.3 0.4-0.6 0.3-0.2 0.6-0.4 0.4-0.1 0.7-0.1h10.7q0.2 0 0.4 0.1 0.1 0.2 0.1 0.4 0 0.2-0.1 0.4-0.2 0.1-0.4 0.1h-10.7q-0.1 0-0.3 0.1-0.1 0-0.3 0.1-0.1 0.2-0.1 0.3-0.1 0.2-0.1 0.3v1.2h11.5q0.2 0 0.4 0.1 0.1 0.2 0.1 0.4 0 0.2-0.1 0.4-0.2 0.1-0.4 0.1h-11.5v11.2q0 0.1 0.1 0.3 0 0.1 0.1 0.3 0.2 0.1 0.3 0.1 0.2 0.1 0.3 0.1h19.4q0.1 0 0.3-0.1 0.1 0 0.3-0.1 0.1-0.2 0.1-0.3 0.1-0.2 0.1-0.3v-5.6l-2.2 1.3q-0.1 0.1-0.2 0.1 0 0-0.1 0-0.1 0-0.1 0-0.1 0-0.2-0.1l-2.5-1.5q-0.6-0.4-1.1-0.9-0.5-0.5-0.9-1.1-0.3-0.6-0.5-1.3-0.2-0.7-0.2-1.4v-5.2q0-0.1 0-0.1 0-0.1 0.1-0.2 0 0 0.1-0.1 0 0 0.1-0.1l5-2q0.1 0 0.1 0 0.1 0 0.1 0 0 0 0.1 0 0 0 0.1 0l5 2q0.1 0.1 0.1 0.1zm-0.8 0.7l-4.5-1.8-4.5 1.8v4.9q0 0.6 0.2 1.1 0.1 0.6 0.4 1.1 0.3 0.5 0.7 0.9 0.4 0.4 0.9 0.7l2.3 1.4 2.3-1.4q0.5-0.3 0.9-0.7 0.4-0.4 0.7-0.9 0.3-0.5 0.4-1.1 0.2-0.5 0.2-1.1z"/>
			<path id="Layer" class="s0" d="m19.4 9.7q-0.2-0.1-0.4-0.1-0.2 0-0.4 0.1-0.1 0.2-0.1 0.4 0 0.2 0.1 0.3l1.4 1.4q0.1 0 0.1 0.1 0.1 0 0.2 0 0.1 0 0.2 0 0.1-0.1 0.2-0.1l2.7-2.7q0.1-0.1 0.1-0.3 0-0.3-0.1-0.4-0.2-0.1-0.4-0.1-0.2 0-0.4 0.1l-2.3 2.3zm-14.3 9.8q-0.2 0-0.4 0.1-0.1 0.2-0.1 0.4 0 0.2 0.1 0.3 0.2 0.2 0.4 0.2h4q0.2 0 0.3-0.2 0.2-0.1 0.2-0.3 0-0.2-0.2-0.4-0.1-0.1-0.3-0.1z"/>
		</g>
	</g>
</svg>