<svg version="1.2" xmlns="http://www.w3.org/2000/svg" viewBox="0 0 27 20" width="27" height="20">
	<title>crown-svg</title>
	<style>
		.s0 { fill: #ffffff } 
	</style>
	<g id="crown">
		<path id="Layer" class="s0" d="m27 7.8l-2.5 10.9q0 0.2-0.1 0.3-0.1 0.2-0.2 0.3-0.2 0.1-0.3 0.1-0.2 0.1-0.4 0.1h-19.1q-0.2 0-0.4-0.1-0.1 0-0.3-0.1-0.1-0.1-0.2-0.3-0.1-0.1-0.1-0.3l-2.4-10.9q0-0.1 0-0.2 0-0.2 0-0.3 0.1-0.1 0.2-0.3 0-0.1 0.2-0.2 0.1 0 0.2-0.1 0.1-0.1 0.3-0.1 0.1 0 0.3 0 0.1 0.1 0.2 0.1l5.9 2.9 4.8-8.6q0.1-0.2 0.4-0.4 0.2-0.1 0.5-0.1 0.2 0 0.5 0.1 0.2 0.2 0.3 0.4l4.9 8.6 5.9-2.9q0.2-0.1 0.5-0.1 0.3 0 0.5 0.2 0.3 0.2 0.4 0.5 0.1 0.3 0 0.5z"/>
	</g>
</svg>