<svg version="1.2" xmlns="http://www.w3.org/2000/svg" viewBox="0 0 608 12" width="608" height="12">
	<title>dots-design-svg</title>
	<defs>
		<clipPath clipPathUnits="userSpaceOnUse" id="cp1">
			<path d="m0 0h608v12h-608z"/>
		</clipPath>
	</defs>
	<style>
		.s0 { fill: #f5f5f5 } 
	</style>
	<filter id="f0">
		<feFlood flood-color="#f9f9f9" flood-opacity="1" />
		<feBlend mode="normal" in2="SourceGraphic"/>
		<feComposite in2="SourceAlpha" operator="in" />
	</filter>
	<g id="Clip-Path" clip-path="url(#cp1)" filter="url(#f0)">
		<g id="Layer">
			<path id="Layer" class="s0" d="m10.5 23c-5.8 0-10.5-5.1-10.5-11.5 0-6.4 4.7-11.5 10.5-11.5 5.8 0 10.5 5.1 10.5 11.5 0 6.4-4.7 11.5-10.5 11.5z"/>
			<path id="Layer" class="s0" d="m36 23c-5.5 0-10-5.1-10-11.5 0-6.4 4.5-11.5 10-11.5 5.5 0 10 5.1 10 11.5 0 6.4-4.5 11.5-10 11.5z"/>
			<path id="Layer" class="s0" d="m61.5 23c-5.8 0-10.5-5.1-10.5-11.5 0-6.4 4.7-11.5 10.5-11.5 5.8 0 10.5 5.1 10.5 11.5 0 6.4-4.7 11.5-10.5 11.5z"/>
			<path id="Layer" class="s0" d="m87 23c-5.5 0-10-5.1-10-11.5 0-6.4 4.5-11.5 10-11.5 5.5 0 10 5.1 10 11.5 0 6.4-4.5 11.5-10 11.5z"/>
			<path id="Layer" class="s0" d="m112.5 23c-5.8 0-10.5-5.1-10.5-11.5 0-6.4 4.7-11.5 10.5-11.5 5.8 0 10.5 5.1 10.5 11.5 0 6.4-4.7 11.5-10.5 11.5z"/>
			<path id="Layer" class="s0" d="m138 23c-5.5 0-10-5.1-10-11.5 0-6.4 4.5-11.5 10-11.5 5.5 0 10 5.1 10 11.5 0 6.4-4.5 11.5-10 11.5z"/>
			<path id="Layer" class="s0" d="m163.5 23c-5.8 0-10.5-5.1-10.5-11.5 0-6.4 4.7-11.5 10.5-11.5 5.8 0 10.5 5.1 10.5 11.5 0 6.4-4.7 11.5-10.5 11.5z"/>
			<path id="Layer" class="s0" d="m189 23c-5.5 0-10-5.1-10-11.5 0-6.4 4.5-11.5 10-11.5 5.5 0 10 5.1 10 11.5 0 6.4-4.5 11.5-10 11.5z"/>
			<path id="Layer" class="s0" d="m214.5 23c-5.8 0-10.5-5.1-10.5-11.5 0-6.4 4.7-11.5 10.5-11.5 5.8 0 10.5 5.1 10.5 11.5 0 6.4-4.7 11.5-10.5 11.5z"/>
			<path id="Layer" class="s0" d="m240 23c-5.5 0-10-5.1-10-11.5 0-6.4 4.5-11.5 10-11.5 5.5 0 10 5.1 10 11.5 0 6.4-4.5 11.5-10 11.5z"/>
			<path id="Layer" class="s0" d="m265.5 23c-5.8 0-10.5-5.1-10.5-11.5 0-6.4 4.7-11.5 10.5-11.5 5.8 0 10.5 5.1 10.5 11.5 0 6.4-4.7 11.5-10.5 11.5z"/>
			<path id="Layer" class="s0" d="m291.5 23c-5.8 0-10.5-5.1-10.5-11.5 0-6.4 4.7-11.5 10.5-11.5 5.8 0 10.5 5.1 10.5 11.5 0 6.4-4.7 11.5-10.5 11.5z"/>
			<path id="Layer" class="s0" d="m316.5 23c-5.8 0-10.5-5.1-10.5-11.5 0-6.4 4.7-11.5 10.5-11.5 5.8 0 10.5 5.1 10.5 11.5 0 6.4-4.7 11.5-10.5 11.5z"/>
			<path id="Layer" class="s0" d="m342.5 23c-5.8 0-10.5-5.1-10.5-11.5 0-6.4 4.7-11.5 10.5-11.5 5.8 0 10.5 5.1 10.5 11.5 0 6.4-4.7 11.5-10.5 11.5z"/>
			<path id="Layer" class="s0" d="m368 23c-5.5 0-10-5.1-10-11.5 0-6.4 4.5-11.5 10-11.5 5.5 0 10 5.1 10 11.5 0 6.4-4.5 11.5-10 11.5z"/>
			<path id="Layer" class="s0" d="m393.5 23c-5.8 0-10.5-5.1-10.5-11.5 0-6.4 4.7-11.5 10.5-11.5 5.8 0 10.5 5.1 10.5 11.5 0 6.4-4.7 11.5-10.5 11.5z"/>
			<path id="Layer" class="s0" d="m419 23c-5.5 0-10-5.1-10-11.5 0-6.4 4.5-11.5 10-11.5 5.5 0 10 5.1 10 11.5 0 6.4-4.5 11.5-10 11.5z"/>
			<path id="Layer" class="s0" d="m444.5 23c-5.8 0-10.5-5.1-10.5-11.5 0-6.4 4.7-11.5 10.5-11.5 5.8 0 10.5 5.1 10.5 11.5 0 6.4-4.7 11.5-10.5 11.5z"/>
			<path id="Layer" class="s0" d="m470 23c-5.5 0-10-5.1-10-11.5 0-6.4 4.5-11.5 10-11.5 5.5 0 10 5.1 10 11.5 0 6.4-4.5 11.5-10 11.5z"/>
			<path id="Layer" class="s0" d="m495.5 23c-5.8 0-10.5-5.1-10.5-11.5 0-6.4 4.7-11.5 10.5-11.5 5.8 0 10.5 5.1 10.5 11.5 0 6.4-4.7 11.5-10.5 11.5z"/>
			<path id="Layer" class="s0" d="m521 23c-5.5 0-10-5.1-10-11.5 0-6.4 4.5-11.5 10-11.5 5.5 0 10 5.1 10 11.5 0 6.4-4.5 11.5-10 11.5z"/>
			<path id="Layer" class="s0" d="m546.5 23c-5.8 0-10.5-5.1-10.5-11.5 0-6.4 4.7-11.5 10.5-11.5 5.8 0 10.5 5.1 10.5 11.5 0 6.4-4.7 11.5-10.5 11.5z"/>
			<path id="Layer" class="s0" d="m572 23c-5.5 0-10-5.1-10-11.5 0-6.4 4.5-11.5 10-11.5 5.5 0 10 5.1 10 11.5 0 6.4-4.5 11.5-10 11.5z"/>
			<path id="Layer" class="s0" d="m597.5 23c-5.8 0-10.5-5.1-10.5-11.5 0-6.4 4.7-11.5 10.5-11.5 5.8 0 10.5 5.1 10.5 11.5 0 6.4-4.7 11.5-10.5 11.5z"/>
		</g>
	</g>
</svg>