<svg width="50" height="50" viewBox="0 0 50 50" fill="none" xmlns="http://www.w3.org/2000/svg">
<g filter="url(#filter0_b_3175_7851)">
<circle cx="25" cy="25" r="25" fill="#FF8D2F" fill-opacity="0.3"/>
</g>
<circle cx="25" cy="25" r="15" fill="#FF8D2F"/>
<path fill-rule="evenodd" clip-rule="evenodd" d="M32.5004 27.9143C32.1722 26.789 31.1406 25.9802 29.8981 25.9802C29.5348 25.9802 29.1948 26.0505 28.89 26.1677C28.9721 25.8278 29.0191 25.4761 29.0191 25.1128C29.0191 24.2219 28.7494 23.4014 28.3039 22.7214C28.386 22.7331 28.468 22.745 28.5619 22.745H29.0424V20.1309H28.5619C27.9523 20.1309 27.4482 20.5412 27.2958 21.0921H25.7837C25.5845 21.0921 25.4321 21.2445 25.4321 21.4438C25.4321 21.643 25.5845 21.7954 25.7837 21.7954H27.2842C27.3075 21.8893 27.3427 21.983 27.3897 22.065V27.117C27.3897 27.4804 27.0966 27.7851 26.7333 27.7851H25.5728C23.7323 27.7851 23.8262 26.0151 23.791 25.0891H20.2627C19.0319 25.0891 17.1916 26.6716 16.6992 28.723H27.9638C27.9286 28.8753 27.917 29.0276 27.917 29.18C27.917 30.3405 28.8547 31.29 30.027 31.29C31.1991 31.29 32.1369 30.3523 32.1369 29.18C32.1369 28.6994 31.9728 28.2657 31.7032 27.9141L32.5004 27.9143ZM30.0153 30.2001C29.4644 30.2001 29.0072 29.7546 29.0072 29.192C29.0072 28.6293 29.4527 28.1839 30.0153 28.1839C30.578 28.1839 31.0234 28.6293 31.0234 29.192C31.0234 29.7546 30.578 30.2001 30.0153 30.2001Z" fill="white"/>
<path fill-rule="evenodd" clip-rule="evenodd" d="M17.3789 23.6609C17.3789 24.0612 17.7057 24.3858 18.1019 24.3858H23.0677C23.4669 24.3858 23.7907 24.0596 23.7907 23.6609V18.7103C23.7907 18.31 23.4639 17.9855 23.0677 17.9855H18.1019C17.7027 17.9855 17.3789 18.3116 17.3789 18.7103V23.6609ZM20.3093 20.7989H18.4339C18.2346 20.7989 18.0822 20.6347 18.0822 20.4471C18.0822 20.2479 18.2346 20.0955 18.4339 20.0955H20.3093C20.5085 20.0955 20.6609 20.2479 20.6609 20.4471C20.6609 20.6465 20.5085 20.7989 20.3093 20.7989ZM21.9503 19.3922H18.4338C18.2346 19.3922 18.0822 19.2281 18.0822 19.0405C18.0822 18.8413 18.2346 18.6889 18.4338 18.6889H21.9503C22.1497 18.6889 22.3021 18.8413 22.3021 19.0405C22.3021 19.2398 22.1497 19.3922 21.9503 19.3922Z" fill="white"/>
<path fill-rule="evenodd" clip-rule="evenodd" d="M21.1884 29.4379C21.0243 29.7778 20.6843 30.0123 20.274 30.0123C19.8638 30.0123 19.5238 29.7778 19.3598 29.4379H18.2109C18.4102 30.3991 19.2542 31.1141 20.274 31.1141C21.2939 31.1141 22.1378 30.3874 22.337 29.4379H21.1884Z" fill="white"/>
<defs>
<filter id="filter0_b_3175_7851" x="-4" y="-4" width="58" height="58" filterUnits="userSpaceOnUse" color-interpolation-filters="sRGB">
<feFlood flood-opacity="0" result="BackgroundImageFix"/>
<feGaussianBlur in="BackgroundImageFix" stdDeviation="2"/>
<feComposite in2="SourceAlpha" operator="in" result="effect1_backgroundBlur_3175_7851"/>
<feBlend mode="normal" in="SourceGraphic" in2="effect1_backgroundBlur_3175_7851" result="shape"/>
</filter>
</defs>
</svg>
