<svg width="66" height="6" viewBox="0 0 66 6" fill="none" xmlns="http://www.w3.org/2000/svg">
<path d="M0.0185351 2.61244C-0.0691483 1.653 1.23789 0.892022 2.94071 0.902526L3.23666 0.907346L3.53262 0.912167L3.82857 0.916987L4.12452 0.921807L4.46966 0.929726L4.76561 0.934546L5.06157 0.939366L5.35752 0.944187L5.65347 0.949007L5.94943 0.953827L6.24538 0.958647L6.54134 0.963468L6.83729 0.968288L7.20788 0.963986L7.50384 0.968806L7.82438 0.975175L8.14493 0.981545L8.44088 0.986365L8.73683 0.991185L9.03279 0.996006L9.32874 1.00083L9.62469 1.00565L9.9707 0.999795L10.2667 1.00461L10.5626 1.00944L10.8586 1.01426L11.2037 1.02217L11.4996 1.02699L11.7956 1.03181L12.0916 1.03664L12.4367 1.04455L12.7572 1.05092L13.0532 1.05574L13.3491 1.06056L13.6697 1.06693L13.9656 1.07175L14.2616 1.07657L14.5575 1.08139L14.8535 1.08621L15.1495 1.09103L15.4454 1.09585L15.816 1.09155L16.112 1.09637L16.4079 1.10119L16.7039 1.10601L16.9998 1.11083L17.2958 1.11565L17.6163 1.12202L17.9369 1.12839L18.2328 1.13321L18.5288 1.13803L18.8739 1.14595L19.1699 1.15077L19.4658 1.15559L19.7618 1.16041L20.0577 1.16523L20.3537 1.17005L20.6496 1.17487L20.9456 1.17969L21.2415 1.18451L21.5375 1.18933L21.9564 1.2019L22.2524 1.20672L22.5729 1.21309L22.8934 1.21946L23.1894 1.22428L23.4853 1.2291L23.7813 1.23392L24.0773 1.23874L24.3732 1.24356L24.6692 1.24838L24.9651 1.2532L25.2611 1.25802L25.557 1.26284L25.853 1.26766L26.1489 1.27248L26.4449 1.2773L26.7408 1.28212L27.0368 1.28694L27.3573 1.29331L27.6779 1.29968L27.9738 1.3045L28.2698 1.30932L28.7124 1.33721L29.0084 1.34203L29.3043 1.34685L29.6003 1.35167L29.9454 1.35959L30.2414 1.36441L30.5373 1.36923L30.8333 1.37405L31.1784 1.38197L31.4744 1.38679L31.7703 1.39161L32.0663 1.39643L32.4114 1.40435L32.732 1.41072L33.0279 1.41554L33.3239 1.42036L33.6444 1.42673L33.9404 1.43155L34.2363 1.43637L34.5323 1.44119L34.8765 1.46288L35.1725 1.4677L35.4684 1.47252L35.7644 1.47734L36.1095 1.48526L36.4055 1.49008L36.7014 1.4949L36.9974 1.49972L37.3179 1.50609L37.6385 1.51246L37.959 1.51883L38.2541 1.53742L38.5501 1.54224L38.846 1.54706L39.142 1.55188L39.4379 1.5567L39.7339 1.56152L40.0298 1.56634L40.3258 1.57116L40.6217 1.57598L40.9177 1.5808L41.3366 1.59336L41.6326 1.59819L41.9285 1.60301L42.2491 1.60937L42.5696 1.61574L42.8656 1.62056L43.1615 1.62539L43.4575 1.63021L43.7534 1.63503L44.0494 1.63985L44.3453 1.64467L44.7142 1.6679L45.0101 1.67272L45.3061 1.67754L45.602 1.68237L45.898 1.68719L46.194 1.69201L46.4899 1.69683L46.7859 1.70165L47.1064 1.70802L47.4024 1.71284L47.6983 1.71766L48.0918 1.74244L48.3869 1.76103L48.6828 1.76585L48.9788 1.77067L49.2747 1.77549L49.5707 1.78032L49.8666 1.78514L50.1626 1.78996L50.4585 1.79478L50.7545 1.7996L51.1488 1.81061L51.4448 1.81543L51.7644 1.83557L52.0604 1.84039L52.3809 1.84676L52.6769 1.85158L52.9728 1.8564L53.2688 1.86122L53.6139 1.86914L53.9099 1.87396L54.2058 1.87878L54.5018 1.8836L54.8461 1.90529L55.142 1.91011L55.438 1.91493L55.7339 1.91975L56.0791 1.92767L56.375 1.93249L56.671 1.93731L56.9669 1.94213L57.2629 1.94695L57.5588 1.95177L57.8548 1.95659L58.1507 1.96141L58.5196 1.98465L58.8155 1.98947L59.1115 1.99429L59.4074 1.99911L59.7034 2.00393L59.9994 2.00875L60.2953 2.01357L60.5913 2.01839L60.8872 2.02321L61.1832 2.02803L61.4791 2.03285L61.8972 2.05919C63.5983 2.09724 65.0532 2.90779 65.0908 3.87791C65.1539 4.8358 63.8223 5.59523 62.0975 5.54187L61.8015 5.53705L61.5055 5.53223L61.2096 5.52741L60.9136 5.52259L60.6177 5.51777L60.3217 5.51295L60.0258 5.50813L59.7298 5.50331L59.4339 5.49849L59.1379 5.49366L58.842 5.48884L58.546 5.48402L58.2501 5.4792L57.9541 5.47438L57.6581 5.46956L57.3622 5.46474L57.0662 5.45992L56.7703 5.4551L56.4743 5.45028L56.1784 5.44546L55.8824 5.44064L55.5865 5.43582L55.2905 5.431L54.9946 5.42618L54.6986 5.42136L54.4027 5.41654L54.1067 5.41172L53.8107 5.4069L53.5148 5.40208L53.2188 5.39726L52.9229 5.39244L52.6269 5.38762L52.331 5.3828L52.035 5.37798L51.7391 5.37316L51.4431 5.36834L51.1472 5.36352L50.8512 5.3587L50.5552 5.35388L50.2593 5.34906L49.9633 5.34424L49.6674 5.33942L49.3714 5.3346L49.0755 5.32978L48.7795 5.32496L48.4836 5.32014L48.1876 5.31531L47.8917 5.31049L47.5957 5.30567L47.2998 5.30085L47.0038 5.29603L46.7078 5.29121L46.4119 5.28639L46.1159 5.28157L45.82 5.27675L45.524 5.27193L45.2281 5.26711L44.9321 5.26229L44.6362 5.25747L44.3402 5.25265L44.0443 5.24783L43.7483 5.24301L43.4524 5.23819L43.1564 5.23337L42.8604 5.22855L42.5645 5.22373L42.2685 5.21891L41.9726 5.21409L41.6766 5.20927L41.3807 5.20445L41.0847 5.19963L40.7888 5.19481L40.4928 5.18999L40.1969 5.18517L39.9009 5.18035L39.605 5.17553L39.309 5.17071L39.013 5.16589L38.7171 5.16107L38.4211 5.15625L38.1252 5.15143L37.8292 5.1466L37.5333 5.14179L37.2373 5.13696L36.9414 5.13214L36.6454 5.12732L36.3495 5.1225L36.0535 5.11768L35.7576 5.11286L35.4616 5.10804L35.1656 5.10322L34.8697 5.0984L34.5737 5.09358L34.2778 5.08876L33.9818 5.08394L33.6859 5.07912L33.3899 5.0743L33.094 5.06948L32.798 5.06466L32.5021 5.05984L32.2061 5.05502L31.9102 5.0502L31.6142 5.04538L31.3182 5.04056L31.0223 5.03574L30.7263 5.03092L30.4304 5.0261L28.9865 4.82453L28.6905 4.81971L28.3946 4.81489L28.0986 4.81007L27.8027 4.80525L27.5067 4.80043L27.2108 4.79561L26.9148 4.79079L26.6189 4.78597L26.3229 4.78115L26.0269 4.77633L25.731 4.77151L25.435 4.76669L25.1391 4.76187L24.8431 4.75705L24.5472 4.75223L24.2512 4.74741L23.9553 4.74259L23.6593 4.73777L23.3634 4.73295L23.0674 4.72813L22.7715 4.72331L22.4755 4.71849L22.1795 4.71367L21.8836 4.70885L21.5876 4.70403L21.2917 4.69921L20.9957 4.69439L20.6998 4.68956L20.4038 4.68474L20.1079 4.67992L19.8119 4.6751L19.516 4.67028L19.22 4.66546L18.924 4.66064L18.6281 4.65582L18.3321 4.651L18.0362 4.64618L17.7402 4.64136L17.4443 4.63654L17.1483 4.63172L16.4106 4.58525L16.1147 4.58043L15.8187 4.5756L15.5227 4.57078L15.2268 4.56596L14.9308 4.56114L14.6349 4.55632L14.3389 4.5515L14.043 4.54668L13.747 4.54186L13.4511 4.53704L13.1551 4.53222L12.8592 4.5274L12.5632 4.52258L12.2673 4.51776L11.9713 4.51294L11.6753 4.50812L11.3794 4.5033L11.0834 4.49848L10.7875 4.49366L10.4915 4.48884L10.1956 4.48402L9.89962 4.4792L9.60367 4.47438L9.30772 4.46956L9.01176 4.46474L8.71581 4.45992L8.41985 4.4551L8.1239 4.45028L7.82795 4.44546L7.53199 4.44064L7.23604 4.43582L6.94008 4.431L6.64413 4.42618L6.34818 4.42136L6.05222 4.41654L5.75627 4.41172L5.46031 4.4069L5.16436 4.40208L4.86841 4.39726L4.57245 4.39243L4.2765 4.38761L3.98054 4.38279L3.68459 4.37797C1.56113 4.38244 0.106219 3.57189 0.0185351 2.61244Z" fill="#FF7D05"/>
</svg>
