<svg width="32" height="32" viewBox="0 0 32 32" fill="none" xmlns="http://www.w3.org/2000/svg">
<g clip-path="url(#clip0_1_4617)">
<path d="M27.4932 11.2666C26.0932 5.10659 20.7199 2.33325 15.9999 2.33325C15.9999 2.33325 15.9999 2.33325 15.9865 2.33325C11.2799 2.33325 5.89322 5.09325 4.49322 11.2533C2.93322 18.1333 7.14655 23.9599 10.9599 27.6266C12.3732 28.9866 14.1866 29.6666 15.9999 29.6666C17.8132 29.6666 19.6266 28.9866 21.0266 27.6266C24.8399 23.9599 29.0532 18.1466 27.4932 11.2666ZM15.9999 17.9466C13.6799 17.9466 11.7999 16.0666 11.7999 13.7466C11.7999 11.4266 13.6799 9.54658 15.9999 9.54658C18.3199 9.54658 20.1999 11.4266 20.1999 13.7466C20.1999 16.0666 18.3199 17.9466 15.9999 17.9466Z" fill="#FC8019"/>
</g>
<defs>
<clipPath id="clip0_1_4617">
<rect width="32" height="32" fill="white"/>
</clipPath>
</defs>
</svg>
