<svg width="38" height="38" viewBox="0 0 38 38" fill="none" xmlns="http://www.w3.org/2000/svg">
<path d="M30.0837 14.2503C30.0837 16.5462 29.4028 18.652 28.2312 20.4095C26.5212 22.9428 23.8137 24.732 20.6628 25.1912C20.1245 25.2862 19.5703 25.3337 19.0003 25.3337C18.4303 25.3337 17.8762 25.2862 17.3378 25.1912C14.187 24.732 11.4795 22.9428 9.76949 20.4095C8.59783 18.652 7.91699 16.5462 7.91699 14.2503C7.91699 8.12283 12.8728 3.16699 19.0003 3.16699C25.1278 3.16699 30.0837 8.12283 30.0837 14.2503Z" stroke="#FC8019" stroke-width="2" stroke-linecap="round" stroke-linejoin="round"/>
<path d="M33.6456 29.244L31.0331 29.8615C30.4472 30.004 29.9881 30.4473 29.8614 31.0332L29.3072 33.3607C29.0064 34.6273 27.3914 35.0073 26.5522 34.0098L18.9997 25.3331L11.4472 34.0256C10.6081 35.0231 8.99305 34.6431 8.69222 33.3765L8.13805 31.049C7.99555 30.4631 7.53638 30.004 6.96638 29.8773L4.35388 29.2598C3.15055 28.9748 2.72305 27.4706 3.59388 26.5998L9.76888 20.4248C11.4789 22.9581 14.1864 24.7473 17.3372 25.2065C17.8756 25.3015 18.4297 25.349 18.9997 25.349C19.5697 25.349 20.1239 25.3015 20.6622 25.2065C23.8131 24.7473 26.5206 22.9581 28.2306 20.4248L34.4056 26.5998C35.2764 27.4548 34.8489 28.959 33.6456 29.244Z" stroke="#FC8019" stroke-width="2" stroke-linecap="round" stroke-linejoin="round"/>
<path d="M19.9181 9.46801L20.8523 11.3363C20.979 11.5897 21.3115 11.843 21.6123 11.8905L23.3065 12.1755C24.3831 12.3497 24.6365 13.1413 23.8606 13.9172L22.5465 15.2313C22.3248 15.453 22.1981 15.8805 22.2773 16.1972L22.6573 17.828C22.9581 19.1105 22.2773 19.6171 21.1373 18.9363L19.554 18.0021C19.269 17.828 18.794 17.828 18.509 18.0021L16.9256 18.9363C15.7856 19.6013 15.1048 19.1105 15.4056 17.828L15.7856 16.1972C15.849 15.8963 15.7381 15.453 15.5165 15.2313L14.2024 13.9172C13.4265 13.1413 13.6798 12.3655 14.7565 12.1755L16.4506 11.8905C16.7356 11.843 17.0681 11.5897 17.1948 11.3363L18.129 9.46801C18.5881 8.45467 19.4115 8.45467 19.9181 9.46801Z" stroke="#FC8019" stroke-width="2" stroke-linecap="round" stroke-linejoin="round"/>
</svg>
