<svg width="19" height="19" viewBox="0 0 19 19" fill="none" xmlns="http://www.w3.org/2000/svg">
<path d="M16.2331 14.4585L14.9726 14.7564C14.69 14.8252 14.4685 15.0391 14.4074 15.3217L14.14 16.4446C13.9949 17.0557 13.2157 17.2467 12.8108 16.7654L10.5268 14.1377C10.3435 13.9238 10.4428 13.5877 10.7178 13.5189C12.0699 13.1904 13.2845 12.4342 14.1782 11.3571C14.3233 11.1814 14.5831 11.1585 14.7435 11.3189L16.4393 13.0148C17.0199 13.5953 16.8136 14.321 16.2331 14.4585Z" fill="white"/>
<path d="M2.06275 14.4585L3.32316 14.7564C3.6058 14.8252 3.82733 15.0391 3.88844 15.3217L4.1558 16.4446C4.30094 17.0557 5.08011 17.2467 5.48497 16.7654L7.769 14.1377C7.95233 13.9238 7.85302 13.5877 7.57802 13.5189C6.22594 13.1904 5.01136 12.4342 4.11761 11.3571C3.97247 11.1814 3.71275 11.1585 3.55233 11.3189L1.8565 13.0148C1.27594 13.5953 1.48219 14.321 2.06275 14.4585Z" fill="white"/>
<path d="M9.16656 1.87598C6.21031 1.87598 3.81934 4.26695 3.81934 7.2232C3.81934 8.33084 4.14781 9.34681 4.71309 10.1947C5.53809 11.4169 6.84434 12.2801 8.36447 12.5017C8.6242 12.5475 8.89156 12.5704 9.16656 12.5704C9.44156 12.5704 9.70892 12.5475 9.96864 12.5017C11.4888 12.2801 12.795 11.4169 13.62 10.1947C14.1853 9.34681 14.5138 8.33084 14.5138 7.2232C14.5138 4.26695 12.1228 1.87598 9.16656 1.87598ZM11.5041 7.05514L10.87 7.68917C10.7631 7.79611 10.702 8.00237 10.7402 8.15514L10.9235 8.94195C11.0686 9.5607 10.7402 9.80514 10.1902 9.47667L9.42628 9.02598C9.28878 8.94195 9.05961 8.94195 8.92211 9.02598L8.15822 9.47667C7.60822 9.7975 7.27975 9.5607 7.42489 8.94195L7.60822 8.15514C7.63878 8.01 7.58531 7.79611 7.47836 7.68917L6.82906 7.05514C6.45475 6.68084 6.57697 6.30653 7.09642 6.2225L7.91378 6.085C8.05128 6.06209 8.2117 5.93987 8.27281 5.81764L8.7235 4.91625C8.96795 4.42737 9.36517 4.42737 9.60961 4.91625L10.0603 5.81764C10.1214 5.93987 10.2818 6.06209 10.427 6.085L11.2443 6.2225C11.7561 6.30653 11.8784 6.68084 11.5041 7.05514Z" fill="white"/>
</svg>
