<svg width="19" height="25" viewBox="0 0 19 25" fill="none" xmlns="http://www.w3.org/2000/svg">
<path d="M13.2304 24.2982C16.4058 21.1118 18.1888 16.7967 18.1888 12.2982C18.1888 7.79974 16.4058 3.48464 13.2304 0.298233C13.1359 0.203681 13.0236 0.128678 12.9001 0.077507C12.7765 0.026336 12.6442 0 12.5104 0C12.3767 0 12.2443 0.026336 12.1208 0.077507C11.9972 0.128678 11.885 0.203681 11.7904 0.298233C11.6959 0.392785 11.6209 0.505033 11.5697 0.628571C11.5185 0.752108 11.4922 0.884518 11.4922 1.01823C11.4922 1.15195 11.5185 1.28436 11.5697 1.4079C11.6209 1.53144 11.6959 1.64368 11.7904 1.73824C14.5842 4.54867 16.1523 8.35045 16.1523 12.3132C16.1523 16.276 14.5842 20.0778 11.7904 22.8882C11.5995 23.0792 11.4922 23.3382 11.4922 23.6082C11.4922 23.8783 11.5995 24.1373 11.7904 24.3282C11.9814 24.5192 12.2404 24.6265 12.5104 24.6265C12.7805 24.6265 13.0395 24.5192 13.2304 24.3282V24.2982Z" fill="white"/>
<path d="M9.91794 3.62831C9.82339 3.53376 9.71112 3.45876 9.58759 3.40759C9.46405 3.35641 9.33165 3.33008 9.19794 3.33008C9.06422 3.33008 8.9318 3.35641 8.80826 3.40759C8.68472 3.45876 8.57249 3.53376 8.47794 3.62831C8.38338 3.72286 8.30837 3.83511 8.2572 3.95865C8.20603 4.08219 8.17969 4.2146 8.17969 4.34831C8.17969 4.48203 8.20603 4.61444 8.2572 4.73798C8.30837 4.86151 8.38338 4.97376 8.47794 5.06831C10.3985 6.99844 11.4766 9.61049 11.4766 12.3333C11.4766 15.0561 10.3985 17.6682 8.47794 19.5983C8.28698 19.7893 8.17969 20.0483 8.17969 20.3183C8.17969 20.5884 8.28698 20.8474 8.47794 21.0383C8.66889 21.2293 8.92788 21.3365 9.19794 21.3365C9.46799 21.3365 9.72698 21.2293 9.91794 21.0383C12.2244 18.7284 13.5198 15.5976 13.5198 12.3333C13.5198 9.06906 12.2244 5.93822 9.91794 3.62831Z" fill="white"/>
<path d="M6.75918 6.73801C6.66576 6.63967 6.55331 6.56137 6.42867 6.50786C6.30404 6.45435 6.16981 6.42676 6.03417 6.42676C5.89854 6.42676 5.76431 6.45435 5.63967 6.50786C5.51504 6.56137 5.40259 6.63967 5.30917 6.73801C5.21238 6.83129 5.1354 6.94312 5.08282 7.06683C5.03024 7.19054 5.00314 7.32359 5.00314 7.45801C5.00314 7.59243 5.03024 7.72547 5.08282 7.84917C5.1354 7.97288 5.21238 8.08473 5.30917 8.17801C6.39369 9.26691 7.00262 10.7412 7.00262 12.278C7.00262 13.8149 6.39369 15.2891 5.30917 16.378C5.15637 16.5164 5.05008 16.6986 5.00485 16.8997C4.95961 17.1009 4.97763 17.3111 5.05645 17.5015C5.13527 17.692 5.27106 17.8535 5.44518 17.9639C5.61931 18.0742 5.82326 18.128 6.02917 18.118C6.16483 18.1201 6.29951 18.0946 6.42501 18.0431C6.55051 17.9915 6.66422 17.9149 6.75918 17.818C8.22475 16.3467 9.04763 14.3547 9.04763 12.278C9.04763 10.2013 8.22475 8.20928 6.75918 6.73801Z" fill="white"/>
<path d="M4 12.2783C4 11.8828 3.8827 11.4961 3.66294 11.1672C3.44317 10.8383 3.13084 10.5819 2.76538 10.4306C2.39993 10.2792 1.9978 10.2396 1.60984 10.3168C1.22187 10.3939 0.865494 10.5844 0.585789 10.8641C0.306084 11.1438 0.115596 11.5002 0.0384254 11.8881C-0.038745 12.2761 0.000880703 12.6782 0.152256 13.0437C0.303631 13.4091 0.55996 13.7215 0.888859 13.9413C1.21776 14.161 1.60444 14.2783 2 14.2783C2.53044 14.2783 3.03915 14.0676 3.41422 13.6925C3.78929 13.3175 4 12.8088 4 12.2783Z" fill="white"/>
</svg>
