<svg width="50" height="50" viewBox="0 0 50 50" fill="none" xmlns="http://www.w3.org/2000/svg">
<g filter="url(#filter0_b_760_10841)">
<circle cx="25" cy="25" r="25" fill="#2FA8FF" fill-opacity="0.3"/>
</g>
<circle cx="25" cy="25" r="15" fill="#2FA8FF"/>
<path d="M26.7974 29.1271L26.7813 33.3985C26.7809 33.4941 26.8196 33.5853 26.8883 33.6515C26.9535 33.7147 27.0406 33.7496 27.1309 33.7496C27.1357 33.7496 27.1403 33.7496 27.1451 33.7492L28.8733 33.6788C29.0602 33.6713 29.2081 33.518 29.2087 33.3309L29.2252 28.9771C29.1329 29.0103 29.0367 29.035 28.9348 29.0408L26.7974 29.1271Z" fill="white"/>
<path d="M29.1397 17.0424C29.0523 16.9726 28.9404 16.9515 28.8354 16.9795C27.2165 17.3956 26.0102 18.8676 25.8284 20.6438L25.0801 28.0983C25.0696 28.1996 25.1012 28.2975 25.171 28.371C25.2376 28.4443 25.332 28.4827 25.4265 28.4827H25.4404L28.8985 28.3428C29.0838 28.3323 29.2307 28.182 29.2342 27.9931L29.2727 17.3185C29.2727 17.2101 29.2237 17.1088 29.1397 17.0423L29.1397 17.0424Z" fill="white"/>
<path d="M21.5809 24.2131C21.2101 24.2131 20.8619 24.1173 20.5437 23.9471L20.3004 32.2847C20.2732 32.676 20.4055 33.0612 20.6633 33.3412C20.9015 33.6001 21.2204 33.7451 21.5614 33.7496H21.5778C21.9167 33.7496 22.2356 33.6103 22.4769 33.3566C22.7424 33.0773 22.8802 32.6893 22.8552 32.3059L22.6452 23.9336C22.3198 24.1132 21.962 24.2131 21.5809 24.2131V24.2131Z" fill="white"/>
<path d="M21.5784 16.9653C20.4036 16.9653 19.4805 18.4059 19.4805 20.2416C19.4805 22.0773 20.4035 23.5143 21.5784 23.5143C22.7567 23.5143 23.6764 22.0772 23.6764 20.2416C23.6762 18.4059 22.7566 16.9653 21.5784 16.9653V16.9653Z" fill="white"/>
<defs>
<filter id="filter0_b_760_10841" x="-4" y="-4" width="58" height="58" filterUnits="userSpaceOnUse" color-interpolation-filters="sRGB">
<feFlood flood-opacity="0" result="BackgroundImageFix"/>
<feGaussianBlur in="BackgroundImageFix" stdDeviation="2"/>
<feComposite in2="SourceAlpha" operator="in" result="effect1_backgroundBlur_760_10841"/>
<feBlend mode="normal" in="SourceGraphic" in2="effect1_backgroundBlur_760_10841" result="shape"/>
</filter>
</defs>
</svg>
