<svg width="12" height="12" viewBox="0 0 12 12" fill="none" xmlns="http://www.w3.org/2000/svg">
<path d="M6.86544 1.75531L7.74544 3.51531C7.86544 3.76031 8.18544 3.99531 8.45544 4.04031L10.0504 4.30531C11.0704 4.47531 11.3104 5.21531 10.5754 5.94531L9.33544 7.18531C9.12544 7.39531 9.01044 7.80031 9.07544 8.09031L9.43044 9.62531C9.71044 10.8403 9.06544 11.3103 7.99044 10.6753L6.49544 9.79031C6.22544 9.63031 5.78044 9.63031 5.50544 9.79031L4.01044 10.6753C2.94044 11.3103 2.29044 10.8353 2.57044 9.62531L2.92544 8.09031C2.99044 7.80031 2.87544 7.39531 2.66544 7.18531L1.42544 5.94531C0.695443 5.21531 0.930443 4.47531 1.95044 4.30531L3.54544 4.04031C3.81044 3.99531 4.13044 3.76031 4.25044 3.51531L5.13044 1.75531C5.61044 0.800313 6.39044 0.800313 6.86544 1.75531Z" fill="#FCB93A"/>
</svg>
