<svg width="50" height="50" viewBox="0 0 50 50" fill="none" xmlns="http://www.w3.org/2000/svg">
<path d="M11.3958 18.7493C15.4229 18.7493 18.6875 15.4848 18.6875 11.4577C18.6875 7.43061 15.4229 4.16602 11.3958 4.16602C7.36875 4.16602 4.10416 7.43061 4.10416 11.4577C4.10416 15.4848 7.36875 18.7493 11.3958 18.7493Z" stroke="#FC8019" stroke-width="2"/>
<path d="M35.3542 31.25H41.6042C43.8958 31.25 45.7708 33.125 45.7708 35.4167V41.6667C45.7708 43.9583 43.8958 45.8333 41.6042 45.8333H35.3542C33.0625 45.8333 31.1875 43.9583 31.1875 41.6667V35.4167C31.1875 33.125 33.0625 31.25 35.3542 31.25Z" stroke="#FC8019" stroke-width="2"/>
<path d="M25 10.416H30.5833C34.4375 10.416 36.2292 15.1868 33.3333 17.7285L16.6875 32.291C13.7917 34.8118 15.5833 39.5827 19.4167 39.5827H25" stroke="#FC8019" stroke-width="2" stroke-linecap="round" stroke-linejoin="round"/>
<path d="M11.4296 11.4577H11.4537" stroke="#FC8019" stroke-width="2" stroke-linecap="round" stroke-linejoin="round"/>
<path d="M38.513 38.5417H38.537" stroke="#FC8019" stroke-width="2" stroke-linecap="round" stroke-linejoin="round"/>
</svg>
