<svg version="1.2" xmlns="http://www.w3.org/2000/svg" viewBox="0 0 100 100" width="100" height="100">
	<title>star-svg</title>
	<style>
		.s0 { fill: #ffffff } 
	</style>
	<path id="Layer" class="s0" d="m99.7 38.4c-0.6-2-2.4-3.5-4.5-3.7l-28.9-2.6-11.4-26.6c-0.9-2-2.8-3.3-4.9-3.3-2.1 0-4 1.3-4.9 3.3l-11.4 26.6-28.9 2.6c-2.1 0.2-3.9 1.7-4.5 3.7-0.7 2-0.1 4.2 1.5 5.6l21.8 19.1-6.4 28.3c-0.5 2.1 0.3 4.2 2.1 5.5 0.9 0.6 2 1 3.1 1 0.9 0 1.9-0.3 2.7-0.8l24.9-14.8 24.9 14.8c1.8 1.1 4.1 1 5.8-0.2 1.8-1.3 2.6-3.4 2.1-5.5l-6.4-28.3 21.8-19.1c1.6-1.4 2.2-3.6 1.5-5.6z"/>
</svg>