<svg width="50" height="50" viewBox="0 0 50 50" fill="none" xmlns="http://www.w3.org/2000/svg">
<path d="M25.0003 29.1667H27.0836C29.3753 29.1667 31.2503 27.2917 31.2503 25.0001V4.16675H12.5003C9.37531 4.16675 6.64616 5.89589 5.22949 8.43756" stroke="#FC8019" stroke-width="2" stroke-linecap="round" stroke-linejoin="round"/>
<path d="M4.16699 35.4167C4.16699 38.8751 6.95866 41.6667 10.417 41.6667H12.5003C12.5003 39.3751 14.3753 37.5001 16.667 37.5001C18.9587 37.5001 20.8337 39.3751 20.8337 41.6667H29.167C29.167 39.3751 31.042 37.5001 33.3337 37.5001C35.6253 37.5001 37.5003 39.3751 37.5003 41.6667H39.5837C43.042 41.6667 45.8337 38.8751 45.8337 35.4167V29.1667H39.5837C38.4378 29.1667 37.5003 28.2292 37.5003 27.0834V20.8334C37.5003 19.6876 38.4378 18.7501 39.5837 18.7501H42.2711L38.7087 12.5209C37.9587 11.2293 36.5837 10.4167 35.0837 10.4167H31.2503V25.0001C31.2503 27.2917 29.3753 29.1667 27.0837 29.1667H25.0003" stroke="#FC8019" stroke-width="2" stroke-linecap="round" stroke-linejoin="round"/>
<path d="M16.6667 45.8333C18.9679 45.8333 20.8333 43.9679 20.8333 41.6667C20.8333 39.3655 18.9679 37.5 16.6667 37.5C14.3655 37.5 12.5 39.3655 12.5 41.6667C12.5 43.9679 14.3655 45.8333 16.6667 45.8333Z" stroke="#FC8019" stroke-width="2" stroke-linecap="round" stroke-linejoin="round"/>
<path d="M33.3337 45.8333C35.6348 45.8333 37.5003 43.9679 37.5003 41.6667C37.5003 39.3655 35.6348 37.5 33.3337 37.5C31.0325 37.5 29.167 39.3655 29.167 41.6667C29.167 43.9679 31.0325 45.8333 33.3337 45.8333Z" stroke="#FC8019" stroke-width="2" stroke-linecap="round" stroke-linejoin="round"/>
<path d="M45.8333 25V29.1667H39.5833C38.4375 29.1667 37.5 28.2292 37.5 27.0833V20.8333C37.5 19.6875 38.4375 18.75 39.5833 18.75H42.2708L45.8333 25Z" stroke="#FC8019" stroke-width="2" stroke-linecap="round" stroke-linejoin="round"/>
<path d="M4.16699 16.6667H16.667" stroke="#FC8019" stroke-width="2" stroke-linecap="round" stroke-linejoin="round"/>
<path d="M4.16699 22.9167H12.5003" stroke="#FC8019" stroke-width="2" stroke-linecap="round" stroke-linejoin="round"/>
<path d="M4.16699 29.1667H8.33366" stroke="#FC8019" stroke-width="2" stroke-linecap="round" stroke-linejoin="round"/>
</svg>
