<svg width="32" height="32" viewBox="0 0 32 32" fill="none" xmlns="http://www.w3.org/2000/svg">
<path d="M6.66659 20C3.71992 20 1.33325 22.3867 1.33325 25.3333C1.33325 26.3333 1.61325 27.28 2.10659 28.08C3.02659 29.6267 4.71992 30.6667 6.66659 30.6667C8.61325 30.6667 10.3066 29.6267 11.2266 28.08C11.7199 27.28 11.9999 26.3333 11.9999 25.3333C11.9999 22.3867 9.61325 20 6.66659 20ZM8.65325 26.3067H7.66659V27.3467C7.66659 27.8933 7.21325 28.3467 6.66659 28.3467C6.11992 28.3467 5.66659 27.8933 5.66659 27.3467V26.3067H4.67992C4.13325 26.3067 3.67992 25.8533 3.67992 25.3067C3.67992 24.76 4.13325 24.3067 4.67992 24.3067H5.66659V23.36C5.66659 22.8133 6.11992 22.36 6.66659 22.36C7.21325 22.36 7.66659 22.8133 7.66659 23.36V24.3067H8.65325C9.19992 24.3067 9.65325 24.76 9.65325 25.3067C9.65325 25.8533 9.21325 26.3067 8.65325 26.3067Z" fill="#FC8019"/>
<path d="M28.6667 16.6667H25.3334C23.8667 16.6667 22.6667 17.8667 22.6667 19.3334C22.6667 20.8001 23.8667 22.0001 25.3334 22.0001H28.6667C29.0401 22.0001 29.3334 21.7067 29.3334 21.3334V17.3334C29.3334 16.9601 29.0401 16.6667 28.6667 16.6667Z" fill="#FC8019"/>
<path d="M22.0401 7.19988C22.4401 7.58655 22.1068 8.18655 21.5468 8.18655L10.5068 8.17322C9.86678 8.17322 9.54678 7.39988 10.0001 6.94655L12.3334 4.59988C14.3068 2.63988 17.4934 2.63988 19.4668 4.59988L21.9868 7.14655C22.0001 7.15988 22.0268 7.18655 22.0401 7.19988Z" fill="#FC8019"/>
<path d="M29.1599 24.8799C28.3466 27.6266 25.9999 29.3333 22.7999 29.3333H14.1332C13.6132 29.3333 13.2799 28.7599 13.4932 28.2799C13.8932 27.3466 14.1466 26.2933 14.1466 25.3333C14.1466 21.2933 10.8532 17.9999 6.81323 17.9999C5.7999 17.9999 4.81323 18.2133 3.90657 18.6133C3.41323 18.8266 2.81323 18.4933 2.81323 17.9599V15.9999C2.81323 12.3733 4.9999 9.83992 8.3999 9.41325C8.73323 9.35992 9.09323 9.33325 9.46657 9.33325H22.7999C23.1466 9.33325 23.4799 9.34659 23.7999 9.39992C26.4932 9.70659 28.4399 11.3466 29.1599 13.7866C29.2932 14.2266 28.9732 14.6666 28.5199 14.6666H25.4666C22.5732 14.6666 20.2799 17.3066 20.9066 20.3066C21.3466 22.4933 23.3732 23.9999 25.5999 23.9999H28.5199C28.9866 23.9999 29.2932 24.4533 29.1599 24.8799Z" fill="#FC8019"/>
</svg>
